<?xml version="1.0" standalone="no"?>
<!DOCTYPE svg PUBLIC "-//W3C//DTD SVG 1.1//EN" "http://www.w3.org/Graphics/SVG/1.1/DTD/svg11.dtd" >
<svg xmlns="http://www.w3.org/2000/svg" xmlns:xlink="http://www.w3.org/1999/xlink" version="1.1">
<metadata>
Created by FontForge 20170731 at Wed Apr 14 14:18:11 2021
 By Aleksey,,,
Copyright 2020 The Roboto Serif Project Authors (https://github.com/googlefonts/RobotoSerif)
</metadata>
<defs>
<font id="RobotoSerif-20ptRegular" horiz-adv-x="560" >
  <font-face 
    font-family="Roboto Serif 20pt"
    font-weight="400"
    font-stretch="normal"
    units-per-em="1000"
    panose-1="0 0 0 0 0 0 0 0 0 0"
    ascent="750"
    descent="-250"
    x-height="508"
    cap-height="710"
    bbox="-477 -305 1316 1152"
    underline-thickness="100"
    underline-position="-300"
    unicode-range="U+0020-FB04"
  />
<missing-glyph horiz-adv-x="500" 
d="M50 -223v958h400v-958h-400zM100 -173h300v858h-300v-858z" />
    <glyph glyph-name="f_f" unicode="ff" horiz-adv-x="723" 
d="M38 508h354v-57h-354v57zM375 508h339v-57h-339v57zM479 55v516q0 70 27.5 109t71 55.5t90.5 16.5q22 0 44 -2.5t35 -7.5v-63q-10 4 -23 8t-27 6.5t-30 2.5q-28 0 -50.5 -10t-35.5 -37t-13 -78v-516q0 -3 12.5 -5.5t34 -3.5t48.5 -1h13v-45h-296v45h11q28 0 47.5 1
t30 3.5t10.5 5.5zM231 55q0 -3 10.5 -5.5t28.5 -3.5t41 -1h3v-45h-271v45h11q41 0 64.5 7t23.5 29v476q0 70 27 109t69 55.5t88 16.5q20 0 40.5 -2.5t33.5 -7.5v-63q-15 6 -34 11.5t-41 5.5q-27 0 -48 -10t-33.5 -37t-12.5 -78v-502z" />
    <glyph glyph-name="f_f_i" unicode="ffi" horiz-adv-x="1002" 
d="M38 508h359v-57h-359v57zM375 508h413v-57h-413v57zM479 55v516q0 52 14.5 87t40 55.5t56.5 29.5t64 9q19 0 38.5 -2.5t30.5 -7.5v-61q-9 4 -20.5 7.5t-24 5.5t-25.5 2q-25 0 -44 -10t-30 -37t-11 -78v-516q0 -3 11 -5.5t30.5 -3.5t43.5 -1h13v-45h-286v45h13
q26 0 45.5 1t30 3.5t10.5 5.5zM231 55q0 -3 10.5 -5.5t28.5 -3.5t41 -1h3v-45h-271v45h11q41 0 64.5 7t23.5 29v476q0 70 27 109t69 55.5t88 16.5q20 0 40.5 -2.5t33.5 -7.5v-63q-15 6 -34 11.5t-41 5.5q-27 0 -48 -10t-33.5 -37t-12.5 -78v-502zM856 619q-26 0 -43.5 16.5
t-17.5 44.5t17.5 44t43.5 16t43.5 -16t17.5 -44t-17.5 -44.5t-43.5 -16.5zM816 55v351q0 11 -4.5 19.5t-13 14t-22.5 8.5t-34 3h-11v57h174v-427q0 -22 23.5 -29t59.5 -7h1v-45h-257v45h11q14 0 31 1t29.5 3.5t12.5 5.5z" />
    <glyph glyph-name="f_f_l" unicode="ffl" horiz-adv-x="1007" 
d="M38 508h354v-57h-354v57zM231 55q0 -3 10.5 -5.5t28.5 -3.5t41 -1h3v-45h-271v45h11q41 0 64.5 7t23.5 29v476q0 70 27 109t69 55.5t88 16.5q20 0 40.5 -2.5t33.5 -7.5v-63q-15 6 -34 11.5t-41 5.5q-27 0 -48 -10t-33.5 -37t-12.5 -78v-502zM375 508h333v-57h-333v57z
M732 0v45h11q14 0 31 1t29.5 3.5t12.5 5.5v641l-60 39h149v-654q0 -22 23 -29t59 -7h2v-45h-257zM666 0h-286v45h13q26 0 45.5 1t30 3.5t10.5 5.5v516q0 52 17.5 87t47 55.5t67 29.5t77.5 9q33 0 62 -6.5t53.5 -18.5t42.5 -28l-3 -76q-21 28 -45 44t-51.5 22.5t-60.5 6.5
q-35 0 -61.5 -10t-41.5 -37t-15 -78v-516q0 -3 11 -5.5t30.5 -3.5t43.5 -1h13v-45z" />
    <glyph glyph-name="f_b" unicode="fb" horiz-adv-x="1023" 
d="M883 257q0 47 -9.5 84.5t-28.5 64.5t-46 41t-63 14q-41 0 -75.5 -17.5t-63 -51.5t-51.5 -85l-38 23q36 64 69.5 105.5t72.5 62t92 20.5q71 0 123.5 -32.5t82 -91t29.5 -137.5t-30.5 -139t-85 -94t-127.5 -34q-51 0 -90 19t-71.5 59.5t-66.5 104.5l39 22q23 -50 51.5 -83
t62.5 -49t73 -16q37 0 65.5 15t47.5 43t28.5 66.5t9.5 85.5zM479 699l-75 36h164v-614l-10 -15l-19 -109h-60v702zM38 508h333v-57h-333v57zM231 571v-516q0 -3 11 -5.5t30.5 -3.5t43.5 -1h13v-45h-286v45h11q41 0 64.5 7t23.5 29v490q0 52 17.5 87t47 55.5t67 29.5t77.5 9
q33 0 62 -6.5t53.5 -18.5t42.5 -28l-3 -76q-16 23 -38.5 39.5t-51.5 25t-67 8.5q-35 0 -61.5 -10t-41.5 -37t-15 -78z" />
    <glyph glyph-name="f_f_b" unicode="ffb" horiz-adv-x="1360" 
d="M1220 257q0 47 -9.5 84.5t-28.5 64.5t-46 41t-63 14q-41 0 -75.5 -17.5t-63 -51.5t-51.5 -85l-38 23q36 64 69.5 105.5t72.5 62t92 20.5q71 0 123.5 -32.5t82 -91t29.5 -137.5t-30.5 -139t-85 -94t-127.5 -34q-51 0 -90 19t-71.5 59.5t-66.5 104.5l39 22q23 -50 51.5 -83
t62.5 -49t73 -16q37 0 65.5 15t47.5 43t28.5 66.5t9.5 85.5zM38 508h354v-57h-354v57zM375 508h333v-57h-333v57zM905 735v-614l-10 -15l-19 -109h-60v692l-65 46h154zM142 81v476q0 70 27 109t69 55.5t88 16.5q20 0 40.5 -2.5t33.5 -7.5v-63q-15 6 -34 11.5t-41 5.5
q-27 0 -48 -10t-33.5 -37t-12.5 -78v-502q0 -3 10.5 -5.5t28.5 -3.5t41 -1h3v-45h-271v45h11q41 0 64.5 7t23.5 29zM666 0h-286v45h13q26 0 45.5 1t30 3.5t10.5 5.5v516q0 52 17.5 87t47 55.5t67 29.5t77.5 9q33 0 62 -6.5t53.5 -18.5t42.5 -28l-3 -76q-21 28 -45 44
t-51.5 22.5t-60.5 6.5q-35 0 -61.5 -10t-41.5 -37t-15 -78v-516q0 -3 11 -5.5t30.5 -3.5t43.5 -1h13v-45z" />
    <glyph glyph-name="f_f_h" unicode="ffh" horiz-adv-x="1339" 
d="M38 508h354v-57h-354v57zM231 55q0 -3 10.5 -5.5t28.5 -3.5t41 -1h3v-45h-271v45h11q41 0 64.5 7t23.5 29v476q0 70 27 109t69 55.5t88 16.5q20 0 40.5 -2.5t33.5 -7.5v-63q-15 6 -34 11.5t-41 5.5q-27 0 -48 -10t-33.5 -37t-12.5 -78v-502zM375 508h333v-57h-333v57z
M1068 0v45h2q14 0 31 1t29.5 3.5t12.5 5.5v291q0 38 -8 62t-26.5 35.5t-50.5 11.5q-37 0 -69.5 -15.5t-60.5 -45.5t-53 -75l-30 25q35 59 68 97.5t71.5 57.5t87.5 19q48 0 84 -17t56 -52.5t20 -91.5v-276q0 -22 23.5 -29t58.5 -7h2v-45h-248zM731 0v45h11q14 0 31.5 1
t30 3.5t12.5 5.5v654l-75 26h164v-680q0 -3 12 -5.5t29 -3.5t31 -1h3v-45h-249zM380 0v45h13q26 0 45.5 1t30 3.5t10.5 5.5v516q0 52 17.5 87t47 55.5t67 29.5t77.5 9q33 0 62 -6.5t53.5 -18.5t42.5 -28l-3 -76q-21 28 -45 44t-51.5 22.5t-60.5 6.5q-35 0 -61.5 -10
t-41.5 -37t-15 -78v-516q0 -3 11 -5.5t30.5 -3.5t43.5 -1h13v-45h-286z" />
    <glyph glyph-name="f_f_j" unicode="ffj" horiz-adv-x="999" 
d="M38 508h339v-57h-339v57zM375 508h413v-57h-413v57zM479 55v516q0 70 25.5 109t65.5 55.5t84 16.5q19 0 38.5 -2.5t30.5 -7.5v-61q-9 4 -20.5 7.5t-24 5.5t-25.5 2q-25 0 -44 -10t-30 -37t-11 -78v-516q0 -3 11 -5.5t30.5 -3.5t43.5 -1h13v-45h-286v45h11q28 0 47.5 1
t30 3.5t10.5 5.5zM231 55q0 -3 10.5 -5.5t28.5 -3.5t41 -1h3v-45h-271v45h11q41 0 64.5 7t23.5 29v476q0 70 27 109t69 55.5t88 16.5q20 0 40.5 -2.5t33.5 -7.5v-63q-15 6 -34 11.5t-41 5.5q-27 0 -48 -10t-33.5 -37t-12.5 -78v-502zM856 619q-26 0 -43.5 16.5t-17.5 44.5
t17.5 44t43.5 16t43.5 -16t17.5 -44t-17.5 -44.5t-43.5 -16.5zM718 -236q-22 0 -43.5 3t-35.5 7v63q17 -4 35.5 -7.5t40.5 -3.5q31 0 53.5 11.5t35 40t12.5 77.5v451q0 15 -7.5 25t-24 15t-42.5 5h-11v57h174v-553q0 -56 -16 -93t-42.5 -58.5t-60 -30.5t-68.5 -9z" />
    <glyph glyph-name="f_f_k" unicode="ffk" horiz-adv-x="1327" 
d="M38 508h354v-57h-354v57zM231 55q0 -3 10.5 -5.5t28.5 -3.5t41 -1h3v-45h-271v45h11q41 0 64.5 7t23.5 29v476q0 70 27 109t69 55.5t88 16.5q20 0 40.5 -2.5t33.5 -7.5v-63q-15 6 -34 11.5t-41 5.5q-27 0 -48 -10t-33.5 -37t-12.5 -78v-502zM1304 0h-259v45h3q14 0 31 1
t29 3.5t12 5.5l-189 213v5l180 172q0 8 -14 11.5t-33 5t-34 1.5h-4v45h248v-45h-2q-20 0 -40 -5t-38.5 -16t-36.5 -28l-155 -149l2 43l201 -225q15 -16 30 -24t32 -11t35 -3h2v-45zM375 508h333v-57h-333v57zM980 0h-248v45h11q14 0 31 1t29.5 3.5t12.5 5.5v634l-65 46h154
v-680q0 -3 12.5 -5.5t29.5 -3.5t30 -1h3v-45zM568 55q0 -3 11 -5.5t30.5 -3.5t43.5 -1h13v-45h-286v45h13q26 0 45.5 1t30 3.5t10.5 5.5v516q0 52 17.5 87t47 55.5t67 29.5t77.5 9q33 0 62 -6.5t53.5 -18.5t42.5 -28l-3 -76q-21 28 -45 44t-51.5 22.5t-60.5 6.5
q-35 0 -61.5 -10t-41.5 -37t-15 -78v-516z" />
    <glyph glyph-name="f_h" unicode="fh" horiz-adv-x="1002" 
d="M38 508h333v-57h-333v57zM731 0v45h2q14 0 31 1t29.5 3.5t12.5 5.5v291q0 38 -8 62t-26.5 35.5t-50.5 11.5q-37 0 -69.5 -15.5t-60.5 -45.5t-53 -75l-30 25q35 59 68 97.5t71.5 57.5t87.5 19q48 0 84 -17t56 -52.5t20 -91.5v-276q0 -22 23.5 -29t58.5 -7h2v-45h-248z
M395 0v45h11q14 0 31 1t29.5 3.5t12.5 5.5v644l-75 36h164v-680q0 -3 12 -5.5t29 -3.5t31 -1h3v-45h-248zM43 0v45h11q41 0 64.5 7t23.5 29v490q0 52 17.5 87t47 55.5t67 29.5t77.5 9q33 0 62 -6.5t53.5 -18.5t42.5 -28l-3 -76q-21 28 -45 44t-51.5 22.5t-60.5 6.5
q-35 0 -61.5 -10t-41.5 -37t-15 -78v-516q0 -3 11 -5.5t30.5 -3.5t43.5 -1h13v-45h-286z" />
    <glyph glyph-name="f_i" unicode="fi" horiz-adv-x="675" 
d="M38 508h413v-57h-413v57zM519 619q-26 0 -43.5 16.5t-17.5 44.5t17.5 44t43.5 16t43.5 -16t17.5 -44t-17.5 -44.5t-43.5 -16.5zM395 0v45h11q14 0 31 1t29.5 3.5t12.5 5.5v351q0 11 -4.5 19.5t-13 14t-22.5 8.5t-34 3h-11v57h174v-427q0 -22 23.5 -29t59.5 -7h1v-45h-257
zM329 0h-286v45h11q41 0 64.5 7t23.5 29v490q0 70 25.5 109t65.5 55.5t84 16.5q19 0 38.5 -2.5t30.5 -7.5v-61q-9 4 -20.5 7.5t-24 5.5t-25.5 2q-25 0 -44 -10t-30 -37t-11 -78v-516q0 -3 11 -5.5t30.5 -3.5t43.5 -1h13v-45z" />
    <glyph glyph-name="f_j" unicode="fj" horiz-adv-x="662" 
d="M519 619q-26 0 -43.5 16.5t-17.5 44.5t17.5 44t43.5 16t43.5 -16t17.5 -44t-17.5 -44.5t-43.5 -16.5zM38 451v57h413v-57h-413zM381 -236q-22 0 -43.5 3t-35.5 7v63q17 -4 35.5 -7.5t40.5 -3.5q31 0 53.5 11.5t35 40t12.5 77.5v451q0 15 -7.5 25t-24 15t-42.5 5h-11v57
h174v-553q0 -56 -16 -93t-42.5 -58.5t-60 -30.5t-68.5 -9zM329 0h-286v45h11q41 0 64.5 7t23.5 29v490q0 70 25.5 109t65.5 55.5t84 16.5q19 0 38.5 -2.5t30.5 -7.5v-61q-9 4 -20.5 7.5t-24 5.5t-25.5 2q-25 0 -44 -10t-30 -37t-11 -78v-516q0 -3 11 -5.5t30.5 -3.5t43.5 -1
h13v-45z" />
    <glyph glyph-name="f_k" unicode="fk" horiz-adv-x="990" 
d="M967 0h-259v45h3q14 0 31 1t29 3.5t12 5.5l-189 213v5l180 172q0 8 -14 11.5t-33 5t-34 1.5h-4v45h248v-45h-2q-20 0 -40 -5t-38.5 -16t-36.5 -28l-155 -149l2 43l201 -225q15 -16 30 -24t32 -11t35 -3h2v-45zM38 508h333v-57h-333v57zM643 0h-248v45h11q14 0 31 1
t29.5 3.5t12.5 5.5v644l-55 36h144v-680q0 -3 12.5 -5.5t29.5 -3.5t30 -1h3v-45zM231 55q0 -3 11 -5.5t30.5 -3.5t43.5 -1h13v-45h-286v45h11q41 0 64.5 7t23.5 29v490q0 52 17.5 87t47 55.5t67 29.5t77.5 9q33 0 62 -6.5t53.5 -18.5t42.5 -28l-3 -76q-21 28 -45 44
t-51.5 22.5t-60.5 6.5q-35 0 -61.5 -10t-41.5 -37t-15 -78v-516z" />
    <glyph glyph-name="f_l" unicode="fl" horiz-adv-x="670" 
d="M38 508h333v-57h-333v57zM395 0v45h11q14 0 31 1t29.5 3.5t12.5 5.5v641l-60 39h149v-654q0 -22 23 -29t59 -7h2v-45h-257zM329 0h-286v45h11q41 0 64.5 7t23.5 29v490q0 52 17.5 87t47 55.5t67 29.5t77.5 9q33 0 62 -6.5t53.5 -18.5t42.5 -28l-3 -76q-21 28 -45 44
t-51.5 22.5t-60.5 6.5q-35 0 -61.5 -10t-41.5 -37t-15 -78v-516q0 -3 11 -5.5t30.5 -3.5t43.5 -1h13v-45z" />
    <glyph glyph-name=".notdef" horiz-adv-x="500" 
d="M50 -223v958h400v-958h-400zM100 -173h300v858h-300v-858z" />
    <glyph glyph-name=".null" horiz-adv-x="0" 
 />
    <glyph glyph-name="nonmarkingreturn" horiz-adv-x="333" 
 />
    <glyph glyph-name="space" unicode=" " horiz-adv-x="253" 
 />
    <glyph glyph-name="exclam" unicode="!" horiz-adv-x="281" 
d="M196 735h-111q0 -55 3 -102.5t7 -93t8.5 -93.5t7.5 -104.5t3 -127.5h53q0 71 3 127.5t7.5 105t8.5 93.5t7 92.5t3 102.5zM140 -6q-30 0 -49 17.5t-19 45.5q0 29 19 46.5t49 17.5q31 0 50 -17.5t19 -46.5q0 -28 -19 -45.5t-50 -17.5z" />
    <glyph glyph-name="quotedbl" unicode="&#x22;" horiz-adv-x="379" 
d="M168 710h-93q0 -28 3 -51t7.5 -47.5t7.5 -57t3 -79.5h51q0 47 3 79.5t7.5 57.5t7.5 47.5t3 50.5zM304 710h-93q0 -28 3 -51t7.5 -47.5t7.5 -57t3 -79.5h51q0 47 3 79.5t7.5 57.5t7.5 47.5t3 50.5z" />
    <glyph glyph-name="numbersign" unicode="#" horiz-adv-x="628" 
d="M107 0l134 750h63l-134 -750h-63zM30 245v70h512v-70h-512zM72 455v70h512v-70h-512zM307 0l132 750h65l-134 -750h-63z" />
    <glyph glyph-name="dollar" unicode="$" 
d="M254 790h60v-117v-11v-612v-12v-158h-60v156v10v614v16v114zM286 69q47 0 80.5 12t51 39t17.5 72q0 37 -14 61t-38 39t-54.5 24.5t-62.5 18.5q-36 10 -70.5 22.5t-63 32t-45.5 51.5t-17 81q0 57 28 96t79 59.5t119 20.5q48 0 87 -9.5t68.5 -24t45.5 -29.5v-113h-90v101
q10 -1 18.5 -5t15.5 -11t9.5 -15t0.5 -16q-14 19 -35.5 33.5t-50 23.5t-63.5 9q-51 0 -85.5 -13t-52 -37.5t-17.5 -61.5q0 -32 13.5 -53t37 -35t53.5 -23t62 -17q37 -10 73 -24.5t65.5 -36.5t47.5 -54.5t18 -78.5q0 -65 -30 -109t-81 -65.5t-116 -21.5q-56 0 -103 11.5
t-83 29.5t-59 38v127h95v-121q-11 1 -21 8t-16.5 16.5t-9 18.5t0.5 14q18 -27 47.5 -46t66.5 -29t78 -10z" />
    <glyph glyph-name="percent" unicode="%" horiz-adv-x="779" 
d="M193 382q-47 0 -83.5 22t-57 60t-20.5 87t20.5 87t57 60t83.5 22t83.5 -22t57 -60t20.5 -87t-20.5 -87t-57 -60t-83.5 -22zM193 429q26 0 45 15.5t29 43t10 63.5t-10 63.5t-29 43t-45 15.5t-45 -15.5t-29 -43t-10 -63.5t10 -63.5t29 -43t45 -15.5zM586 -10
q-47 0 -83.5 22t-57 60t-20.5 87t20.5 87t57 60t83.5 22t83.5 -22t57 -60t20.5 -87q0 -48 -20.5 -86.5t-57 -60.5t-83.5 -22zM56 0l613 710h75l-613 -710h-75zM586 37q26 0 45 15.5t29 43t10 63.5t-10 63.5t-29 43t-45 15.5t-45 -15.5t-29 -43t-10 -63.5t10 -63.5t29 -43
t45 -15.5z" />
    <glyph glyph-name="ampersand" unicode="&#x26;" horiz-adv-x="743" 
d="M623 311q-6 -27 -20.5 -67.5t-39.5 -84.5t-61 -82.5t-85.5 -62.5t-112.5 -24q-77 0 -133 26.5t-86 73.5t-30 110q0 43 16 78t45.5 63t69 48t85.5 33l22 -41q-42 -15 -73.5 -39t-49 -57.5t-17.5 -78.5q0 -49 17.5 -85t53.5 -56t89 -20q49 0 88.5 18.5t70 50t51.5 70
t31.5 79t10.5 76.5q0 4 -12.5 6t-29.5 3t-31 1h-2v45h214v-45h-2q-22 0 -38.5 -2.5t-26.5 -10.5t-14 -25zM696 0h-135q-60 58 -115 115.5t-101 114.5t-80 112t-52.5 108t-18.5 102q0 51 23.5 88t64.5 57.5t94 20.5q75 0 115.5 -36.5t40.5 -96.5q0 -36 -17 -66t-47 -54
t-69.5 -43t-83.5 -35l-22 43q39 17 69 32t50.5 31.5t31 36.5t10.5 47q0 40 -20 63t-58 23q-27 0 -48 -11.5t-33.5 -36.5t-12.5 -66q0 -36 11 -73.5t33 -78.5t57 -86.5t83 -97.5t110 -111q16 -14 29 -24t28 -15t37 -5h26v-58z" />
    <glyph glyph-name="quotesingle" unicode="'" horiz-adv-x="243" 
d="M168 710h-93q0 -28 3 -51t7.5 -47.5t7.5 -57t3 -79.5h51q0 47 3 79.5t7.5 57.5t7.5 47.5t3 50.5z" />
    <glyph glyph-name="parenleft" unicode="(" horiz-adv-x="327" 
d="M140 310q0 75 16 141t43 122.5t59 100t64 73.5v3h-68q-40 -30 -77 -75.5t-65.5 -102.5t-45 -123.5t-16.5 -138.5t16.5 -138.5t45 -123.5t65.5 -102.5t77 -75.5h68v3q-32 30 -64 73.5t-59 100t-43 122.5t-16 141z" />
    <glyph glyph-name="parenright" unicode=")" horiz-adv-x="327" 
d="M187 310q0 75 -16 141t-43 122.5t-59 100t-64 73.5v3h68q40 -30 77 -75.5t65.5 -102.5t45 -123.5t16.5 -138.5t-16.5 -138.5t-45 -123.5t-65.5 -102.5t-77 -75.5h-68v3q32 30 64 73.5t59 100t43 122.5t16 141z" />
    <glyph glyph-name="asterisk" unicode="*" horiz-adv-x="400" 
d="M66 407l-36 60q18 12 34 19t33.5 13.5t40 17t52.5 28.5l20 -31q-30 -19 -49.5 -34t-34 -27t-28.5 -23.5t-32 -22.5zM166 710h69q0 -21 -2.5 -39t-5 -37t-5 -43.5t-2.5 -60.5h-39q0 36 -2.5 60.5t-5 43.5t-5 37t-2.5 39zM30 592l36 60q18 -10 32 -21.5t28.5 -24t34 -27.5
t49.5 -34l-20 -31q-30 18 -52.5 28.5t-39.5 17.5t-33.5 14t-34.5 18zM166 350q0 21 2.5 39t5 37.5t5 44t2.5 59.5h39q0 -35 2.5 -59.5t5 -44t5 -37.5t2.5 -39h-69zM212 514l-20 31q30 19 49.5 34t34 27.5t28 24t31.5 21.5l35 -60q-18 -11 -34 -18t-33 -14t-39 -17.5
t-52 -28.5zM335 407q-18 11 -31.5 22.5t-28 23.5t-34 27t-49.5 34l20 31q30 -18 52 -28.5t39.5 -17t33 -13.5t33.5 -19z" />
    <glyph glyph-name="plus" unicode="+" 
d="M242 553h74v-424h-74v424zM487 374v-66h-414v66h414z" />
    <glyph glyph-name="comma" unicode="," horiz-adv-x="277" 
d="M112 -164l-67 31q32 23 58.5 47t43.5 48t18 46q2 3 4.5 5t5.5 2t7 -1.5t8 -5.5q-5 -6 -11 -9t-13 -4.5t-17 -1.5q-33 0 -54.5 17.5t-21.5 45.5t19 45.5t49 17.5q22 0 39 -9t27 -27.5t10 -46.5q0 -37 -11.5 -72t-35 -66.5t-58.5 -61.5z" />
    <glyph glyph-name="hyphen" unicode="-" horiz-adv-x="441" 
d="M78 333h285v-75h-285v75z" />
    <glyph glyph-name="period" unicode="." horiz-adv-x="257" 
d="M128 -6q-30 0 -49 17.5t-19 45.5q0 29 19 46.5t49 17.5q31 0 50 -17.5t19 -46.5q0 -28 -19 -45.5t-50 -17.5z" />
    <glyph glyph-name="slash" unicode="/" horiz-adv-x="420" 
d="M439 750h-80l-378 -878h80z" />
    <glyph glyph-name="zero" unicode="0" 
d="M280 -11q-54 0 -98.5 22.5t-77 64.5t-50 100t-17.5 128t17.5 128t50 100t77 64.5t98.5 22.5t98.5 -22.5t77 -64.5t50 -100t17.5 -128t-17.5 -128t-50 -100t-77 -64.5t-98.5 -22.5zM280 48q35 0 62 18t46 51.5t29 80.5t10 106t-10 106t-29 81t-46 52t-62 18t-62 -18
t-46 -52t-29 -81t-10 -106q0 -58 10 -105.5t29 -81t46 -51.5t62 -18z" />
    <glyph glyph-name="one" unicode="1" 
d="M350 83q0 -14 14 -22t40 -11t61 -3h42v-47h-407v47h52q33 0 56.5 3t36 11t12.5 22v454l17 11q-7 -17 -25 -31t-44 -24.5t-57.5 -15.5t-64.5 -4v60q36 1 67.5 5.5t57 14t46 23.5t33.5 33h63v-526z" />
    <glyph glyph-name="two" unicode="2" 
d="M323 72h-250q-1 -3 -0.5 -9t2 -11t3.5 -7q56 31 113.5 66.5t109.5 74.5t93 81t65 86t24 89q0 58 -25.5 97t-72.5 59t-114 20q-49 0 -91.5 -15t-73 -37.5t-45.5 -45.5v-91h88v106q-9 -1 -16.5 -6t-12.5 -13t-8.5 -19.5t-4.5 -26.5q16 25 40 45t55.5 32t68.5 12t63.5 -11.5
t40.5 -36t14 -65.5t-19 -79.5t-52.5 -74.5t-77 -70t-93.5 -66.5t-102 -64.5v-91h463v190h-58l-9 -77q-2 -17 -14 -26t-37.5 -12t-66.5 -3z" />
    <glyph glyph-name="three" unicode="3" 
d="M266 291l17 -18v27l-35 -19q70 0 125 22t87 61t32 90q0 50 -28 86.5t-77 57t-112 20.5q-50 0 -91.5 -14.5t-71 -36t-44.5 -44.5v-91h88v106q-9 -1 -16.5 -6t-12.5 -13t-8.5 -19.5t-4.5 -25.5q23 36 62 60.5t97 24.5q36 0 65 -12t46 -37.5t17 -67.5q0 -43 -19.5 -72
t-55.5 -43.5t-87 -14.5h-60v-57h72q63 0 101 -17.5t55.5 -49.5t17.5 -76q0 -45 -19 -77t-53 -48.5t-80 -16.5q-42 0 -74.5 12t-56 32.5t-39 44.5t-25.5 48l-55 -37q20 -46 54 -82t83 -57t113 -21q72 0 127.5 25.5t87 71t31.5 105.5q0 37 -13 69.5t-42.5 57t-78 38.5
t-119.5 14z" />
    <glyph glyph-name="four" unicode="4" 
d="M24 112v73l286 424h67l-28 -43l-287 -427l-9 40h499v-67h-528zM431 -77h-93v655l10 31h83v-686z" />
    <glyph glyph-name="five" unicode="5" 
d="M267 -90q75 0 131 30t87.5 83.5t31.5 123.5q0 59 -26.5 108.5t-75.5 80t-116 30.5q-36 0 -69 -10t-60 -29.5t-45 -46.5q0 -11 5.5 -13t11.5 1t7 8v313l-26 -57h327l25 77h-390v-369h55q18 22 40 36.5t48 22t56 7.5q39 0 70.5 -18.5t50 -54t18.5 -86.5q0 -54 -19.5 -94
t-54.5 -61.5t-82 -21.5q-55 0 -91.5 19t-59.5 47.5t-38 54.5l-51 -40q19 -37 51 -69.5t79 -52t110 -19.5z" />
    <glyph glyph-name="six" unicode="6" 
d="M451 680l-10 60q-91 -14 -165 -54.5t-127.5 -100.5t-82.5 -134t-29 -156q0 -101 33.5 -169t91 -102t129.5 -34q67 0 119.5 31t82.5 85t30 123q0 70 -27 120t-73.5 77t-104.5 27q-40 0 -74 -13.5t-61 -36.5t-46.5 -51t-30.5 -57l11 -52q15 32 34 59.5t42.5 47.5t51.5 31.5
t61 11.5q40 0 67 -20.5t40.5 -57t13.5 -86.5q0 -53 -16.5 -93.5t-47 -63t-72.5 -22.5q-35 0 -64.5 14t-51 43.5t-33 76t-11.5 111.5q0 75 23 140t65.5 115.5t101 84t130.5 45.5z" />
    <glyph glyph-name="seven" unicode="7" 
d="M243 532h244l-11 14q-16 -19 -47.5 -60t-69 -99.5t-73.5 -132t-63 -157t-37 -174.5h97q11 115 34.5 201.5t56.5 155t73.5 129.5t83.5 124v76h-475v-210h53l9 90q2 18 15 27.5t40 12.5t70 3z" />
    <glyph glyph-name="eight" unicode="8" 
d="M280 50q33 0 59.5 10.5t46 30t29.5 46.5t10 60q0 48 -18 81.5t-50.5 51t-76.5 17.5t-76.5 -17.5t-50.5 -51t-18 -81.5q0 -33 10 -60t29.5 -46.5t46 -30t59.5 -10.5zM280 405q35 0 61 15.5t40 44.5t14 68t-14 67.5t-40 44t-61 15.5t-61 -15.5t-40 -44t-14 -67.5t14 -68
t40 -44.5t61 -15.5zM280 720q60 0 106 -22.5t72.5 -62.5t26.5 -92q0 -44 -18.5 -79t-52 -58t-78.5 -32l12 12v-18l-12 16q54 -9 96.5 -34.5t66.5 -65.5t24 -92q0 -59 -31.5 -104.5t-86 -71.5t-125.5 -26q-70 0 -125 26t-86.5 71.5t-31.5 104.5q0 52 24.5 92t66.5 65.5
t96 34.5l-12 -16v18l12 -12q-44 9 -78 32t-52.5 58t-18.5 79q0 52 26.5 92t73 62.5t105.5 22.5z" />
    <glyph glyph-name="nine" unicode="9" 
d="M91 -33l10 -60q99 7 177 38t133 83.5t83.5 124t28.5 158.5q0 105 -33 173.5t-90 101.5t-129 33q-68 0 -121 -28.5t-83 -79t-30 -117.5q0 -66 27.5 -115t75.5 -75.5t107 -26.5q53 0 95 22.5t70.5 59.5t41.5 79l-11 52q-18 -46 -44 -80.5t-61 -53.5t-79 -19q-42 0 -70 20
t-42 55.5t-14 81.5q0 38 9.5 68.5t27.5 52t43.5 33t57.5 11.5q35 0 64 -13.5t50 -42.5t32.5 -76.5t11.5 -115.5q0 -81 -22.5 -142.5t-66 -105t-106.5 -67.5t-143 -29z" />
    <glyph glyph-name="colon" unicode=":" horiz-adv-x="257" 
d="M128 -6q-30 0 -49 17.5t-19 45.5q0 29 19 46.5t49 17.5q31 0 50 -17.5t19 -46.5q0 -28 -19 -45.5t-50 -17.5zM128 382q-30 0 -49 17.5t-19 45.5q0 29 19 46.5t49 17.5q31 0 50 -17.5t19 -46.5q0 -28 -19 -45.5t-50 -17.5z" />
    <glyph glyph-name="semicolon" unicode=";" horiz-adv-x="277" 
d="M134 382q-30 0 -49 17.5t-19 45.5q0 29 19 46.5t49 17.5q31 0 50 -17.5t19 -46.5q0 -28 -19 -45.5t-50 -17.5zM112 -164l-67 31q32 23 58.5 47t43.5 48t18 46q2 3 4.5 5t5.5 2t7 -1.5t8 -5.5q-5 -6 -11 -9t-13 -4.5t-17 -1.5q-33 0 -54.5 17.5t-21.5 45.5t19 45.5
t49 17.5q22 0 39 -9t27 -27.5t10 -46.5q0 -37 -11.5 -72t-35 -66.5t-58.5 -61.5z" />
    <glyph glyph-name="less" unicode="&#x3c;" 
d="M466 546v-69l-351 -155l-20 19v36zM466 222v-78l-371 169v46l21 18z" />
    <glyph glyph-name="equal" unicode="=" 
d="M487 450v-66h-414v66h414zM487 268v-66h-414v66h414z" />
    <glyph glyph-name="greater" unicode="&#x3e;" 
d="M100.473 133.575v73.2236l372.487 164.489l21.2246 -20.1631v-38.2041zM100.473 477.409v82.7754l393.712 -179.346v-48.8164l-22.2861 -19.1016z" />
    <glyph glyph-name="question" unicode="?" horiz-adv-x="548" 
d="M214 362v-147h74v113q35 14 71 34t66.5 47.5t49 63.5t18.5 82q0 56 -27.5 98t-77 65.5t-117.5 23.5q-51 0 -93 -14.5t-72.5 -36t-45.5 -42.5v-93h88v108q-10 -2 -17 -7.5t-11.5 -14.5t-7 -21t-2.5 -27q15 24 37.5 44t53 32t68.5 12q40 0 69.5 -15t46 -43.5t16.5 -68.5
q0 -41 -14.5 -70t-40.5 -50.5t-60 -38.5t-72 -34zM251 -7q-30 0 -49 17.5t-19 45.5q0 29 19 46.5t49 17.5q31 0 50 -17.5t19 -46.5q0 -28 -19 -45.5t-50 -17.5z" />
    <glyph glyph-name="at" unicode="@" horiz-adv-x="915" 
d="M466 -98q52 0 97 7.5t83 19t66 23.5l19 -52q-28 -13 -70 -25t-92 -20t-103 -8q-90 0 -165.5 26.5t-132 76t-87.5 120.5t-31 161q0 96 34 177t95 140t142.5 92t177.5 33q84 0 151.5 -25t115.5 -69.5t73.5 -105t25.5 -131.5q0 -69 -19 -122t-50 -90t-68.5 -56t-75.5 -19
q-26 0 -46 7t-34.5 19.5t-22.5 28t-10 33.5l-8 8l39 230l13 5l35 82h50l-50 -289q-4 -25 0.5 -41t17 -23.5t31.5 -7.5q29 0 61 26.5t54.5 79t22.5 129.5q0 78 -36 140.5t-104 99t-166 36.5q-84 0 -155 -29t-123.5 -82t-81.5 -123t-29 -153q0 -76 26 -137t74 -104t113 -65.5
t143 -22.5zM414 49q-44 0 -78 20t-53 59.5t-19 95.5q0 44 14 88t40.5 81t66 59t90.5 22q35 0 62.5 -14t47.5 -45.5t32 -86.5l-36 -20q-8 42 -22.5 67.5t-34.5 37t-45 11.5q-29 0 -53 -18.5t-41 -49t-26.5 -68t-9.5 -75.5q0 -36 8 -62t24 -39.5t40 -13.5q29 0 55 17
t51.5 47.5t53.5 72.5l23 -27q-36 -49 -64 -84.5t-57 -55t-69 -19.5z" />
    <glyph glyph-name="A" unicode="A" horiz-adv-x="699" 
d="M186 300h301l1 -56h-308zM322 672l16 -30l-198 -577q0 -5 13 -9.5t32.5 -6.5t38.5 -2h15v-47h-231v47h5q28 0 44 7.5t26 35.5l214 620h102l222 -635q7 -19 23.5 -23.5t41.5 -4.5h5v-47h-260v47h17q19 0 39 1t33.5 3.5t13.5 5.5z" />
    <glyph glyph-name="B" unicode="B" horiz-adv-x="669" 
d="M346 710q57 0 101.5 -12.5t75 -36t46.5 -57t16 -74.5q0 -50 -28 -88.5t-83 -59.5t-136 -21l80 38v-48l-71 36q87 0 147 -23t91 -65.5t31 -99.5q0 -46 -17.5 -83t-51 -63t-81.5 -39.5t-110 -13.5h-311v47h11q37 0 61 7t24 29v544q0 22 -24 29t-61 7h-11v47h301zM214 400
h132q53 0 85 16t46 45.5t14 67.5q0 40 -15.5 67.5t-47.5 42t-83 14.5h-111v-596h120q57 0 94 16.5t54.5 48.5t17.5 78q0 42 -17 74.5t-53.5 51t-95.5 18.5h-140v56z" />
    <glyph glyph-name="C" unicode="C" horiz-adv-x="717" 
d="M380 658q-48 0 -90.5 -21.5t-74.5 -61.5t-50 -95.5t-18 -124.5t17.5 -124.5t49.5 -95.5t78 -61.5t103 -21.5q59 0 104 27t75.5 73.5t44.5 103.5l61 -23q-17 -71 -56.5 -126t-99 -86t-135.5 -31q-75 0 -137.5 26.5t-108.5 75t-71 115.5t-25 148q0 80 26 147t72 116
t106 75.5t128 26.5q69 0 118 -20.5t81 -58t48 -89.5h-37l16 158h60v-214h-67q-16 49 -45 85t-71.5 56.5t-101.5 20.5z" />
    <glyph glyph-name="D" unicode="D" horiz-adv-x="773" 
d="M45 663v47h306q84 0 152.5 -24.5t118.5 -70.5t77 -111.5t27 -146.5t-27 -146.5t-77 -113t-118.5 -72.5t-152.5 -25h-306v47h12q37 0 61 7t24 29v544q0 20 -24 28t-61 8h-12zM351 651h-117v-592h117q64 0 114.5 20t86.5 58.5t55 94t19 125.5t-19 125t-55 92.5t-86.5 57
t-114.5 19.5z" />
    <glyph glyph-name="E" unicode="E" horiz-adv-x="641" 
d="M581 217v-217h-536v47h11q37 0 61 7t24 29v544q0 22 -24 29t-61 7h-11v47h506v-192h-56l-9 90q-2 18 -15 27.5t-40 12.5t-70 3h-128v-592h157q32 0 55.5 1.5t38.5 6.5t22.5 13.5t8.5 21.5l9 115h57zM203 390q42 2 83.5 3t83 2.5t82.5 2.5v-70q-41 2 -82.5 3.5l-83 3
t-83.5 2.5v53z" />
    <glyph glyph-name="F" unicode="F" horiz-adv-x="600" 
d="M233 651v-568q0 -13 8.5 -20.5t22.5 -10.5t31 -4t33 -1h17v-47h-300v47h11q37 0 61 7t24 29v544q0 22 -24 29t-61 7h-11v47h512v-192h-56l-9 90q-2 18 -15 27.5t-40 12.5t-70 3h-134zM203 383q45 2 89.5 3t89 2.5t88.5 2.5v-70q-44 2 -88.5 3.5l-89 3t-89.5 2.5v53z" />
    <glyph glyph-name="G" unicode="G" horiz-adv-x="773" 
d="M679 270v-166q-15 -19 -41.5 -39t-63 -37t-79 -27.5t-89.5 -10.5q-81 0 -147 26t-113.5 74.5t-73 115.5t-25.5 149q0 80 26.5 147t74 116t110.5 75.5t135 26.5q66 0 116 -20.5t83.5 -58t48.5 -88.5h-36l16 157h60v-214h-67q-16 49 -45.5 85t-73 56.5t-102.5 20.5
q-53 0 -98 -21.5t-78 -61.5t-51.5 -95.5t-18.5 -124.5q0 -70 17.5 -126.5t51.5 -95.5t82 -60t109 -21q52 0 89 12.5t60 28.5t33 25v152q0 22 -24 29t-61 7h-11v47h265v-47h-4q-32 0 -53.5 -7t-21.5 -29z" />
    <glyph glyph-name="H" unicode="H" horiz-adv-x="833" 
d="M202 395h429v-58h-429v58zM45 0v47h11q37 0 61 7t24 29v544q0 22 -24 29t-61 7h-11v47h285v-47h-9q-14 0 -29.5 -0.5t-28.5 -2t-21 -3t-8 -4.5v-596q0 -3 8 -4.5t21 -3t28.5 -2t29.5 -0.5h9v-47h-285zM503 0v47h9q14 0 29.5 0.5t28.5 2t21 3t8 4.5v596q0 3 -8 4.5t-21 3
t-28.5 2t-29.5 0.5h-9v47h285v-47h-11q-37 0 -61 -7t-24 -29v-544q0 -22 24 -29t61 -7h11v-47h-285z" />
    <glyph glyph-name="I" unicode="I" horiz-adv-x="375" 
d="M141 83v544q0 22 -24 29t-61 7h-11v47h285v-47h-11q-37 0 -61 -7t-24 -29v-544q0 -22 24 -29t61 -7h11v-47h-285v47h11q37 0 61 7t24 29z" />
    <glyph glyph-name="J" unicode="J" horiz-adv-x="565" 
d="M231 710h292v-47h-11q-37 0 -61 -7t-24 -29v-385q0 -71 -15 -119.5t-43.5 -77.5t-68.5 -42t-90 -13q-40 0 -74 10t-60 26t-43 34v104h93v-97q-18 5 -29 12.5t-13.5 14.5t3 10t18.5 -1q9 -14 23.5 -26.5t34.5 -19.5t47 -7q41 0 69 16.5t43 58t15 117.5v385q0 15 -11 22.5
t-30 10.5t-44 3h-21v47z" />
    <glyph glyph-name="K" unicode="K" horiz-adv-x="728" 
d="M45 0v47h11q37 0 61 7t24 29v544q0 22 -24 29t-61 7h-11v47h285v-47h-9q-19 0 -39 -1t-34 -3t-14 -6v-596q0 -3 14 -5.5t34 -3.5t39 -1h9v-47h-285zM423 0v47h9q19 0 38 1t32.5 3.5t13.5 5.5l-250 290v17l261 289q-1 4 -13 6t-30 3t-37 1h-9v47h246v-47h-16
q-18 0 -32 -2.5t-25 -8.5t-22 -18l-253 -278v45l277 -321q13 -14 24.5 -21.5t27 -9.5t37.5 -2h11v-47h-290z" />
    <glyph glyph-name="L" unicode="L" horiz-adv-x="619" 
d="M334 710h-289v-47h11q37 0 61 -7t24 -29v-544q0 -22 -24 -29t-61 -7h-11v-47h531v224h-60l-9 -122q-1 -18 -14.5 -27t-40.5 -12.5t-70 -3.5h-148v568q0 22 25 29t64 7h11v47z" />
    <glyph glyph-name="M" unicode="M" horiz-adv-x="953" 
d="M45 0v47h11q25 0 44 3t30 11t11 22v544q0 15 -11 22.5t-30 10.5t-44 3h-11v47h240l201 -621l-19 3l206 618h235v-47h-11q-24 0 -43.5 -3t-30.5 -10.5t-11 -22.5v-544q0 -14 11 -22t30.5 -11t43.5 -3h11v-47h-275v47h9q19 0 36.5 1t29 3.5t11.5 5.5v631l10 -2l-237 -688
h-59l-237 689l10 -2v-628q0 -3 13.5 -5.5t33 -3.5t35.5 -1h4v-47h-247z" />
    <glyph glyph-name="N" unicode="N" horiz-adv-x="800" 
d="M45 0v47h11q25 0 44 4t30 13.5t11 23.5v539q0 15 -11 22.5t-30 10.5t-44 3h-11v47h223l345 -617l-11 -3v558q0 4 -14 7t-35 5.5t-43 2.5h-14v47h267v-47h-12q-24 0 -43.5 -4t-30.5 -13t-11 -24v-622h-96l-376 670l12 4v-612q0 -3 14 -6.5t35.5 -6t42.5 -2.5h14v-47h-267z
" />
    <glyph glyph-name="O" unicode="O" horiz-adv-x="794" 
d="M397 -10q-74 0 -137.5 26.5t-111.5 75t-74.5 115.5t-26.5 148t26.5 148t74.5 115.5t111.5 75t137.5 26.5t137.5 -26.5t111.5 -75t74.5 -115.5t26.5 -148t-26.5 -148t-74.5 -115.5t-111.5 -75t-137.5 -26.5zM397 50q54 0 100 21t79.5 61t52 96.5t18.5 126.5t-18.5 126.5
t-52 96.5t-79.5 61t-100 21t-100 -21t-79.5 -61t-52 -96.5t-18.5 -126.5t18.5 -126.5t52 -96.5t79.5 -61t100 -21z" />
    <glyph glyph-name="P" unicode="P" horiz-adv-x="646" 
d="M236 57v594h107q56 0 92.5 -18t54.5 -51.5t18 -81.5t-18.5 -84t-56 -56t-95.5 -20h-132v-57h134q83 0 143 28t92.5 77t32.5 113q0 95 -69 152t-194 57h-297v-47h11q37 0 61 -7t24 -29v-544q0 -22 -24 -29t-61 -7h-11v-47h292v47h-27q-13 0 -26.5 0.5t-25 2t-18.5 3
t-7 4.5z" />
    <glyph glyph-name="Q" unicode="Q" horiz-adv-x="794" 
d="M359 3l69 7q-2 -42 14.5 -67.5t48 -37t72.5 -11.5q34 0 59 4t48 10.5t48 13.5v-90q-34 -7 -69.5 -11.5t-72.5 -4.5q-64 0 -114.5 18.5t-78 60t-24.5 108.5zM397 -10q-74 0 -137.5 26.5t-111.5 75t-74.5 115.5t-26.5 148t26.5 148t74.5 115.5t111.5 75t137.5 26.5
t137.5 -26.5t111.5 -75t74.5 -115.5t26.5 -148t-26.5 -148t-74.5 -115.5t-111.5 -75t-137.5 -26.5zM397 50q54 0 100 21t79.5 61t52 96.5t18.5 126.5t-18.5 126.5t-52 96.5t-79.5 61t-100 21t-100 -21t-79.5 -61t-52 -96.5t-18.5 -126.5t18.5 -126.5t52 -96.5t79.5 -61
t100 -21z" />
    <glyph glyph-name="R" unicode="R" horiz-adv-x="695" 
d="M358 321l168 -321h146v47h-9q-16 0 -29.5 2t-23 8t-16.5 18l-147 261zM233 57v594h98q53 0 88.5 -17.5t53.5 -50t18 -77.5q0 -46 -17.5 -79.5t-53.5 -51.5t-93 -18h-114v-56h114q17 0 33 1.5t31 3.5t29 5q54 13 92 40.5t58.5 66.5t20.5 88q0 61 -31 107t-88.5 71.5
t-138.5 25.5h-288v-47h11q37 0 61 -7t24 -29v-544q0 -22 -24 -29t-61 -7h-11v-47h278v47h-13q-13 0 -26.5 0.5t-25 2t-18.5 3t-7 4.5z" />
    <glyph glyph-name="S" unicode="S" horiz-adv-x="623" 
d="M338 50q45 0 77.5 13t50.5 40.5t18 69.5q0 39 -16 65t-43 42.5t-61.5 28t-71.5 21.5q-40 11 -79.5 25t-71.5 37t-51 58t-19 88q0 56 28.5 96.5t76 63t104.5 22.5q45 0 85 -12.5t74 -44.5t58 -92l-36 -6l15 145h57v-186h-64q-16 43 -42.5 73.5t-61.5 47t-76 16.5
q-42 0 -72 -14t-46 -39.5t-16 -61.5q0 -34 16 -56.5t43 -37.5t62 -25.5t72 -20.5q42 -11 82 -25.5t72.5 -37.5t51.5 -59t19 -90q0 -65 -31.5 -111t-84 -69.5t-115.5 -23.5q-57 0 -109.5 18.5t-93.5 58.5t-64 107l46 -4l-15 -170h-61v221h64q17 -50 50 -89t79 -60.5
t100 -21.5z" />
    <glyph glyph-name="T" unicode="T" horiz-adv-x="669" 
d="M288 83v571h-58q-43 0 -70 -3t-40 -12.5t-15 -27.5l-9 -98h-56v197h589v-197h-56l-9 98q-1 18 -14.5 27.5t-40.5 12.5t-70 3h-58v-571q0 -22 24 -29t61 -7h16v-47h-295v47h16q37 0 61 7t24 29z" />
    <glyph glyph-name="U" unicode="U" horiz-adv-x="807" 
d="M232 271q0 -60 14 -101t39 -65t59 -35t75 -11q40 0 73.5 11t58.5 35t38.5 65t13.5 101v370q0 5 -8 9t-21 7t-28.5 4.5t-29.5 1.5h-9v47h257v-47h-11q-24 0 -43.5 -4.5t-30.5 -14.5t-11 -27v-346q0 -75 -20 -128.5t-56 -87.5t-83 -49.5t-101 -15.5q-58 0 -107 16
t-85.5 49.5t-56.5 87t-20 128.5v356q0 22 -24 29t-61 7h-11v47h285v-47h-9q-14 0 -29.5 -0.5t-28.5 -2t-21 -3t-8 -4.5v-382z" />
    <glyph glyph-name="V" unicode="V" horiz-adv-x="699" 
d="M377 38l-16 30l198 577q0 6 -13 10t-32.5 6t-38.5 2h-15v47h231v-47h-5q-28 0 -44 -7.5t-26 -35.5l-214 -620h-102l-222 635q-7 20 -23 24t-42 4h-5v47h260v-47h-17q-19 0 -39 -1t-33.5 -3t-13.5 -6z" />
    <glyph glyph-name="W" unicode="W" horiz-adv-x="1013" 
d="M8 710h259v-47h-17q-19 0 -39 -1t-33.5 -3t-13.5 -6l153 -606h-9l157 663h106l169 -660h-8l140 595q0 6 -13 10t-32.5 6t-38.5 2h-15v47h232v-47h-5q-26 0 -44.5 -8.5t-24.5 -34.5l-150 -620h-110l-166 645h7l-156 -645h-111l-163 626q-7 26 -24 31.5t-45 5.5h-5v47z" />
    <glyph glyph-name="X" unicode="X" horiz-adv-x="740" 
d="M43 663v47h270v-47h-17q-18 0 -37 -1t-32 -3t-13 -6l186 -264l6 -3l217 -305q17 -23 34.5 -28.5t45.5 -5.5h10v-47h-276v47h17q18 0 37 1t32 3.5t13 5.5l-198 278l-6 4l-205 292q-10 15 -21.5 22t-25 8.5t-32.5 1.5h-5zM27 0v47h10q27 0 46.5 9t39.5 37l208 289l38 -45
l-194 -272q0 -5 13.5 -9.5t33.5 -6.5t38 -2h15v-47h-248zM406 354l-39 42l176 249q0 6 -13 10t-32 6t-38 2h-15v47h244v-47h-5q-28 0 -48.5 -9t-40.5 -36z" />
    <glyph glyph-name="Y" unicode="Y" horiz-adv-x="683" 
d="M297 315l14 -45l-218 367q-8 13 -19 18.5t-25.5 6.5t-31.5 1h-5v47h264v-47h-17q-18 0 -37 -1t-32.5 -3t-13.5 -6l195 -333l-27 3l182 322q0 6 -13 10t-32 6t-38 2h-15v47h243v-47h-5q-17 0 -32.5 -2.5t-28.5 -11t-24 -27.5l-203 -354l12 47v-232q0 -22 24 -29t61 -7h16
v-47h-295v47h16q37 0 61 7t24 29v232z" />
    <glyph glyph-name="Z" unicode="Z" horiz-adv-x="622" 
d="M254 651q-32 0 -55.5 -1.5t-38.5 -6.5t-22.5 -13t-8.5 -22l-9 -95h-56v197h499v-64l-451 -627l-14 40h279q43 0 70 3.5t40.5 12.5t14.5 27l9 110h58v-212h-521v67l439 612l19 -28h-252z" />
    <glyph glyph-name="bracketleft" unicode="[" horiz-adv-x="314" 
d="M50 -130v880h244v-50h-164v-780h164v-50h-244z" />
    <glyph glyph-name="backslash" unicode="\" horiz-adv-x="420" 
d="M-19 750h80l378 -878h-80z" />
    <glyph glyph-name="bracketright" unicode="]" horiz-adv-x="314" 
d="M264 -130v880h-244v-50h164v-780h-164v-50h244z" />
    <glyph glyph-name="asciicircum" unicode="^" horiz-adv-x="502" 
d="M114 364h-64l159 346h51l-4 -25zM384 364l-143 322l-2 24h54l159 -346h-68z" />
    <glyph glyph-name="underscore" unicode="_" horiz-adv-x="479" 
d="M-5 -95h489v-60h-489v60z" />
    <glyph glyph-name="grave" unicode="`" horiz-adv-x="500" 
d="M220 707l45 -121v-20h-30l-84 95q-9 10 -15.5 20t-10 20t-3.5 19q0 17 11.5 28t30.5 11q13 0 23 -5.5t18.5 -17t14.5 -29.5z" />
    <glyph glyph-name="a" unicode="a" horiz-adv-x="542" 
d="M385 308v-50q-50 -5 -89 -13t-67.5 -19t-46.5 -25.5t-27 -33.5t-9 -42q0 -24 11 -42t31 -28t46 -10q35 0 62.5 17t49 48t37.5 73v-71q-15 -37 -40 -64.5t-58 -42.5t-75 -15q-43 0 -78.5 16t-57 46.5t-21.5 71.5t21 71.5t63 52.5t104 36.5t144 23.5zM368 0v107l-10 3v240
q0 42 -11.5 66.5t-33.5 34.5t-54 10q-49 0 -80.5 -20t-50.5 -47q-2 12 1 22t9 18t14.5 14t18.5 10v-103h-87v103q15 12 40.5 26t61.5 24t79 10q35 0 67 -8t58 -26.5t41 -49t15 -75.5v-278q0 -14 11 -22t29.5 -11t42.5 -3v0v-45h-161z" />
    <glyph glyph-name="b" unicode="b" horiz-adv-x="645" 
d="M360 -10q-39 0 -70.5 11.5t-58 35t-51.5 60.5v87q23 -46 50 -76.5t59 -45.5t69 -15q36 0 63.5 15t46 43t28 66.5t9.5 85.5t-9.5 84.5t-27.5 64.5t-44.5 41t-61.5 14q-39 0 -72 -16.5t-60 -48.5t-50 -80v83q27 40 54.5 66.5t59.5 39.5t74 13q69 0 121 -32.5t81 -91
t29 -137.5t-30 -139t-83.5 -94t-125.5 -34zM108 642q0 15 -8 23t-24 13t-42 9l-11 2v46h174v-614l-10 -15l-19 -109h-60v645z" />
    <glyph glyph-name="c" unicode="c" horiz-adv-x="559" 
d="M312 47q45 0 77 17t54.5 42t38.5 48l44 -42q-22 -33 -51.5 -61t-70 -44.5t-95.5 -16.5q-79 0 -138.5 34t-92 93.5t-32.5 136.5q0 79 34.5 138t96 92.5t142.5 33.5q50 0 89.5 -11.5t67 -26.5t40.5 -28v-124h-88v113q11 -2 20 -6.5t15.5 -12t9 -17.5t0.5 -23
q-18 34 -61 56.5t-93 22.5q-59 0 -99 -26.5t-60 -73.5t-20 -107q0 -46 11.5 -84t33.5 -65.5t54 -42.5t73 -15z" />
    <glyph glyph-name="d" unicode="d" horiz-adv-x="641" 
d="M537 81q0 -22 23.5 -29t59.5 -7h1v-45h-165v112l-8 3v527q0 15 -8 23t-25 13t-43 9l-11 2v46h176v-654zM286 518q40 0 71 -11t57.5 -34.5t50.5 -60.5v-90q-21 48 -47.5 79t-58.5 45.5t-70 14.5q-36 0 -64 -15t-47 -42.5t-28.5 -66.5t-9.5 -87q0 -46 9.5 -83.5t28 -64.5
t46 -41t62.5 -14q40 0 72 16.5t58.5 48.5t48.5 79v-84q-26 -39 -53 -65t-59 -39t-73 -13q-70 0 -122.5 32.5t-82 91t-29.5 136.5q0 80 30 140t84.5 94t125.5 34z" />
    <glyph glyph-name="e" unicode="e" horiz-adv-x="549" 
d="M137 250q0 -48 12.5 -86t35.5 -64t54 -39.5t67 -13.5q41 0 70.5 16t50 39.5t34.5 46.5l47 -42q-19 -32 -47 -59t-66.5 -42.5t-90.5 -15.5q-73 0 -131.5 32t-92.5 91t-34 139q0 79 32 138.5t86.5 93.5t121.5 34q55 0 96.5 -18t70 -53.5t43.5 -89.5t15 -126h-392v56h325
l-28 -22q-1 50 -9 87t-24 61t-40 36t-57 12q-31 0 -58 -14.5t-47.5 -42t-32 -66.5t-11.5 -88z" />
    <glyph glyph-name="f" unicode="f" horiz-adv-x="386" 
d="M38 508h339v-57h-339v57zM410 742v-63q-16 6 -36.5 11.5t-43.5 5.5q-28 0 -50.5 -10t-35.5 -37t-13 -78v-516q0 -3 12.5 -5.5t34 -3.5t48.5 -1h13v-45h-296v45h11q41 0 64.5 7t23.5 29v490q0 70 27.5 109t71 55.5t90.5 16.5q22 0 44 -2.5t35 -7.5z" />
    <glyph glyph-name="g" unicode="g" horiz-adv-x="568" 
d="M563 437q-44 4 -75 4t-51.5 -6t-33.5 -23l-13 15q14 29 32.5 49.5t40.5 33.5t47 17.5t53 1.5v-92zM271 151q-58 0 -103.5 22.5t-71.5 63.5t-26 96t26.5 96.5t72 65t102.5 23.5q58 0 103.5 -23.5t72 -65t26.5 -96.5t-26.5 -96t-72 -63.5t-103.5 -22.5zM271 209
q35 0 60.5 14.5t39.5 42t14 67.5t-14 68.5t-39.5 43.5t-60.5 15q-34 0 -59.5 -15t-39.5 -43.5t-14 -68.5t14 -67.5t39.5 -42t59.5 -14.5zM256 -236q-67 0 -121 12.5t-85.5 41.5t-31.5 77q0 24 12.5 44t37.5 37.5t64 35.5l37 -26q-25 -12 -41 -26t-23.5 -29t-7.5 -32
q0 -24 17 -40.5t52.5 -25.5t90.5 -9h35q51 0 90.5 12.5t62 34.5t22.5 50q0 29 -21.5 41.5t-80.5 12.5h-224h-4q-32 17 -51 32.5t-26.5 32.5t-7.5 36q0 24 12 45t36 40.5t61 36.5l38 -27q-20 -10 -35 -21t-22.5 -23t-7.5 -26q0 -21 21.5 -30.5t61.5 -9.5h150
q60 0 100.5 -13.5t61.5 -41t21 -69.5q0 -59 -35.5 -97.5t-94 -57t-127.5 -18.5h-37z" />
    <glyph glyph-name="h" unicode="h" horiz-adv-x="646" 
d="M212 735v-680q0 -3 12 -5.5t29 -3.5t31 -1h3v-45h-249v45h2q24 0 42.5 3t29.5 11t11 22v561q0 15 -8 23t-24 13t-42 9l-11 2v46h174zM623 0h-248v45h2q14 0 31 1t29.5 3.5t12.5 5.5v291q0 38 -8 62t-26.5 35.5t-50.5 11.5q-34 0 -64 -13t-56 -38.5t-50 -62.5v68
q27 37 54.5 61t59 36t70.5 12q48 0 84 -17t56 -52.5t20 -91.5v-276q0 -22 23.5 -29t58.5 -7h2v-45z" />
    <glyph glyph-name="i" unicode="i" horiz-adv-x="319" 
d="M163 619q-26 0 -43.5 16.5t-17.5 44.5t17.5 44t43.5 16t43.5 -16t17.5 -44t-17.5 -44.5t-43.5 -16.5zM212 508v-427q0 -22 23.5 -29t59.5 -7h1v-45h-257v45h1q36 0 59.5 7t23.5 29v334q0 22 -18 30t-56 15l-11 2v46h174z" />
    <glyph glyph-name="j" unicode="j" horiz-adv-x="298" 
d="M115 -45v460q0 15 -9 23.5t-26.5 13.5t-45.5 8l-16 2v46h186v-553q0 -56 -16 -93t-42.5 -58.5t-60 -30.5t-68.5 -9q-22 0 -43.5 3t-35.5 9v63q17 -6 35.5 -9.5t40.5 -3.5q31 0 53.5 11.5t35 40t12.5 77.5zM155 619q-26 0 -43.5 16.5t-17.5 44.5t17.5 44t43.5 16t43.5 -16
t17.5 -44t-17.5 -44.5t-43.5 -16.5z" />
    <glyph glyph-name="k" unicode="k" horiz-adv-x="634" 
d="M611 0h-259v45h3q14 0 31 1t29 3.5t12 5.5l-189 213v5l180 172q0 8 -14 11.5t-33 5t-34 1.5h-4v45h248v-45h-2q-20 0 -40 -5t-38.5 -16t-36.5 -28l-155 -149l2 43l201 -225q15 -16 30 -24t32 -11t35 -3h2v-45zM212 735v-680q0 -3 12.5 -5.5t29.5 -3.5t30 -1h3v-45h-248
v45h2q36 0 59 7t23 29v561q0 15 -8 23t-24 13t-42 9l-11 2v46h174z" />
    <glyph glyph-name="l" unicode="l" horiz-adv-x="309" 
d="M207 735v-654q0 -22 23 -29t59 -7h2v-45h-257v45h2q36 0 59 7t23 29v561q0 15 -8 23t-24 13t-42 9l-11 2v46h174z" />
    <glyph glyph-name="m" unicode="m" horiz-adv-x="912" 
d="M38 0v45h2q36 0 59 7t23 29v334q0 15 -8 22.5t-24.5 12.5t-41.5 10l-10 2v46h163v-104l10 -12v-337q0 -3 11.5 -5.5t27.5 -3.5t29 -1h2v-45h-243zM578 0h-231v45h2q14 0 30 1t27.5 3.5t11.5 5.5v290q0 38 -6.5 62.5t-21.5 36t-42 11.5q-31 0 -57.5 -13.5t-50 -38.5
t-46.5 -62v70q25 36 50 59.5t54 35.5t65 12q43 0 75.5 -17t50.5 -52.5t18 -91.5v-302q0 -3 11.5 -5.5t28 -3.5t30.5 -1h1v-45zM889 0h-245v45h3q14 0 29.5 1.5t26.5 3.5t11 5v290q0 38 -6.5 62.5t-21.5 36t-42 11.5q-30 0 -57 -13.5t-50.5 -38.5t-46.5 -62v70q25 36 50 59.5
t54 35.5t65 12q43 0 75 -17t50.5 -52.5t18.5 -91.5v-276q0 -22 23.5 -29t59.5 -7h3v-45z" />
    <glyph glyph-name="n" unicode="n" horiz-adv-x="645" 
d="M38 0v45h2q24 0 42.5 3t29 11t10.5 22v334q0 15 -8 22.5t-24.5 12.5t-41.5 10l-10 2v46h164v-106l9 -11v-336q0 -3 12 -5.5t29 -3.5t31 -1h3v-45h-248zM622 0h-248v45h2q14 0 31 1t29.5 3.5t12.5 5.5v291q0 38 -8 62t-26.5 35.5t-50.5 11.5q-33 0 -63 -13t-56.5 -38.5
t-50.5 -63.5v68q27 37 54.5 61.5t59.5 36.5t71 12q48 0 83.5 -17t55.5 -52.5t20 -91.5v-276q0 -14 10.5 -22t29 -11t42.5 -3h2v-45z" />
    <glyph glyph-name="o" unicode="o" horiz-adv-x="614" 
d="M568 254q0 -77 -33.5 -137t-92.5 -93.5t-135 -33.5t-135 33.5t-92.5 93.5t-33.5 137q0 58 19 106.5t54.5 83.5t83 54.5t104.5 19.5t104.5 -19.5t83 -54.5t54.5 -83.5t19 -106.5zM140 254q0 -62 20.5 -109t58 -72.5t88.5 -25.5q52 0 89 25.5t57.5 72.5t20.5 109
q0 63 -20.5 109.5t-57.5 72t-89 25.5q-51 0 -88.5 -25.5t-58 -72t-20.5 -109.5z" />
    <glyph glyph-name="p" unicode="p" horiz-adv-x="654" 
d="M308 -223h-275v45h2q24 0 42.5 3t29 11t10.5 22v557q0 15 -8 22.5t-24.5 12.5t-41.5 10l-10 2v46h164v-126l9 -12v-538q0 -3 13 -5.5t30 -3.5t30 -1h29v-45zM369 -10q-40 0 -71 11.5t-57.5 35t-51.5 60.5v88q23 -46 49.5 -76.5t58.5 -46t69 -15.5q36 0 64 15t46.5 43
t28 66.5t9.5 85.5t-9.5 84.5t-27.5 64.5t-45 41t-62 14q-39 0 -71.5 -16.5t-59.5 -49t-50 -79.5v85q27 40 54 65.5t59.5 38.5t73.5 13q70 0 122 -32.5t81 -91t29 -137.5t-29.5 -139t-83.5 -94t-126 -34z" />
    <glyph glyph-name="q" unicode="q" horiz-adv-x="636" 
d="M346 -223v45h29q13 0 30 1t30 3.5t13 5.5v553l8 18l19 108h62v-653q0 -22 23 -29t59 -7h2v-45h-275zM286 518q40 0 71.5 -11t57.5 -34t50 -60v-89q-21 47 -47.5 77t-58.5 45t-70 15q-36 0 -64 -15t-46.5 -42.5t-28.5 -66.5t-10 -87q0 -46 9.5 -83.5t28.5 -64t46 -41
t62 -14.5q40 0 72 16.5t58.5 49t48.5 78.5v-85q-26 -39 -53 -65t-58.5 -38.5t-73.5 -12.5q-70 0 -122.5 32.5t-82 91t-29.5 136.5q0 80 30 140t84.5 94t125.5 34z" />
    <glyph glyph-name="r" unicode="r" horiz-adv-x="411" 
d="M388 515v-89q-7 3 -16.5 4.5t-19.5 2.5t-19 1q-27 0 -47 -7.5t-35.5 -22.5t-28.5 -38t-28 -55v66q15 42 37.5 73.5t53 49.5t69.5 18q10 0 19.5 -0.5t14.5 -2.5zM38 0v45h2q36 0 59 7t23 29v334q0 15 -8 22.5t-24.5 12.5t-41.5 10l-10 2v46h164v-147l9 9v-290
q0 -16 14.5 -23.5t34 -9.5t33.5 -2h17v-45h-272z" />
    <glyph glyph-name="s" unicode="s" horiz-adv-x="475" 
d="M358 132q0 21 -11 35t-29.5 23.5t-42 16t-49.5 12.5q-31 8 -61.5 18t-55.5 26.5t-40 42t-15 64.5q0 44 22 77.5t63.5 52t100.5 18.5q46 0 80.5 -7t57.5 -17.5t34 -19.5v-109h-86v94q11 0 18.5 -3.5t11.5 -10t5 -15.5t-2 -20q-11 17 -29 28.5t-40.5 17t-49.5 5.5
q-52 0 -78 -22.5t-26 -57.5q0 -22 11.5 -37t31 -24.5t44 -16.5t51.5 -14q30 -7 60 -17t54.5 -26t39 -41t14.5 -63q0 -43 -24 -77.5t-68.5 -54.5t-107.5 -20q-48 0 -86.5 7.5t-68.5 20t-54 27.5v115h88v-127q-15 9 -23 18t-11 18t-2 18.5t4 19.5q17 -21 40 -34t51 -19.5
t61 -6.5q36 0 62 10t40.5 29t14.5 46z" />
    <glyph glyph-name="t" unicode="t" horiz-adv-x="373" 
d="M8 451v52h5q30 0 51.5 4t32.5 15t11 31l65 -45h168v-57h-333zM190 174q0 -44 11.5 -71.5t32.5 -40t49 -12.5q21 0 39 4t31 8v-57q-9 -4 -21.5 -7.5t-26.5 -5.5t-30 -2q-44 0 -84 16t-65 56t-25 111v319l7 7v149h82v-474z" />
    <glyph glyph-name="u" unicode="u" horiz-adv-x="624" 
d="M195 508v-345q0 -38 8 -62.5t26.5 -36t50.5 -11.5q33 0 62 13t55 38t49 62v-69q-26 -36 -53 -59.5t-58 -35.5t-70 -12q-47 0 -83 17t-56 53t-20 91v264q0 22 -18 30.5t-56 14.5l-12 2v46h175zM518 508v-427q0 -14 11 -22t29.5 -11t42.5 -3h3v-45h-166v104l-9 13v298
q0 22 -18.5 30.5t-57.5 13.5l-22 3v46h187z" />
    <glyph glyph-name="v" unicode="v" horiz-adv-x="579" 
d="M445 442q-1 6 -13.5 11t-31 7.5t-38.5 2.5h-2v45h214v-45h-2q-15 0 -29.5 -3.5t-25.5 -12.5t-18 -26l-161 -421h-92l-166 429q-5 14 -15 21t-24.5 10t-33.5 3h-2v45h245v-45h-2q-21 0 -41.5 -1t-33.5 -2.5t-13 -5.5l150 -397l-10 -2z" />
    <glyph glyph-name="w" unicode="w" horiz-adv-x="827" 
d="M419 409l-16 -1l129 -408h90l126 420q5 16 16 25t26.5 13.5t30.5 4.5h1v45h-217v-45h2q24 0 42.5 -2.5t30 -7t12.5 -11.5l-110 -380h9l-132 446h-71l-129 -447h12l-115 393q0 4 12.5 5.5t33 2.5t43.5 1h2v45h-242v-45h1q16 0 29.5 -2.5t23.5 -9t14 -19.5l134 -432h90z
" />
    <glyph glyph-name="x" unicode="x" horiz-adv-x="575" 
d="M569 0h-251v45h2q21 0 42 1t34.5 3t13.5 5l-149 177l-4 3l-166 202q-8 11 -17.5 16.5t-22.5 7.5t-32 2h-1v46h248v-45h-2q-20 0 -40.5 -1t-33.5 -2.5t-13 -4.5l144 -175l4 -4l165 -197q11 -12 21 -19.5t23.5 -11t33.5 -3.5h1v-45zM6 0v45h1q15 0 29 4t27 12.5t24 21.5
l158 184l44 -34l-143 -168q0 -6 12.5 -10.5t31.5 -7t38 -2.5h2v-45h-224zM324 246l-41 37l136 160q0 6 -12.5 10.5t-31 7t-37.5 2.5h-3v45h223v-45h-1q-17 0 -31 -4t-27 -14t-28 -27z" />
    <glyph glyph-name="y" unicode="y" horiz-adv-x="591" 
d="M332 45l-12 -37l-51 -22l-187 442q-6 14 -16 21.5t-25 10.5t-35 3h-1v45h250v-45h-2q-20 0 -40.5 -1t-34 -2.5t-13.5 -5.5zM342 17q-27 -64 -54 -111.5t-55.5 -77.5t-60.5 -45t-70 -15q-25 0 -41.5 5.5t-27.5 12.5v80q3 -1 12.5 -5.5t24 -8.5t31.5 -4q23 0 46 7.5t47 29
t49 62.5t51 107l7 18l152 369q0 7 -12 11.5t-31 7.5t-39 3h-3v45h218v-45h-1q-15 0 -29 -3.5t-26 -13t-20 -28.5z" />
    <glyph glyph-name="z" unicode="z" horiz-adv-x="470" 
d="M114 39l-12 16h156q32 0 55 2t38 6.5t22.5 13.5t9.5 23l10 80h54v-180h-414v60l320 407l15 -13h-131q-33 0 -56 -1.5t-37.5 -6.5t-22 -13t-9.5 -22l-9 -65h-53v162h386v-55z" />
    <glyph glyph-name="braceleft" unicode="{" horiz-adv-x="342" 
d="M248 227q0 -14 -8.5 -33.5t-21.5 -42.5t-26 -48.5t-21.5 -50.5t-8.5 -48q0 -37 18 -60t53.5 -33t88.5 -9l-14 -48q-46 -3 -89 3t-76 22t-52.5 44t-19.5 71q0 32 14 67t34 69.5t40 66t32 55.5l13 -19l-154 48v41l154 48l-13 -19q-12 24 -32 55.5t-40 66t-34 70t-14 66.5
q0 43 19.5 71t52.5 44t76 22t89 3l14 -48q-53 1 -88.5 -9t-53.5 -32.5t-18 -60.5q0 -23 8.5 -48t21.5 -50.5t26 -48.5t21.5 -42.5t8.5 -33.5t-5.5 -25t-20 -19.5t-41.5 -15t-70 -12.5v-5q43 -6 70 -12.5t41.5 -15t20 -19.5t5.5 -25z" />
    <glyph glyph-name="bar" unicode="|" horiz-adv-x="280" 
d="M103 750h74v-878h-74v878z" />
    <glyph glyph-name="braceright" unicode="}" horiz-adv-x="342" 
d="M94 227q0 -14 8.5 -33.5t21.5 -42.5t26 -48.5t21.5 -50.5t8.5 -48q0 -37 -18 -60t-53.5 -33t-88.5 -9l14 -48q46 -3 89 3t76 22t52.5 44t19.5 71q0 32 -14 67t-34 69.5t-40 66t-32 55.5l-13 -19l154 48v41l-154 48l13 -19q12 24 32 55.5t40 66t34 70t14 66.5
q0 43 -19.5 71t-52.5 44t-76 22t-89 3l-14 -48q53 1 88.5 -9t53.5 -32.5t18 -60.5q0 -23 -8.5 -48t-21.5 -50.5t-26 -48.5t-21.5 -42.5t-8.5 -33.5t5.5 -25t20 -19.5t41.5 -15t70 -12.5v-5q-43 -6 -70 -12.5t-41.5 -15t-20 -19.5t-5.5 -25z" />
    <glyph glyph-name="asciitilde" unicode="~" horiz-adv-x="538" 
d="M343 269q-22 0 -40.5 6t-35 14.5t-31.5 16.5t-30 14t-30 6q-18 0 -29 -8.5t-17.5 -22.5t-12.5 -33l-57 15q9 41 24.5 69.5t40.5 43.5t61 15q23 0 42 -5.5t35 -14t31 -17t30 -14t32 -5.5q20 0 31.5 8.5t19.5 23.5t15 32l56 -16q-9 -29 -20.5 -52.5t-27.5 -40.5t-37.5 -26
t-49.5 -9z" />
    <glyph glyph-name="uni00A0" unicode="&#xa0;" horiz-adv-x="253" 
 />
    <glyph glyph-name="exclamdown" unicode="&#xa1;" horiz-adv-x="281" 
d="M196 -218h-111q0 55 3 102.5t7 93t8.5 93.5t7.5 104.5t3 127.5h53q0 -71 3 -127.5t7.5 -105t8.5 -93.5t7 -92.5t3 -102.5zM140 523q-30 0 -49 -17.5t-19 -45.5q0 -29 19 -46.5t49 -17.5q31 0 50 17.5t19 46.5q0 28 -19 45.5t-50 17.5z" />
    <glyph glyph-name="cent" unicode="&#xa2;" 
d="M311 48q34 0 59.5 9.5t44.5 25t33.5 34t26.5 35.5l47 -40q-20 -33 -49.5 -61t-69.5 -44.5t-95 -16.5q-76 0 -137 33.5t-97 91.5t-36 133q0 78 34 139t94.5 96t141.5 35q54 0 95.5 -13t70 -29.5t41.5 -28.5v-118h-84v110q10 1 18 -4t12.5 -13.5t6 -18t-1.5 -17.5
q-12 17 -34.5 34t-53.5 28.5t-70 11.5q-42 0 -75 -15t-56 -43t-35 -67t-12 -87q0 -45 13.5 -81.5t37.5 -63t57.5 -41t72.5 -14.5zM272 623h60v-128v-19v-443v-13v-146h-60v137v17v446v12v137z" />
    <glyph glyph-name="sterling" unicode="&#xa3;" 
d="M30 -13v70q51 18 82 41t45 53.5t14 70.5q0 35 -8 64.5t-20 57t-24.5 55t-20.5 56.5t-8 62q0 61 28.5 106t78.5 70t116 25q48 0 84 -9t61 -21.5t38 -25.5v-118h-88v106q10 -1 17 -5.5t11.5 -11t7 -14t2.5 -15.5q-21 21 -52 37.5t-79 16.5q-38 0 -68 -15.5t-46.5 -46
t-16.5 -74.5q0 -42 10.5 -76t24 -65.5t24 -66t10.5 -77.5q0 -45 -14 -84.5t-42 -71.5t-70 -56t-97 -38zM380 -10q-29 0 -53 8.5t-47.5 25t-51.5 41t-64 56.5q1 7 4 14.5t8 14.5t10.5 13t11.5 9q37 -32 69 -52.5t61.5 -30t57.5 -9.5q26 0 44 12t31.5 37t22.5 63l56 -18
q-8 -49 -28 -91t-52.5 -67.5t-79.5 -25.5zM41 365h378v-54h-378v54z" />
    <glyph glyph-name="currency" unicode="&#xa4;" 
d="M407 373q0 40 -15.5 70.5t-44 47t-67.5 16.5q-38 0 -67 -16.5t-44.5 -47t-15.5 -70.5t15.5 -70t44.5 -46.5t67 -16.5q39 0 67.5 16.5t44 46.5t15.5 70zM73 373q0 45 16 82t44.5 64.5t66 42.5t80.5 15t80.5 -15t66 -42.5t44.5 -64.5t16 -82q0 -44 -16 -81.5t-44.5 -64.5
t-66 -42t-80.5 -15t-80.5 15t-66 42t-44.5 64.5t-16 81.5zM22 583l51 51l110 -110l-58 -44zM538 583l-103 -103l-58 44l110 110zM22 163l103 103l58 -44l-110 -110zM538 163l-51 -51l-110 110l58 44z" />
    <glyph glyph-name="yen" unicode="&#xa5;" 
d="M65 354h433v-52h-433v52zM65 224h433v-52h-433v52zM236 363h91v-280q0 -22 24 -29t61 -7h17v-47h-295v47h17q37 0 61 7t24 29v280zM306 318h-48l-180 319q-10 19 -27.5 22.5t-40.5 3.5h-5v47h244v-47h-17q-16 0 -33 -1t-29 -3t-12 -6l161 -291h-45l147 283q0 6 -11.5 10
t-28.5 6t-34 2h-15v47h223v-47h-5q-22 0 -42 -6.5t-35 -34.5z" />
    <glyph glyph-name="brokenbar" unicode="&#xa6;" horiz-adv-x="280" 
d="M103 750h74v-370h-74v370zM103 242h74v-370h-74v370z" />
    <glyph glyph-name="section" unicode="&#xa7;" horiz-adv-x="644" 
d="M289 430l13 -35q-54 -6 -92.5 -17.5t-59 -31.5t-20.5 -52q0 -26 15 -45.5t41.5 -35t60 -30t70.5 -30.5q40 -17 77.5 -36.5t68 -44t48.5 -57t18 -75.5q0 -52 -29 -92t-79 -62t-113 -22q-54 0 -97 10t-74.5 26t-54.5 34v128h95v-134q-11 9 -20.5 21t-16 23.5t-8.5 19t1 7.5
q19 -26 44 -43t57 -25.5t72 -8.5q45 0 76.5 12.5t47.5 35.5t16 54q0 33 -15 56t-41 40t-59.5 31t-69.5 30q-39 17 -77.5 36t-69 42t-49 53t-18.5 70t19 68.5t52 46.5t77 26t94 7zM396 61l-12 47q40 12 67.5 24.5t42.5 30.5t15 44q0 25 -15.5 44.5t-43 35.5t-61.5 31t-72 31
q-37 17 -73.5 35.5t-66.5 43t-47.5 56.5t-17.5 74q0 48 28 84.5t78 57t114 20.5q49 0 87.5 -10.5t65 -25t39.5 -27.5v-113h-90v101q11 -1 20.5 -6t17 -14t10.5 -19.5t1 -21.5q-13 23 -34 41t-49.5 28t-65.5 10q-47 0 -78 -13t-46 -34.5t-15 -49.5q0 -29 14.5 -49.5
t39.5 -36.5t57 -30t67 -29q41 -18 80 -35.5t70.5 -39t50 -51.5t18.5 -72q0 -47 -23 -79.5t-67 -52.5t-106 -30z" />
    <glyph glyph-name="dieresis" unicode="&#xa8;" horiz-adv-x="500" 
d="M202 666q0 -28 -17.5 -44.5t-43.5 -16.5t-43.5 16.5t-17.5 44.5t17.5 44t43.5 16t43.5 -16t17.5 -44zM420 666q0 -28 -17.5 -44.5t-43.5 -16.5t-43.5 16.5t-17.5 44.5t17.5 44t43.5 16t43.5 -16t17.5 -44z" />
    <glyph glyph-name="copyright" unicode="&#xa9;" horiz-adv-x="841" 
d="M418 518q-27 0 -50 -11t-41 -32t-28 -51.5t-10 -69.5q0 -49 16.5 -85.5t47 -56.5t70.5 -20t68 16.5t46 44t27 58.5l42 -16q-10 -40 -35.5 -73.5t-64 -54t-87.5 -20.5q-59 0 -106.5 26t-74.5 73t-27 108t27.5 108t74.5 74t103 27q37 0 69.5 -14.5t55 -42.5t29.5 -70
l-30 15l10 101h43v-138h-50q-9 31 -25.5 54t-41 36.5t-58.5 13.5zM98 355q0 -70 24 -130.5t67.5 -106t102 -71t128.5 -25.5t129 25.5t102.5 71t67.5 106t24 130.5t-24 130.5t-67.5 106t-102.5 71t-129 25.5t-128.5 -25.5t-102 -71t-67.5 -106t-24 -130.5zM40 355
q0 81 29 151t80.5 122t120.5 81t150 29t150.5 -29t121 -81t80.5 -122t29 -151t-29 -151t-80.5 -122t-121 -81t-150.5 -29t-150 29t-120.5 81t-80.5 122t-29 151z" />
    <glyph glyph-name="ordfeminine" unicode="&#xaa;" horiz-adv-x="482" 
d="M314 562l-1 -44q-47 -3 -80.5 -10.5t-54.5 -19.5t-30.5 -28.5t-9.5 -37.5q0 -19 8 -33t22.5 -21.5t32.5 -7.5q33 0 57 23t40 57l14 -35q-11 -27 -30.5 -48.5t-46 -34t-60.5 -12.5q-37 0 -65 13t-44 38t-16 60q0 33 16 56.5t49 40t82.5 27.5t116.5 17zM301 320v81l-6 2
v189q0 28 -8.5 45.5t-25 26t-40.5 8.5q-23 0 -43.5 -7t-36.5 -19t-25 -27q-2 15 4.5 25t17.5 16t21 8v-65h-85v66q11 14 32.5 25.5t52 18.5t67.5 7q39 0 73.5 -11.5t56 -38t21.5 -72.5v-208q0 -19 18.5 -24t44.5 -5v0v-41h-139z" />
    <glyph glyph-name="guillemotleft" unicode="&#xab;" horiz-adv-x="489" 
d="M99 213l1 100l144 -238h-50l-154 170v40l154 170h50zM304 213l1 100l144 -238h-50l-154 170v40l154 170h50z" />
    <glyph glyph-name="logicalnot" unicode="&#xac;" 
d="M412 351l43 -40h-370v60h390v-215h-63v195z" />
    <glyph glyph-name="softhyphen" unicode="&#xad;" horiz-adv-x="441" 
d="M78 333h285v-75h-285v75z" />
    <glyph glyph-name="registered" unicode="&#xae;" horiz-adv-x="841" 
d="M420 22q70 0 129 25.5t102.5 71t67.5 106t24 130.5t-24 130.5t-67.5 106t-102.5 71t-129 25.5t-128.5 -25.5t-102 -71t-67.5 -106t-24 -130.5t24 -130.5t67.5 -106t102 -71t128.5 -25.5zM420 -28q-81 0 -150 29t-120.5 81t-80.5 122t-29 151t29 151t80.5 122t120.5 81
t150 29t150.5 -29t121 -81t80.5 -122t29 -151t-29 -151t-80.5 -122t-121 -81t-150.5 -29zM249 153v42h6q21 0 35 4t14 16v280q0 12 -14 16t-35 4h-6v42h173q74 0 118.5 -31.5t44.5 -87.5q0 -29 -12.5 -52.5t-34.5 -40t-52.5 -25.5t-66.5 -9h-40v-111q0 -2 7 -3t17.5 -1.5
t19.5 -0.5h4v-42h-178zM421 512h-42v-156h39q45 0 67 20.5t22 61.5q0 40 -21.5 57t-64.5 17zM420 335l71 9l67 -134q5 -10 15.5 -13t24.5 -3h15v-42h-108z" />
    <glyph glyph-name="macron" unicode="&#xaf;" horiz-adv-x="500" 
d="M105 691h290v-65h-290v65z" />
    <glyph glyph-name="degree" unicode="&#xb0;" horiz-adv-x="486" 
d="M351 549q0 50 -30 81.5t-78 31.5t-78 -31.5t-30 -81.5q0 -33 13.5 -58.5t38 -40t56.5 -14.5q48 0 78 31.5t30 81.5zM55 549q0 54 25 94.5t68 63t95 22.5q53 0 95.5 -22.5t67.5 -63t25 -94.5q0 -53 -25 -94t-67.5 -63.5t-95.5 -22.5q-52 0 -95 22.5t-68 63.5t-25 94z" />
    <glyph glyph-name="plusminus" unicode="&#xb1;" 
d="M242 563h74v-424h-74v424zM487 384v-66h-414v66h414zM487 66v-66h-414v66h414z" />
    <glyph glyph-name="twosuperior" unicode="&#xb2;" horiz-adv-x="324" 
d="M186 424h-134q-1 -1 -1 -4.5t1.5 -6.5t3.5 -4q31 15 62.5 33t60.5 37.5t52 41.5t36.5 45.5t13.5 48.5q0 33 -14.5 55t-42 33.5t-67.5 11.5q-29 0 -54 -8t-42.5 -21t-27.5 -28v-52h63v63q-7 0 -12 -6.5t-8 -15.5t-4 -19q11 19 31 33.5t48 14.5q26 0 40.5 -13.5t14.5 -45.5
q0 -28 -14.5 -52.5t-40 -46.5t-58 -42.5t-67.5 -41.5v-65h268v117h-39l-5 -39q-1 -9 -7.5 -14t-20 -7t-36.5 -2z" />
    <glyph glyph-name="threesuperior" unicode="&#xb3;" horiz-adv-x="324" 
d="M153 403q-31 0 -51.5 12t-33 30t-20.5 35l-35 -25q11 -26 28.5 -47t46 -33t71.5 -12q41 0 73 11.5t50.5 34t18.5 56.5q0 26 -15 45.5t-48.5 31t-89.5 11.5l-10 -7q42 0 75.5 9.5t53 28.5t19.5 47q0 41 -36 62.5t-89 21.5q-31 0 -55.5 -8.5t-41 -21.5t-24.5 -26v-50h63v60
q-7 -1 -11.5 -6t-6.5 -13t-3 -19q11 17 29 30.5t46 13.5q24 0 40.5 -11.5t16.5 -38.5q0 -33 -21 -46t-61 -13h-28v-37h35q33 0 52 -7.5t27.5 -21.5t8.5 -33q0 -34 -21 -49t-53 -15z" />
    <glyph glyph-name="acute" unicode="&#xb4;" horiz-adv-x="500" 
d="M236 707q7 18 15 29.5t18.5 17t22.5 5.5q19 0 30.5 -11t11.5 -28q0 -9 -3.5 -19t-10 -20t-15.5 -20l-84 -95h-30v20z" />
    <glyph glyph-name="micro" unicode="&#xb5;" horiz-adv-x="642" 
d="M525 -10q-31 0 -54.5 12.5t-36.5 35.5t-12 56l-9 13v401h89v-414q0 -25 9 -35t25 -10q13 0 22.5 6t17.5 17t16 24l40 -32q-11 -22 -26.5 -39t-35.5 -26t-45 -9zM179 508v-323q0 -48 9 -77t29.5 -42.5t52.5 -13.5q34 0 64.5 15.5t58 46t51.5 75.5l30 -26
q-34 -59 -68 -97.5t-70 -57.5t-76 -19q-32 0 -55.5 5.5t-41 18.5t-29.5 35t-21 54l15 44q4 -45 9 -83t11.5 -70.5l12.5 -62.5t11.5 -58.5t8.5 -58t3 -63.5h-94v758h89z" />
    <glyph glyph-name="paragraph" unicode="&#xb6;" horiz-adv-x="617" 
d="M316 0v710h-75q-61 0 -105 -21.5t-67.5 -61.5t-23.5 -94q0 -55 24.5 -97.5t69.5 -66.5t107 -24h5v-345h65zM450 710h-165v-47h165v47zM486 0v627q0 15 11 22.5t30.5 10.5t43.5 3h11v47h-161v-710h65z" />
    <glyph glyph-name="periodcentered" unicode="&#xb7;" horiz-adv-x="253" 
d="M128 294q-30 0 -49 17.5t-19 45.5q0 29 19 46.5t49 17.5q31 0 50 -17.5t19 -46.5q0 -28 -19 -45.5t-50 -17.5z" />
    <glyph glyph-name="cedilla" unicode="&#xb8;" horiz-adv-x="600" 
d="M308 4l-41 -71l-9 9q38 2 68 -8t47.5 -29.5t17.5 -48.5q0 -24 -9.5 -41.5t-26.5 -28.5t-39 -16.5t-47 -5.5q-42 0 -70.5 15t-45.5 40l36 34q9 -11 20.5 -21t26 -16t31.5 -6q23 0 36 11t13 33q0 23 -16 37t-57 14h-26l29 99h62z" />
    <glyph glyph-name="onesuperior" unicode="&#xb9;" horiz-adv-x="314" 
d="M215 423q0 -13 17.5 -17.5t45.5 -4.5h19v-32h-240v32h26q26 0 42.5 4.5t16.5 17.5v242l10 6q-6 -17 -21 -28t-36.5 -16t-47.5 -5v45q29 1 50 5.5t36.5 14t25.5 23.5h56v-287z" />
    <glyph glyph-name="ordmasculine" unicode="&#xba;" horiz-adv-x="514" 
d="M464 515q0 -61 -26.5 -107.5t-73 -72t-107.5 -25.5q-60 0 -107 25.5t-73.5 72t-26.5 107.5t26.5 107t73.5 72t107 26q61 0 107.5 -26t73 -72t26.5 -107zM138 515q0 -45 15 -79t41.5 -53t62.5 -19t63 19t41.5 53t14.5 79q0 44 -14.5 78t-41.5 53.5t-63 19.5t-62.5 -19.5
t-41.5 -53.5t-15 -78z" />
    <glyph glyph-name="guillemotright" unicode="&#xbb;" horiz-adv-x="489" 
d="M390 213l-1 100l-144 -238h50l154 170v40l-154 170h-50zM185 213l-1 100l-144 -238h50l154 170v40l-154 170h-50z" />
    <glyph glyph-name="onequarter" unicode="&#xbc;" horiz-adv-x="820" 
d="M223 423q0 -13 17.5 -17.5t45.5 -4.5h19v-32h-240v32h26q26 0 42.5 4.5t16.5 17.5v242l10 6q-6 -17 -21 -28t-36.5 -16t-47.5 -5v45q29 1 50 5.5t36.5 14t25.5 23.5h56v-287zM703 710h75l-613 -710h-75zM471 85v55l154 201h37l-13 -31l-154 -203l2 30h268v-52h-294z
M708 0h-70v312l7 29h63v-341z" />
    <glyph glyph-name="onehalf" unicode="&#xbd;" horiz-adv-x="850" 
d="M223 423q0 -13 17.5 -17.5t45.5 -4.5h19v-32h-240v32h26q26 0 42.5 4.5t16.5 17.5v242l10 6q-6 -17 -21 -28t-36.5 -16t-47.5 -5v45q29 1 50 5.5t36.5 14t25.5 23.5h56v-287zM703 710h75l-613 -710h-75zM687 55h-134q-1 -1 -1 -4.5t1.5 -6.5t3.5 -4q31 15 62.5 33
t60.5 37.5t52 41.5t36.5 45.5t13.5 48.5q0 33 -14.5 55t-42 33.5t-67.5 11.5q-29 0 -54 -8t-42.5 -21t-27.5 -28v-52h63v63q-7 0 -12 -6.5t-8 -15.5t-4 -19q11 19 31 33.5t48 14.5q26 0 40.5 -13.5t14.5 -45.5q0 -28 -14.5 -52.5t-40 -46.5t-58 -42.5t-67.5 -41.5v-65h268
v117h-39l-5 -39q-1 -9 -7.5 -14t-20 -7t-36.5 -2z" />
    <glyph glyph-name="threequarters" unicode="&#xbe;" horiz-adv-x="825" 
d="M180 403q-31 0 -51.5 12t-33 30t-20.5 35l-35 -25q11 -26 28.5 -47t46 -33t71.5 -12q41 0 73 11.5t50.5 34t18.5 56.5q0 26 -15 45.5t-48.5 31t-89.5 11.5l-10 -7q42 0 75.5 9.5t53 28.5t19.5 47q0 41 -36 62.5t-89 21.5q-31 0 -55.5 -8.5t-41 -21.5t-24.5 -26v-50h63v60
q-7 -1 -11.5 -6t-6.5 -13t-3 -19q11 17 29 30.5t46 13.5q24 0 40.5 -11.5t16.5 -38.5q0 -33 -21 -46t-61 -13h-28v-37h35q33 0 52 -7.5t27.5 -21.5t8.5 -33q0 -34 -21 -49t-53 -15zM708 710h75l-613 -710h-75zM476 85v55l154 201h37l-13 -31l-154 -203l2 30h268v-52h-294z
M713 0h-70v312l7 29h63v-341z" />
    <glyph glyph-name="questiondown" unicode="&#xbf;" horiz-adv-x="520" 
d="M316 154v147h-74v-113q-35 -14 -71 -34t-66.5 -47.5t-49 -63.5t-18.5 -82q0 -56 27.5 -98t77 -65.5t117.5 -23.5q51 0 93 14.5t72.5 36t45.5 42.5v93h-88v-108q10 2 17 7.5t11.5 14.5t7 21t2.5 27q-15 -24 -37.5 -44t-53 -32t-68.5 -12q-40 0 -69.5 15t-46 43.5
t-16.5 68.5q0 41 14.5 70t40.5 50.5t60 38.5t72 34zM279 523q30 0 49 -17.5t19 -45.5q0 -29 -19 -46.5t-49 -17.5q-31 0 -50 17.5t-19 46.5q0 28 19 45.5t50 17.5z" />
    <glyph glyph-name="Agrave" unicode="&#xc0;" horiz-adv-x="699" 
d="M186 300h301l1 -56h-308zM322 672l16 -30l-198 -577q0 -5 13 -9.5t32.5 -6.5t38.5 -2h15v-47h-231v47h5q28 0 44 7.5t26 35.5l214 620h102l222 -635q7 -19 23.5 -23.5t41.5 -4.5h5v-47h-260v47h17q19 0 39 1t33.5 3.5t13.5 5.5zM348 875q-9 13 -19 22t-20 14t-23 5
q-19 0 -30.5 -12.5t-11.5 -28.5q0 -12 7 -23.5t20.5 -21.5t30.5 -20l82 -44h28v22z" />
    <glyph glyph-name="Aacute" unicode="&#xc1;" horiz-adv-x="699" 
d="M186 300h301l1 -56h-308zM322 672l16 -30l-198 -577q0 -5 13 -9.5t32.5 -6.5t38.5 -2h15v-47h-231v47h5q28 0 44 7.5t26 35.5l214 620h102l222 -635q7 -19 23.5 -23.5t41.5 -4.5h5v-47h-260v47h17q19 0 39 1t33.5 3.5t13.5 5.5zM382 875l-64 -87v-22h28l82 44
q18 10 31 20t20 21.5t7 23.5q0 16 -11.5 28.5t-30.5 12.5q-12 0 -23 -5t-20 -14t-19 -22z" />
    <glyph glyph-name="Acircumflex" unicode="&#xc2;" horiz-adv-x="699" 
d="M186 300h301l1 -56h-308zM322 672l16 -30l-198 -577q0 -5 13 -9.5t32.5 -6.5t38.5 -2h15v-47h-231v47h5q28 0 44 7.5t26 35.5l214 620h102l222 -635q7 -19 23.5 -23.5t41.5 -4.5h5v-47h-260v47h17q19 0 39 1t33.5 3.5t13.5 5.5zM399 905h-90l-108 -134v-13h40l113 89h-10
l113 -89h50v13z" />
    <glyph glyph-name="Atilde" unicode="&#xc3;" horiz-adv-x="699" 
d="M186 300h301l1 -56h-308zM322 672l16 -30l-198 -577q0 -5 13 -9.5t32.5 -6.5t38.5 -2h15v-47h-231v47h5q28 0 44 7.5t26 35.5l214 620h102l222 -635q7 -19 23.5 -23.5t41.5 -4.5h5v-47h-260v47h17q19 0 39 1t33.5 3.5t13.5 5.5zM411 765q-21 0 -37 5.5t-29.5 13.5
t-24.5 15.5t-21 13t-21 5.5q-12 0 -21 -7t-14.5 -19.5t-9.5 -30.5l-50 18q7 35 20.5 58.5t34.5 35.5t50 12q19 0 34.5 -5.5t28.5 -13t24.5 -15t23 -13t23.5 -5.5q13 0 22 7t15.5 19.5t11.5 29.5l50 -19q-7 -33 -22.5 -56.5t-37.5 -36t-50 -12.5z" />
    <glyph glyph-name="Adieresis" unicode="&#xc4;" horiz-adv-x="699" 
d="M186 300h301l1 -56h-308zM322 672l16 -30l-198 -577q0 -5 13 -9.5t32.5 -6.5t38.5 -2h15v-47h-231v47h5q28 0 44 7.5t26 35.5l214 620h102l222 -635q7 -19 23.5 -23.5t41.5 -4.5h5v-47h-260v47h17q19 0 39 1t33.5 3.5t13.5 5.5zM301 844q0 -28 -17.5 -44.5t-43.5 -16.5
t-43.5 16.5t-17.5 44.5t17.5 44t43.5 16t43.5 -16t17.5 -44zM519 844q0 -28 -17.5 -44.5t-43.5 -16.5t-43.5 16.5t-17.5 44.5t17.5 44t43.5 16t43.5 -16t17.5 -44z" />
    <glyph glyph-name="Aring" unicode="&#xc5;" horiz-adv-x="699" 
d="M186 300h301l1 -56h-308zM322 672l16 -30l-198 -577q0 -5 13 -9.5t32.5 -6.5t38.5 -2h15v-47h-231v47h5q28 0 44 7.5t26 35.5l214 620h102l222 -635q7 -19 23.5 -23.5t41.5 -4.5h5v-47h-260v47h17q19 0 39 1t33.5 3.5t13.5 5.5zM292 858q0 -31 16.5 -47t40.5 -16t40.5 16
t16.5 47q0 32 -16.5 47.5t-40.5 15.5t-40.5 -15.5t-16.5 -47.5zM463 858q0 -46 -33.5 -72t-80.5 -26t-80.5 26t-33.5 72q0 31 15.5 53t41.5 33.5t57 11.5q32 0 57.5 -11.5t41 -33.5t15.5 -53z" />
    <glyph glyph-name="AE" unicode="&#xc6;" horiz-adv-x="987" 
d="M260 300h247v-56h-279zM549 389q42 2 83.5 3t83 2.5t82.5 2.5v-68q-41 2 -82.5 3t-83 2.5t-83.5 2.5v52zM391 0v47h9q19 0 39 1t34 3.5t14 5.5v597v0l-344 -589q0 -5 13 -9.5t32.5 -6.5t38.5 -2h15v-47h-232v47h5q19 0 30.5 3.5t20.5 13t19 26.5l324 543q0 12 -14.5 18.5
t-36.5 9t-47 2.5h-11v47h597v-192h-56l-9 90q-2 18 -15 27.5t-40 12.5t-70 3h-128v-592h157q32 0 55.5 1.5t38.5 6.5t22.5 13.5t8.5 21.5l9 115h57v-217h-536z" />
    <glyph glyph-name="Ccedilla" unicode="&#xc7;" horiz-adv-x="717" 
d="M380 658q-48 0 -90.5 -21.5t-74.5 -61.5t-50 -95.5t-18 -124.5t17.5 -124.5t49.5 -95.5t78 -61.5t103 -21.5q59 0 104 27t75.5 73.5t44.5 103.5l61 -23q-17 -71 -56.5 -126t-99 -86t-135.5 -31q-75 0 -137.5 26.5t-108.5 75t-71 115.5t-25 148q0 80 26 147t72 116
t106 75.5t128 26.5q69 0 118 -20.5t81 -58t48 -89.5h-37l16 158h60v-214h-67q-16 49 -45 85t-71.5 56.5t-101.5 20.5zM374 4l-41 -71l-9 9q38 2 68 -8t47.5 -29.5t17.5 -48.5q0 -24 -9.5 -41.5t-26.5 -28.5t-39 -16.5t-47 -5.5q-42 0 -70.5 15t-45.5 40l36 34
q9 -11 20.5 -21t26 -16t31.5 -6q23 0 36 11t13 33q0 23 -16 37t-57 14h-26l29 99h62z" />
    <glyph glyph-name="Egrave" unicode="&#xc8;" horiz-adv-x="641" 
d="M581 217v-217h-536v47h11q37 0 61 7t24 29v544q0 22 -24 29t-61 7h-11v47h506v-192h-56l-9 90q-2 18 -15 27.5t-40 12.5t-70 3h-128v-592h157q32 0 55.5 1.5t38.5 6.5t22.5 13.5t8.5 21.5l9 115h57zM203 390q42 2 83.5 3t83 2.5t82.5 2.5v-70q-41 2 -82.5 3.5l-83 3
t-83.5 2.5v53zM322 875q-9 13 -19 22t-20 14t-23 5q-19 0 -30.5 -12.5t-11.5 -28.5q0 -12 7 -23.5t20.5 -21.5t30.5 -20l82 -44h28v22z" />
    <glyph glyph-name="Eacute" unicode="&#xc9;" horiz-adv-x="641" 
d="M581 217v-217h-536v47h11q37 0 61 7t24 29v544q0 22 -24 29t-61 7h-11v47h506v-192h-56l-9 90q-2 18 -15 27.5t-40 12.5t-70 3h-128v-592h157q32 0 55.5 1.5t38.5 6.5t22.5 13.5t8.5 21.5l9 115h57zM203 390q42 2 83.5 3t83 2.5t82.5 2.5v-70q-41 2 -82.5 3.5l-83 3
t-83.5 2.5v53zM346 875l-64 -87v-22h28l82 44q18 10 31 20t20 21.5t7 23.5q0 16 -11.5 28.5t-30.5 12.5q-12 0 -23 -5t-20 -14t-19 -22z" />
    <glyph glyph-name="Ecircumflex" unicode="&#xca;" horiz-adv-x="641" 
d="M581 217v-217h-536v47h11q37 0 61 7t24 29v544q0 22 -24 29t-61 7h-11v47h506v-192h-56l-9 90q-2 18 -15 27.5t-40 12.5t-70 3h-128v-592h157q32 0 55.5 1.5t38.5 6.5t22.5 13.5t8.5 21.5l9 115h57zM203 390q42 2 83.5 3t83 2.5t82.5 2.5v-70q-41 2 -82.5 3.5l-83 3
t-83.5 2.5v53zM363 905h-90l-108 -134v-13h40l113 89h-10l113 -89h50v13z" />
    <glyph glyph-name="Edieresis" unicode="&#xcb;" horiz-adv-x="641" 
d="M581 217v-217h-536v47h11q37 0 61 7t24 29v544q0 22 -24 29t-61 7h-11v47h506v-192h-56l-9 90q-2 18 -15 27.5t-40 12.5t-70 3h-128v-592h157q32 0 55.5 1.5t38.5 6.5t22.5 13.5t8.5 21.5l9 115h57zM203 390q42 2 83.5 3t83 2.5t82.5 2.5v-70q-41 2 -82.5 3.5l-83 3
t-83.5 2.5v53zM265 844q0 -28 -17.5 -44.5t-43.5 -16.5t-43.5 16.5t-17.5 44.5t17.5 44t43.5 16t43.5 -16t17.5 -44zM483 844q0 -28 -17.5 -44.5t-43.5 -16.5t-43.5 16.5t-17.5 44.5t17.5 44t43.5 16t43.5 -16t17.5 -44z" />
    <glyph glyph-name="Igrave" unicode="&#xcc;" horiz-adv-x="375" 
d="M141 83v544q0 22 -24 29t-61 7h-11v47h285v-47h-11q-37 0 -61 -7t-24 -29v-544q0 -22 24 -29t61 -7h11v-47h-285v47h11q37 0 61 7t24 29zM196 875q-9 13 -19 22t-20 14t-23 5q-19 0 -30.5 -12.5t-11.5 -28.5q0 -12 7 -23.5t20.5 -21.5t30.5 -20l82 -44h28v22z" />
    <glyph glyph-name="Iacute" unicode="&#xcd;" horiz-adv-x="375" 
d="M141 83v544q0 22 -24 29t-61 7h-11v47h285v-47h-11q-37 0 -61 -7t-24 -29v-544q0 -22 24 -29t61 -7h11v-47h-285v47h11q37 0 61 7t24 29zM220 875l-64 -87v-22h28l82 44q18 10 31 20t20 21.5t7 23.5q0 16 -11.5 28.5t-30.5 12.5q-12 0 -23 -5t-20 -14t-19 -22z" />
    <glyph glyph-name="Icircumflex" unicode="&#xce;" horiz-adv-x="375" 
d="M141 83v544q0 22 -24 29t-61 7h-11v47h285v-47h-11q-37 0 -61 -7t-24 -29v-544q0 -22 24 -29t61 -7h11v-47h-285v47h11q37 0 61 7t24 29zM237 905h-90l-108 -134v-13h40l113 89h-10l113 -89h50v13z" />
    <glyph glyph-name="Idieresis" unicode="&#xcf;" horiz-adv-x="375" 
d="M141 83v544q0 22 -24 29t-61 7h-11v47h285v-47h-11q-37 0 -61 -7t-24 -29v-544q0 -22 24 -29t61 -7h11v-47h-285v47h11q37 0 61 7t24 29zM139 844q0 -28 -17.5 -44.5t-43.5 -16.5t-43.5 16.5t-17.5 44.5t17.5 44t43.5 16t43.5 -16t17.5 -44zM357 844q0 -28 -17.5 -44.5
t-43.5 -16.5t-43.5 16.5t-17.5 44.5t17.5 44t43.5 16t43.5 -16t17.5 -44z" />
    <glyph glyph-name="Eth" unicode="&#xd0;" horiz-adv-x="773" 
d="M45 381h390v-52h-390v52zM45 663v47h306q84 0 152.5 -24.5t118.5 -70.5t77 -111.5t27 -146.5t-27 -146.5t-77 -113t-118.5 -72.5t-152.5 -25h-306v47h12q37 0 61 7t24 29v544q0 20 -24 28t-61 8h-12zM351 651h-117v-592h117q64 0 114.5 20t86.5 58.5t55 94t19 125.5
t-19 125t-55 92.5t-86.5 57t-114.5 19.5z" />
    <glyph glyph-name="Ntilde" unicode="&#xd1;" horiz-adv-x="800" 
d="M45 0v47h11q25 0 44 4t30 13.5t11 23.5v539q0 15 -11 22.5t-30 10.5t-44 3h-11v47h223l345 -617l-11 -3v558q0 4 -14 7t-35 5.5t-43 2.5h-14v47h267v-47h-12q-24 0 -43.5 -4t-30.5 -13t-11 -24v-622h-96l-376 670l12 4v-612q0 -3 14 -6.5t35.5 -6t42.5 -2.5h14v-47h-267z
M466 765q-21 0 -37 5.5t-29.5 13.5t-24.5 15.5t-21 13t-21 5.5q-12 0 -21 -7t-14.5 -19.5t-9.5 -30.5l-50 18q7 35 20.5 58.5t34.5 35.5t50 12q19 0 34.5 -5.5t28.5 -13t24.5 -15t23 -13t23.5 -5.5q13 0 22 7t15.5 19.5t11.5 29.5l50 -19q-7 -33 -22.5 -56.5t-37.5 -36
t-50 -12.5z" />
    <glyph glyph-name="Ograve" unicode="&#xd2;" horiz-adv-x="794" 
d="M397 -10q-74 0 -137.5 26.5t-111.5 75t-74.5 115.5t-26.5 148t26.5 148t74.5 115.5t111.5 75t137.5 26.5t137.5 -26.5t111.5 -75t74.5 -115.5t26.5 -148t-26.5 -148t-74.5 -115.5t-111.5 -75t-137.5 -26.5zM397 50q54 0 100 21t79.5 61t52 96.5t18.5 126.5t-18.5 126.5
t-52 96.5t-79.5 61t-100 21t-100 -21t-79.5 -61t-52 -96.5t-18.5 -126.5t18.5 -126.5t52 -96.5t79.5 -61t100 -21zM406 875q-9 13 -19 22t-20 14t-23 5q-19 0 -30.5 -12.5t-11.5 -28.5q0 -12 7 -23.5t20.5 -21.5t30.5 -20l82 -44h28v22z" />
    <glyph glyph-name="Oacute" unicode="&#xd3;" horiz-adv-x="794" 
d="M397 -10q-74 0 -137.5 26.5t-111.5 75t-74.5 115.5t-26.5 148t26.5 148t74.5 115.5t111.5 75t137.5 26.5t137.5 -26.5t111.5 -75t74.5 -115.5t26.5 -148t-26.5 -148t-74.5 -115.5t-111.5 -75t-137.5 -26.5zM397 50q54 0 100 21t79.5 61t52 96.5t18.5 126.5t-18.5 126.5
t-52 96.5t-79.5 61t-100 21t-100 -21t-79.5 -61t-52 -96.5t-18.5 -126.5t18.5 -126.5t52 -96.5t79.5 -61t100 -21zM430 875l-64 -87v-22h28l82 44q18 10 31 20t20 21.5t7 23.5q0 16 -11.5 28.5t-30.5 12.5q-12 0 -23 -5t-20 -14t-19 -22z" />
    <glyph glyph-name="Ocircumflex" unicode="&#xd4;" horiz-adv-x="794" 
d="M397 -10q-74 0 -137.5 26.5t-111.5 75t-74.5 115.5t-26.5 148t26.5 148t74.5 115.5t111.5 75t137.5 26.5t137.5 -26.5t111.5 -75t74.5 -115.5t26.5 -148t-26.5 -148t-74.5 -115.5t-111.5 -75t-137.5 -26.5zM397 50q54 0 100 21t79.5 61t52 96.5t18.5 126.5t-18.5 126.5
t-52 96.5t-79.5 61t-100 21t-100 -21t-79.5 -61t-52 -96.5t-18.5 -126.5t18.5 -126.5t52 -96.5t79.5 -61t100 -21zM447 905h-90l-108 -134v-13h40l113 89h-10l113 -89h50v13z" />
    <glyph glyph-name="Otilde" unicode="&#xd5;" horiz-adv-x="794" 
d="M397 -10q-74 0 -137.5 26.5t-111.5 75t-74.5 115.5t-26.5 148t26.5 148t74.5 115.5t111.5 75t137.5 26.5t137.5 -26.5t111.5 -75t74.5 -115.5t26.5 -148t-26.5 -148t-74.5 -115.5t-111.5 -75t-137.5 -26.5zM397 50q54 0 100 21t79.5 61t52 96.5t18.5 126.5t-18.5 126.5
t-52 96.5t-79.5 61t-100 21t-100 -21t-79.5 -61t-52 -96.5t-18.5 -126.5t18.5 -126.5t52 -96.5t79.5 -61t100 -21zM459 765q-21 0 -37 5.5t-29.5 13.5t-24.5 15.5t-21 13t-21 5.5q-12 0 -21 -7t-14.5 -19.5t-9.5 -30.5l-50 18q7 35 20.5 58.5t34.5 35.5t50 12
q19 0 34.5 -5.5t28.5 -13t24.5 -15t23 -13t23.5 -5.5q13 0 22 7t15.5 19.5t11.5 29.5l50 -19q-7 -33 -22.5 -56.5t-37.5 -36t-50 -12.5z" />
    <glyph glyph-name="Odieresis" unicode="&#xd6;" horiz-adv-x="794" 
d="M397 -10q-74 0 -137.5 26.5t-111.5 75t-74.5 115.5t-26.5 148t26.5 148t74.5 115.5t111.5 75t137.5 26.5t137.5 -26.5t111.5 -75t74.5 -115.5t26.5 -148t-26.5 -148t-74.5 -115.5t-111.5 -75t-137.5 -26.5zM397 50q54 0 100 21t79.5 61t52 96.5t18.5 126.5t-18.5 126.5
t-52 96.5t-79.5 61t-100 21t-100 -21t-79.5 -61t-52 -96.5t-18.5 -126.5t18.5 -126.5t52 -96.5t79.5 -61t100 -21zM349 844q0 -28 -17.5 -44.5t-43.5 -16.5t-43.5 16.5t-17.5 44.5t17.5 44t43.5 16t43.5 -16t17.5 -44zM567 844q0 -28 -17.5 -44.5t-43.5 -16.5t-43.5 16.5
t-17.5 44.5t17.5 44t43.5 16t43.5 -16t17.5 -44z" />
    <glyph glyph-name="multiply" unicode="&#xd7;" 
d="M87 194l339 340l46 -47l-338 -340zM88 487l47 47l338 -340l-46 -47z" />
    <glyph glyph-name="Oslash" unicode="&#xd8;" horiz-adv-x="793" 
d="M397 660q-55 0 -100.5 -21t-79 -61t-52 -96.5t-18.5 -126.5q0 -78 17 -135t49.5 -95t79 -56.5t104.5 -18.5q54 0 100 21t79.5 61t52 96.5t18.5 126.5q0 78 -17 135t-49.5 95t-79 56.5t-104.5 18.5zM397 -10q-74 0 -137.5 26.5t-111.5 75t-74.5 115.5t-26.5 148t26.5 148
t74.5 115.5t111.5 75t137.5 26.5t137.5 -26.5t111.5 -75t74.5 -115.5t26.5 -148t-26.5 -148t-74.5 -115.5t-111.5 -75t-137.5 -26.5zM8 -15l683 740h84l-683 -740h-84z" />
    <glyph glyph-name="Ugrave" unicode="&#xd9;" horiz-adv-x="807" 
d="M232 271q0 -60 14 -101t39 -65t59 -35t75 -11q40 0 73.5 11t58.5 35t38.5 65t13.5 101v370q0 5 -8 9t-21 7t-28.5 4.5t-29.5 1.5h-9v47h257v-47h-11q-24 0 -43.5 -4.5t-30.5 -14.5t-11 -27v-346q0 -75 -20 -128.5t-56 -87.5t-83 -49.5t-101 -15.5q-58 0 -107 16
t-85.5 49.5t-56.5 87t-20 128.5v356q0 22 -24 29t-61 7h-11v47h285v-47h-9q-14 0 -29.5 -0.5t-28.5 -2t-21 -3t-8 -4.5v-382zM412 875q-9 13 -19 22t-20 14t-23 5q-19 0 -30.5 -12.5t-11.5 -28.5q0 -12 7 -23.5t20.5 -21.5t30.5 -20l82 -44h28v22z" />
    <glyph glyph-name="Uacute" unicode="&#xda;" horiz-adv-x="807" 
d="M232 271q0 -60 14 -101t39 -65t59 -35t75 -11q40 0 73.5 11t58.5 35t38.5 65t13.5 101v370q0 5 -8 9t-21 7t-28.5 4.5t-29.5 1.5h-9v47h257v-47h-11q-24 0 -43.5 -4.5t-30.5 -14.5t-11 -27v-346q0 -75 -20 -128.5t-56 -87.5t-83 -49.5t-101 -15.5q-58 0 -107 16
t-85.5 49.5t-56.5 87t-20 128.5v356q0 22 -24 29t-61 7h-11v47h285v-47h-9q-14 0 -29.5 -0.5t-28.5 -2t-21 -3t-8 -4.5v-382zM436 875l-64 -87v-22h28l82 44q18 10 31 20t20 21.5t7 23.5q0 16 -11.5 28.5t-30.5 12.5q-12 0 -23 -5t-20 -14t-19 -22z" />
    <glyph glyph-name="Ucircumflex" unicode="&#xdb;" horiz-adv-x="807" 
d="M232 271q0 -60 14 -101t39 -65t59 -35t75 -11q40 0 73.5 11t58.5 35t38.5 65t13.5 101v370q0 5 -8 9t-21 7t-28.5 4.5t-29.5 1.5h-9v47h257v-47h-11q-24 0 -43.5 -4.5t-30.5 -14.5t-11 -27v-346q0 -75 -20 -128.5t-56 -87.5t-83 -49.5t-101 -15.5q-58 0 -107 16
t-85.5 49.5t-56.5 87t-20 128.5v356q0 22 -24 29t-61 7h-11v47h285v-47h-9q-14 0 -29.5 -0.5t-28.5 -2t-21 -3t-8 -4.5v-382zM453 905h-90l-108 -134v-13h40l113 89h-10l113 -89h50v13z" />
    <glyph glyph-name="Udieresis" unicode="&#xdc;" horiz-adv-x="807" 
d="M232 271q0 -60 14 -101t39 -65t59 -35t75 -11q40 0 73.5 11t58.5 35t38.5 65t13.5 101v370q0 5 -8 9t-21 7t-28.5 4.5t-29.5 1.5h-9v47h257v-47h-11q-24 0 -43.5 -4.5t-30.5 -14.5t-11 -27v-346q0 -75 -20 -128.5t-56 -87.5t-83 -49.5t-101 -15.5q-58 0 -107 16
t-85.5 49.5t-56.5 87t-20 128.5v356q0 22 -24 29t-61 7h-11v47h285v-47h-9q-14 0 -29.5 -0.5t-28.5 -2t-21 -3t-8 -4.5v-382zM355 844q0 -28 -17.5 -44.5t-43.5 -16.5t-43.5 16.5t-17.5 44.5t17.5 44t43.5 16t43.5 -16t17.5 -44zM573 844q0 -28 -17.5 -44.5t-43.5 -16.5
t-43.5 16.5t-17.5 44.5t17.5 44t43.5 16t43.5 -16t17.5 -44z" />
    <glyph glyph-name="Yacute" unicode="&#xdd;" horiz-adv-x="683" 
d="M297 315l14 -45l-218 367q-8 13 -19 18.5t-25.5 6.5t-31.5 1h-5v47h264v-47h-17q-18 0 -37 -1t-32.5 -3t-13.5 -6l195 -333l-27 3l182 322q0 6 -13 10t-32 6t-38 2h-15v47h243v-47h-5q-17 0 -32.5 -2.5t-28.5 -11t-24 -27.5l-203 -354l12 47v-232q0 -22 24 -29t61 -7h16
v-47h-295v47h16q37 0 61 7t24 29v232zM384 875l-64 -87v-22h28l82 44q18 10 31 20t20 21.5t7 23.5q0 16 -11.5 28.5t-30.5 12.5q-12 0 -23 -5t-20 -14t-19 -22z" />
    <glyph glyph-name="Thorn" unicode="&#xde;" horiz-adv-x="646" 
d="M338 710h-293v-47h11q37 0 61 -7t24 -29v-544q0 -22 -24 -29t-61 -7h-11v-47h293v47h-27q-13 0 -26.5 0.5t-25 2t-18.5 3t-7 4.5v596q0 3 7 4.5t18.5 3t25 2t26.5 0.5h27v47zM596 363q0 62 -30 107t-86 70t-135 25h-155l-16 -59h169q52 0 85.5 -17t50.5 -49t17 -77
t-17 -78.5t-52 -52.5t-89 -19h-164v-59h166q80 0 137 26.5t88 74t31 108.5z" />
    <glyph glyph-name="germandbls" unicode="&#xdf;" horiz-adv-x="624" 
d="M38 508h139v-57h-139v57zM307 415l57 27v-26l-14 18q57 -12 101 -35.5t73.5 -56.5t44.5 -73t15 -84q0 -49 -15 -85.5t-42 -61t-63 -36.5t-77 -12q-33 0 -60.5 7t-38.5 14v60q4 -1 18.5 -7t34.5 -11.5t40 -5.5q34 0 58.5 15.5t37.5 46t13 76.5q0 45 -15.5 83.5t-43 67.5
t-63.5 45t-78 16h-2v52q33 4 60 15.5t46.5 29.5t30.5 43.5t11 56.5q0 50 -26.5 76t-72.5 26q-30 0 -54 -10t-38 -37t-14 -78v-571h-188v45h11q41 0 64.5 7t23.5 29v490q0 70 29 109t74.5 55.5t92.5 16.5q58 0 99.5 -19.5t64 -52.5t22.5 -76q0 -37 -18 -69.5t-49 -58
t-69.5 -41.5t-80.5 -20z" />
    <glyph glyph-name="agrave" unicode="&#xe0;" horiz-adv-x="542" 
d="M385 308v-50q-50 -5 -89 -13t-67.5 -19t-46.5 -25.5t-27 -33.5t-9 -42q0 -24 11 -42t31 -28t46 -10q35 0 62.5 17t49 48t37.5 73v-71q-15 -37 -40 -64.5t-58 -42.5t-75 -15q-43 0 -78.5 16t-57 46.5t-21.5 71.5t21 71.5t63 52.5t104 36.5t144 23.5zM368 0v107l-10 3v240
q0 42 -11.5 66.5t-33.5 34.5t-54 10q-49 0 -80.5 -20t-50.5 -47q-2 12 1 22t9 18t14.5 14t18.5 10v-103h-87v103q15 12 40.5 26t61.5 24t79 10q35 0 67 -8t58 -26.5t41 -49t15 -75.5v-278q0 -14 11 -22t29.5 -11t42.5 -3v0v-45h-161zM279 710l45 -121v-20h-30l-84 95
q-9 10 -15.5 20t-10 20t-3.5 19q0 17 11.5 28t30.5 11q13 0 23 -5.5t18.5 -17t14.5 -29.5z" />
    <glyph glyph-name="aacute" unicode="&#xe1;" horiz-adv-x="542" 
d="M385 308v-50q-50 -5 -89 -13t-67.5 -19t-46.5 -25.5t-27 -33.5t-9 -42q0 -24 11 -42t31 -28t46 -10q35 0 62.5 17t49 48t37.5 73v-71q-15 -37 -40 -64.5t-58 -42.5t-75 -15q-43 0 -78.5 16t-57 46.5t-21.5 71.5t21 71.5t63 52.5t104 36.5t144 23.5zM368 0v107l-10 3v240
q0 42 -11.5 66.5t-33.5 34.5t-54 10q-49 0 -80.5 -20t-50.5 -47q-2 12 1 22t9 18t14.5 14t18.5 10v-103h-87v103q15 12 40.5 26t61.5 24t79 10q35 0 67 -8t58 -26.5t41 -49t15 -75.5v-278q0 -14 11 -22t29.5 -11t42.5 -3v0v-45h-161zM281 710q7 18 15 29.5t18.5 17t22.5 5.5
q19 0 30.5 -11t11.5 -28q0 -9 -3.5 -19t-10 -20t-15.5 -20l-84 -95h-30v20z" />
    <glyph glyph-name="acircumflex" unicode="&#xe2;" horiz-adv-x="542" 
d="M385 308v-50q-50 -5 -89 -13t-67.5 -19t-46.5 -25.5t-27 -33.5t-9 -42q0 -24 11 -42t31 -28t46 -10q35 0 62.5 17t49 48t37.5 73v-71q-15 -37 -40 -64.5t-58 -42.5t-75 -15q-43 0 -78.5 16t-57 46.5t-21.5 71.5t21 71.5t63 52.5t104 36.5t144 23.5zM368 0v107l-10 3v240
q0 42 -11.5 66.5t-33.5 34.5t-54 10q-49 0 -80.5 -20t-50.5 -47q-2 12 1 22t9 18t14.5 14t18.5 10v-103h-87v103q15 12 40.5 26t61.5 24t79 10q35 0 67 -8t58 -26.5t41 -49t15 -75.5v-278q0 -14 11 -22t29.5 -11t42.5 -3v0v-45h-161zM305 741h-76l-109 -157v-10h35l117 114
h-20l117 -114h45v10z" />
    <glyph glyph-name="atilde" unicode="&#xe3;" horiz-adv-x="542" 
d="M385 308v-50q-50 -5 -89 -13t-67.5 -19t-46.5 -25.5t-27 -33.5t-9 -42q0 -24 11 -42t31 -28t46 -10q35 0 62.5 17t49 48t37.5 73v-71q-15 -37 -40 -64.5t-58 -42.5t-75 -15q-43 0 -78.5 16t-57 46.5t-21.5 71.5t21 71.5t63 52.5t104 36.5t144 23.5zM368 0v107l-10 3v240
q0 42 -11.5 66.5t-33.5 34.5t-54 10q-49 0 -80.5 -20t-50.5 -47q-2 12 1 22t9 18t14.5 14t18.5 10v-103h-87v103q15 12 40.5 26t61.5 24t79 10q35 0 67 -8t58 -26.5t41 -49t15 -75.5v-278q0 -14 11 -22t29.5 -11t42.5 -3v0v-45h-161zM325 597q-20 0 -36 7t-29 18t-24 21.5
t-20.5 17.5t-19.5 7q-19 0 -29.5 -19.5t-15.5 -54.5l-47 16q7 42 19.5 69.5t32.5 41.5t48 14q18 0 33 -7t28 -17.5t24.5 -21t22.5 -17.5t22 -7q13 0 21 9t14 25.5t11 38.5l47 -17q-8 -41 -22 -68.5t-33.5 -41.5t-46.5 -14z" />
    <glyph glyph-name="adieresis" unicode="&#xe4;" horiz-adv-x="542" 
d="M385 308v-50q-50 -5 -89 -13t-67.5 -19t-46.5 -25.5t-27 -33.5t-9 -42q0 -24 11 -42t31 -28t46 -10q35 0 62.5 17t49 48t37.5 73v-71q-15 -37 -40 -64.5t-58 -42.5t-75 -15q-43 0 -78.5 16t-57 46.5t-21.5 71.5t21 71.5t63 52.5t104 36.5t144 23.5zM368 0v107l-10 3v240
q0 42 -11.5 66.5t-33.5 34.5t-54 10q-49 0 -80.5 -20t-50.5 -47q-2 12 1 22t9 18t14.5 14t18.5 10v-103h-87v103q15 12 40.5 26t61.5 24t79 10q35 0 67 -8t58 -26.5t41 -49t15 -75.5v-278q0 -14 11 -22t29.5 -11t42.5 -3v0v-45h-161zM221 669q0 -28 -17.5 -44.5t-43.5 -16.5
t-43.5 16.5t-17.5 44.5t17.5 44t43.5 16t43.5 -16t17.5 -44zM439 669q0 -28 -17.5 -44.5t-43.5 -16.5t-43.5 16.5t-17.5 44.5t17.5 44t43.5 16t43.5 -16t17.5 -44z" />
    <glyph glyph-name="aring" unicode="&#xe5;" horiz-adv-x="542" 
d="M385 308v-50q-50 -5 -89 -13t-67.5 -19t-46.5 -25.5t-27 -33.5t-9 -42q0 -24 11 -42t31 -28t46 -10q35 0 62.5 17t49 48t37.5 73v-71q-15 -37 -40 -64.5t-58 -42.5t-75 -15q-43 0 -78.5 16t-57 46.5t-21.5 71.5t21 71.5t63 52.5t104 36.5t144 23.5zM368 0v107l-10 3v240
q0 42 -11.5 66.5t-33.5 34.5t-54 10q-49 0 -80.5 -20t-50.5 -47q-2 12 1 22t9 18t14.5 14t18.5 10v-103h-87v103q15 12 40.5 26t61.5 24t79 10q35 0 67 -8t58 -26.5t41 -49t15 -75.5v-278q0 -14 11 -22t29.5 -11t42.5 -3v0v-45h-161zM211 673q0 -31 16.5 -47t40.5 -16
t40.5 16t16.5 47q0 32 -16.5 47.5t-40.5 15.5t-40.5 -15.5t-16.5 -47.5zM382 673q0 -31 -15.5 -53t-41 -33.5t-57.5 -11.5q-31 0 -57 11.5t-41.5 33.5t-15.5 53t15.5 53t41.5 33.5t57 11.5q32 0 57.5 -11.5t41 -33.5t15.5 -53z" />
    <glyph glyph-name="ae" unicode="&#xe6;" horiz-adv-x="842" 
d="M394 291l-2 -51q-52 -2 -92.5 -7.5t-70 -14t-48.5 -21.5t-28.5 -30.5t-9.5 -39.5q0 -25 11.5 -42.5t32 -27t48.5 -9.5q37 0 66.5 17.5t52 48t37.5 70.5l37 -37q-15 -37 -35.5 -66t-47 -49.5t-58.5 -31t-69 -10.5q-49 0 -87 16.5t-59.5 47t-21.5 72.5q0 41 21.5 71
t65 49.5t108 30.5t149.5 14zM262 518q42 0 75 -10t56 -31t35 -53t12 -77l-75 -70v73q0 42 -12.5 66.5t-36 34.5t-57.5 10q-52 0 -83.5 -20t-50.5 -47q-2 12 1 22t9 18t14.5 14t18.5 10v-103h-87v103q15 12 40.5 26t61.5 24t79 10zM611 47q39 0 66 16.5t46.5 40t33.5 45.5
l47 -42q-19 -32 -46 -59t-63.5 -42.5t-85.5 -15.5q-69 0 -124 32t-87.5 91t-32.5 139q0 14 3 26t7.5 23t9.5 20t9 17q12 42 30.5 75t44 57t58 36.5t72.5 12.5q50 0 88.5 -17.5t65 -53t40.5 -88.5t14 -125h-384l-1 56h318l-28 -26q-1 50 -8 87t-21.5 61.5t-36 36.5t-50.5 12
q-31 0 -57 -15t-45.5 -42.5t-30 -66.5t-10.5 -88q0 -48 12 -86t33 -64t50 -39.5t63 -13.5z" />
    <glyph glyph-name="ccedilla" unicode="&#xe7;" horiz-adv-x="559" 
d="M312 47q45 0 77 17t54.5 42t38.5 48l44 -42q-22 -33 -51.5 -61t-70 -44.5t-95.5 -16.5q-79 0 -138.5 34t-92 93.5t-32.5 136.5q0 79 34.5 138t96 92.5t142.5 33.5q50 0 89.5 -11.5t67 -26.5t40.5 -28v-124h-88v113q11 -2 20 -6.5t15.5 -12t9 -17.5t0.5 -23
q-18 34 -61 56.5t-93 22.5q-59 0 -99 -26.5t-60 -73.5t-20 -107q0 -46 11.5 -84t33.5 -65.5t54 -42.5t73 -15zM307 4l-41 -71l-9 9q38 2 68 -8t47.5 -29.5t17.5 -48.5q0 -24 -9.5 -41.5t-26.5 -28.5t-39 -16.5t-47 -5.5q-42 0 -70.5 15t-45.5 40l36 34q9 -11 20.5 -21
t26 -16t31.5 -6q23 0 36 11t13 33q0 23 -16 37t-57 14h-26l29 99h62z" />
    <glyph glyph-name="egrave" unicode="&#xe8;" horiz-adv-x="549" 
d="M137 250q0 -48 12.5 -86t35.5 -64t54 -39.5t67 -13.5q41 0 70.5 16t50 39.5t34.5 46.5l47 -42q-19 -32 -47 -59t-66.5 -42.5t-90.5 -15.5q-73 0 -131.5 32t-92.5 91t-34 139q0 79 32 138.5t86.5 93.5t121.5 34q55 0 96.5 -18t70 -53.5t43.5 -89.5t15 -126h-392v56h325
l-28 -22q-1 50 -9 87t-24 61t-40 36t-57 12q-31 0 -58 -14.5t-47.5 -42t-32 -66.5t-11.5 -88zM284 710l45 -121v-20h-30l-84 95q-9 10 -15.5 20t-10 20t-3.5 19q0 17 11.5 28t30.5 11q13 0 23 -5.5t18.5 -17t14.5 -29.5z" />
    <glyph glyph-name="eacute" unicode="&#xe9;" horiz-adv-x="549" 
d="M137 250q0 -48 12.5 -86t35.5 -64t54 -39.5t67 -13.5q41 0 70.5 16t50 39.5t34.5 46.5l47 -42q-19 -32 -47 -59t-66.5 -42.5t-90.5 -15.5q-73 0 -131.5 32t-92.5 91t-34 139q0 79 32 138.5t86.5 93.5t121.5 34q55 0 96.5 -18t70 -53.5t43.5 -89.5t15 -126h-392v56h325
l-28 -22q-1 50 -9 87t-24 61t-40 36t-57 12q-31 0 -58 -14.5t-47.5 -42t-32 -66.5t-11.5 -88zM297 710q7 18 15 29.5t18.5 17t22.5 5.5q19 0 30.5 -11t11.5 -28q0 -9 -3.5 -19t-10 -20t-15.5 -20l-84 -95h-30v20z" />
    <glyph glyph-name="ecircumflex" unicode="&#xea;" horiz-adv-x="549" 
d="M137 250q0 -48 12.5 -86t35.5 -64t54 -39.5t67 -13.5q41 0 70.5 16t50 39.5t34.5 46.5l47 -42q-19 -32 -47 -59t-66.5 -42.5t-90.5 -15.5q-73 0 -131.5 32t-92.5 91t-34 139q0 79 32 138.5t86.5 93.5t121.5 34q55 0 96.5 -18t70 -53.5t43.5 -89.5t15 -126h-392v56h325
l-28 -22q-1 50 -9 87t-24 61t-40 36t-57 12q-31 0 -58 -14.5t-47.5 -42t-32 -66.5t-11.5 -88zM325 741h-76l-109 -157v-10h35l117 114h-20l117 -114h45v10z" />
    <glyph glyph-name="edieresis" unicode="&#xeb;" horiz-adv-x="549" 
d="M137 250q0 -48 12.5 -86t35.5 -64t54 -39.5t67 -13.5q41 0 70.5 16t50 39.5t34.5 46.5l47 -42q-19 -32 -47 -59t-66.5 -42.5t-90.5 -15.5q-73 0 -131.5 32t-92.5 91t-34 139q0 79 32 138.5t86.5 93.5t121.5 34q55 0 96.5 -18t70 -53.5t43.5 -89.5t15 -126h-392v56h325
l-28 -22q-1 50 -9 87t-24 61t-40 36t-57 12q-31 0 -58 -14.5t-47.5 -42t-32 -66.5t-11.5 -88zM236 669q0 -28 -17.5 -44.5t-43.5 -16.5t-43.5 16.5t-17.5 44.5t17.5 44t43.5 16t43.5 -16t17.5 -44zM454 669q0 -28 -17.5 -44.5t-43.5 -16.5t-43.5 16.5t-17.5 44.5t17.5 44
t43.5 16t43.5 -16t17.5 -44z" />
    <glyph glyph-name="igrave" unicode="&#xec;" horiz-adv-x="319" 
d="M212 508v-427q0 -22 23.5 -29t59.5 -7h1v-45h-257v45h1q36 0 59.5 7t23.5 29v334q0 22 -18 30t-56 15l-11 2v46h174zM158 710l45 -121v-20h-30l-84 95q-9 10 -15.5 20t-10 20t-3.5 19q0 17 11.5 28t30.5 11q13 0 23 -5.5t18.5 -17t14.5 -29.5z" />
    <glyph glyph-name="iacute" unicode="&#xed;" horiz-adv-x="319" 
d="M212 508v-427q0 -22 23.5 -29t59.5 -7h1v-45h-257v45h1q36 0 59.5 7t23.5 29v334q0 22 -18 30t-56 15l-11 2v46h174zM161 710q7 18 15 29.5t18.5 17t22.5 5.5q19 0 30.5 -11t11.5 -28q0 -9 -3.5 -19t-10 -20t-15.5 -20l-84 -95h-30v20z" />
    <glyph glyph-name="icircumflex" unicode="&#xee;" horiz-adv-x="319" 
d="M190 741h-76l-109 -157v-10h35l117 114h-20l117 -114h45v10zM212 508v-427q0 -22 23.5 -29t59.5 -7h1v-45h-257v45h1q36 0 59.5 7t23.5 29v334q0 22 -18 30t-56 15l-11 2v46h174z" />
    <glyph glyph-name="idieresis" unicode="&#xef;" horiz-adv-x="319" 
d="M42 608q-26 0 -43.5 16.5t-17.5 44.5t17.5 44t43.5 16t43.5 -16t17.5 -44t-17.5 -44.5t-43.5 -16.5zM260 608q-26 0 -43.5 16.5t-17.5 44.5t17.5 44t43.5 16t43.5 -16t17.5 -44t-17.5 -44.5t-43.5 -16.5zM212 508v-427q0 -22 23.5 -29t59.5 -7h1v-45h-257v45h1
q36 0 59.5 7t23.5 29v334q0 22 -18 30t-56 15l-11 2v46h174z" />
    <glyph glyph-name="eth" unicode="&#xf0;" horiz-adv-x="598" 
d="M466 409l21 -63q-27 38 -55 63.5t-58.5 38.5t-66.5 13t-66.5 -14.5t-53 -41.5t-35 -64.5t-12.5 -84.5q0 -62 19 -109.5t54.5 -73.5t84.5 -26q38 0 68 17.5t51 50t32 78t11 101.5t-10 107t-32 96t-56.5 84t-83.5 71.5t-113 57.5l31 42q97 -35 165 -84t110 -108.5
t61.5 -127t19.5 -138.5q0 -90 -32 -158.5t-89.5 -107t-132.5 -38.5q-74 0 -131 34t-89 94t-32 138q0 79 34 137.5t91 91.5t126 33q32 0 64.5 -11.5t60.5 -35.5t44 -62zM123 582l337 155l21 -50l-337 -155z" />
    <glyph glyph-name="ntilde" unicode="&#xf1;" horiz-adv-x="645" 
d="M38 0v45h2q24 0 42.5 3t29 11t10.5 22v334q0 15 -8 22.5t-24.5 12.5t-41.5 10l-10 2v46h164v-106l9 -11v-336q0 -3 12 -5.5t29 -3.5t31 -1h3v-45h-248zM622 0h-248v45h2q14 0 31 1t29.5 3.5t12.5 5.5v291q0 38 -8 62t-26.5 35.5t-50.5 11.5q-33 0 -63 -13t-56.5 -38.5
t-50.5 -63.5v68q27 37 54.5 61.5t59.5 36.5t71 12q48 0 83.5 -17t55.5 -52.5t20 -91.5v-276q0 -14 10.5 -22t29 -11t42.5 -3h2v-45zM384 597q-20 0 -36 7t-29 18t-24 21.5t-20.5 17.5t-19.5 7q-19 0 -29.5 -19.5t-15.5 -54.5l-47 16q7 42 19.5 69.5t32.5 41.5t48 14
q18 0 33 -7t28 -17.5t24.5 -21t22.5 -17.5t22 -7q13 0 21 9t14 25.5t11 38.5l47 -17q-8 -41 -22 -68.5t-33.5 -41.5t-46.5 -14z" />
    <glyph glyph-name="ograve" unicode="&#xf2;" horiz-adv-x="614" 
d="M568 254q0 -77 -33.5 -137t-92.5 -93.5t-135 -33.5t-135 33.5t-92.5 93.5t-33.5 137q0 58 19 106.5t54.5 83.5t83 54.5t104.5 19.5t104.5 -19.5t83 -54.5t54.5 -83.5t19 -106.5zM140 254q0 -62 20.5 -109t58 -72.5t88.5 -25.5q52 0 89 25.5t57.5 72.5t20.5 109
q0 63 -20.5 109.5t-57.5 72t-89 25.5q-51 0 -88.5 -25.5t-58 -72t-20.5 -109.5zM313 710l45 -121v-20h-30l-84 95q-9 10 -15.5 20t-10 20t-3.5 19q0 17 11.5 28t30.5 11q13 0 23 -5.5t18.5 -17t14.5 -29.5z" />
    <glyph glyph-name="oacute" unicode="&#xf3;" horiz-adv-x="614" 
d="M568 254q0 -77 -33.5 -137t-92.5 -93.5t-135 -33.5t-135 33.5t-92.5 93.5t-33.5 137q0 58 19 106.5t54.5 83.5t83 54.5t104.5 19.5t104.5 -19.5t83 -54.5t54.5 -83.5t19 -106.5zM140 254q0 -62 20.5 -109t58 -72.5t88.5 -25.5q52 0 89 25.5t57.5 72.5t20.5 109
q0 63 -20.5 109.5t-57.5 72t-89 25.5q-51 0 -88.5 -25.5t-58 -72t-20.5 -109.5zM326 710q7 18 15 29.5t18.5 17t22.5 5.5q19 0 30.5 -11t11.5 -28q0 -9 -3.5 -19t-10 -20t-15.5 -20l-84 -95h-30v20z" />
    <glyph glyph-name="ocircumflex" unicode="&#xf4;" horiz-adv-x="614" 
d="M568 254q0 -77 -33.5 -137t-92.5 -93.5t-135 -33.5t-135 33.5t-92.5 93.5t-33.5 137q0 58 19 106.5t54.5 83.5t83 54.5t104.5 19.5t104.5 -19.5t83 -54.5t54.5 -83.5t19 -106.5zM140 254q0 -62 20.5 -109t58 -72.5t88.5 -25.5q52 0 89 25.5t57.5 72.5t20.5 109
q0 63 -20.5 109.5t-57.5 72t-89 25.5q-51 0 -88.5 -25.5t-58 -72t-20.5 -109.5zM345 741h-76l-109 -157v-10h35l117 114h-20l117 -114h45v10z" />
    <glyph glyph-name="otilde" unicode="&#xf5;" horiz-adv-x="614" 
d="M568 254q0 -77 -33.5 -137t-92.5 -93.5t-135 -33.5t-135 33.5t-92.5 93.5t-33.5 137q0 58 19 106.5t54.5 83.5t83 54.5t104.5 19.5t104.5 -19.5t83 -54.5t54.5 -83.5t19 -106.5zM140 254q0 -62 20.5 -109t58 -72.5t88.5 -25.5q52 0 89 25.5t57.5 72.5t20.5 109
q0 63 -20.5 109.5t-57.5 72t-89 25.5q-51 0 -88.5 -25.5t-58 -72t-20.5 -109.5zM367 597q-20 0 -36 7t-29 18t-24 21.5t-20.5 17.5t-19.5 7q-19 0 -29.5 -19.5t-15.5 -54.5l-47 16q7 42 19.5 69.5t32.5 41.5t48 14q18 0 33 -7t28 -17.5t24.5 -21t22.5 -17.5t22 -7q13 0 21 9
t14 25.5t11 38.5l47 -17q-8 -41 -22 -68.5t-33.5 -41.5t-46.5 -14z" />
    <glyph glyph-name="odieresis" unicode="&#xf6;" horiz-adv-x="614" 
d="M568 254q0 -77 -33.5 -137t-92.5 -93.5t-135 -33.5t-135 33.5t-92.5 93.5t-33.5 137q0 58 19 106.5t54.5 83.5t83 54.5t104.5 19.5t104.5 -19.5t83 -54.5t54.5 -83.5t19 -106.5zM140 254q0 -62 20.5 -109t58 -72.5t88.5 -25.5q52 0 89 25.5t57.5 72.5t20.5 109
q0 63 -20.5 109.5t-57.5 72t-89 25.5q-51 0 -88.5 -25.5t-58 -72t-20.5 -109.5zM259 669q0 -28 -17.5 -44.5t-43.5 -16.5t-43.5 16.5t-17.5 44.5t17.5 44t43.5 16t43.5 -16t17.5 -44zM477 669q0 -28 -17.5 -44.5t-43.5 -16.5t-43.5 16.5t-17.5 44.5t17.5 44t43.5 16
t43.5 -16t17.5 -44z" />
    <glyph glyph-name="divide" unicode="&#xf7;" 
d="M343 506q0 -25 -18 -42t-45 -17q-28 0 -45.5 17t-17.5 42q0 27 17.5 43.5t45.5 16.5q27 0 45 -16.5t18 -43.5zM343 175q0 -26 -18 -42.5t-45 -16.5q-28 0 -45.5 16.5t-17.5 42.5q0 27 17.5 43.5t45.5 16.5q27 0 45 -16.5t18 -43.5zM487 374v-66h-414v66h414z" />
    <glyph glyph-name="oslash" unicode="&#xf8;" horiz-adv-x="614" 
d="M-2 -15l523 538h84l-523 -538h-84zM136 254q0 -64 19.5 -110.5t58 -71.5t93.5 -25q53 0 91.5 25.5t59 72t20.5 109.5q0 65 -19.5 111t-57.5 71t-94 25q-53 0 -91.5 -25.5t-59 -72t-20.5 -109.5zM46 254q0 59 19 107.5t54.5 83.5t83 54t104.5 19t104.5 -19t83 -54.5
t54.5 -83.5t19 -107q0 -78 -33.5 -137.5t-92.5 -93t-135 -33.5t-135 33.5t-92.5 93t-33.5 137.5z" />
    <glyph glyph-name="ugrave" unicode="&#xf9;" horiz-adv-x="624" 
d="M195 508v-345q0 -38 8 -62.5t26.5 -36t50.5 -11.5q33 0 62 13t55 38t49 62v-69q-26 -36 -53 -59.5t-58 -35.5t-70 -12q-47 0 -83 17t-56 53t-20 91v264q0 22 -18 30.5t-56 14.5l-12 2v46h175zM518 508v-427q0 -14 11 -22t29.5 -11t42.5 -3h3v-45h-166v104l-9 13v298
q0 22 -18.5 30.5t-57.5 13.5l-22 3v46h187zM313 710l45 -121v-20h-30l-84 95q-9 10 -15.5 20t-10 20t-3.5 19q0 17 11.5 28t30.5 11q13 0 23 -5.5t18.5 -17t14.5 -29.5z" />
    <glyph glyph-name="uacute" unicode="&#xfa;" horiz-adv-x="624" 
d="M195 508v-345q0 -38 8 -62.5t26.5 -36t50.5 -11.5q33 0 62 13t55 38t49 62v-69q-26 -36 -53 -59.5t-58 -35.5t-70 -12q-47 0 -83 17t-56 53t-20 91v264q0 22 -18 30.5t-56 14.5l-12 2v46h175zM518 508v-427q0 -14 11 -22t29.5 -11t42.5 -3h3v-45h-166v104l-9 13v298
q0 22 -18.5 30.5t-57.5 13.5l-22 3v46h187zM321 710q7 18 15 29.5t18.5 17t22.5 5.5q19 0 30.5 -11t11.5 -28q0 -9 -3.5 -19t-10 -20t-15.5 -20l-84 -95h-30v20z" />
    <glyph glyph-name="ucircumflex" unicode="&#xfb;" horiz-adv-x="624" 
d="M195 508v-345q0 -38 8 -62.5t26.5 -36t50.5 -11.5q33 0 62 13t55 38t49 62v-69q-26 -36 -53 -59.5t-58 -35.5t-70 -12q-47 0 -83 17t-56 53t-20 91v264q0 22 -18 30.5t-56 14.5l-12 2v46h175zM518 508v-427q0 -14 11 -22t29.5 -11t42.5 -3h3v-45h-166v104l-9 13v298
q0 22 -18.5 30.5t-57.5 13.5l-22 3v46h187zM340 741h-76l-109 -157v-10h35l117 114h-20l117 -114h45v10z" />
    <glyph glyph-name="udieresis" unicode="&#xfc;" horiz-adv-x="624" 
d="M195 508v-345q0 -38 8 -62.5t26.5 -36t50.5 -11.5q33 0 62 13t55 38t49 62v-69q-26 -36 -53 -59.5t-58 -35.5t-70 -12q-47 0 -83 17t-56 53t-20 91v264q0 22 -18 30.5t-56 14.5l-12 2v46h175zM518 508v-427q0 -14 11 -22t29.5 -11t42.5 -3h3v-45h-166v104l-9 13v298
q0 22 -18.5 30.5t-57.5 13.5l-22 3v46h187zM252 669q0 -28 -17.5 -44.5t-43.5 -16.5t-43.5 16.5t-17.5 44.5t17.5 44t43.5 16t43.5 -16t17.5 -44zM470 669q0 -28 -17.5 -44.5t-43.5 -16.5t-43.5 16.5t-17.5 44.5t17.5 44t43.5 16t43.5 -16t17.5 -44z" />
    <glyph glyph-name="yacute" unicode="&#xfd;" horiz-adv-x="591" 
d="M332 45l-12 -37l-51 -22l-187 442q-6 14 -16 21.5t-25 10.5t-35 3h-1v45h250v-45h-2q-20 0 -40.5 -1t-34 -2.5t-13.5 -5.5zM342 17q-27 -64 -54 -111.5t-55.5 -77.5t-60.5 -45t-70 -15q-25 0 -41.5 5.5t-27.5 12.5v80q3 -1 12.5 -5.5t24 -8.5t31.5 -4q23 0 46 7.5t47 29
t49 62.5t51 107l7 18l152 369q0 7 -12 11.5t-31 7.5t-39 3h-3v45h218v-45h-1q-15 0 -29 -3.5t-26 -13t-20 -28.5zM316 710q7 18 15 29.5t18.5 17t22.5 5.5q19 0 30.5 -11t11.5 -28q0 -9 -3.5 -19t-10 -20t-15.5 -20l-84 -95h-30v20z" />
    <glyph glyph-name="thorn" unicode="&#xfe;" horiz-adv-x="644" 
d="M298 -223h-275v45h2q24 0 42.5 3t29 11t10.5 22v784q0 15 -8 22.5t-24.5 12.5t-41.5 10l-10 2v46h173v-903q0 -3 13 -5.5t30 -3.5t30 -1h29v-45zM359 -10q-39 0 -69.5 10.5t-56 33t-49.5 57t-49 82.5l39 22q23 -49 50.5 -82t60 -49.5t71.5 -16.5q36 0 64 15t46.5 43
t28 66.5t9.5 85.5t-9.5 84.5t-27.5 64.5t-45 41t-62 14q-40 0 -73.5 -17.5t-61 -52t-50.5 -84.5l-39 23q36 64 69 105.5t71 62t90 20.5q70 0 122 -32.5t81 -91t29 -137.5t-29.5 -139t-83.5 -94t-126 -34z" />
    <glyph glyph-name="ydieresis" unicode="&#xff;" horiz-adv-x="591" 
d="M332 45l-12 -37l-51 -22l-187 442q-6 14 -16 21.5t-25 10.5t-35 3h-1v45h250v-45h-2q-20 0 -40.5 -1t-34 -2.5t-13.5 -5.5zM342 17q-27 -64 -54 -111.5t-55.5 -77.5t-60.5 -45t-70 -15q-25 0 -41.5 5.5t-27.5 12.5v80q3 -1 12.5 -5.5t24 -8.5t31.5 -4q23 0 46 7.5t47 29
t49 62.5t51 107l7 18l152 369q0 7 -12 11.5t-31 7.5t-39 3h-3v45h218v-45h-1q-15 0 -29 -3.5t-26 -13t-20 -28.5zM249 669q0 -28 -17.5 -44.5t-43.5 -16.5t-43.5 16.5t-17.5 44.5t17.5 44t43.5 16t43.5 -16t17.5 -44zM467 669q0 -28 -17.5 -44.5t-43.5 -16.5t-43.5 16.5
t-17.5 44.5t17.5 44t43.5 16t43.5 -16t17.5 -44z" />
    <glyph glyph-name="Amacron" unicode="&#x100;" horiz-adv-x="699" 
d="M186 300h301l1 -56h-308zM322 672l16 -30l-198 -577q0 -5 13 -9.5t32.5 -6.5t38.5 -2h15v-47h-231v47h5q28 0 44 7.5t26 35.5l214 620h102l222 -635q7 -19 23.5 -23.5t41.5 -4.5h5v-47h-260v47h17q19 0 39 1t33.5 3.5t13.5 5.5zM204 862h290v-65h-290v65z" />
    <glyph glyph-name="amacron" unicode="&#x101;" horiz-adv-x="542" 
d="M385 308v-50q-50 -5 -89 -13t-67.5 -19t-46.5 -25.5t-27 -33.5t-9 -42q0 -24 11 -42t31 -28t46 -10q35 0 62.5 17t49 48t37.5 73v-71q-15 -37 -40 -64.5t-58 -42.5t-75 -15q-43 0 -78.5 16t-57 46.5t-21.5 71.5t21 71.5t63 52.5t104 36.5t144 23.5zM368 0v107l-10 3v240
q0 42 -11.5 66.5t-33.5 34.5t-54 10q-49 0 -80.5 -20t-50.5 -47q-2 12 1 22t9 18t14.5 14t18.5 10v-103h-87v103q15 12 40.5 26t61.5 24t79 10q35 0 67 -8t58 -26.5t41 -49t15 -75.5v-278q0 -14 11 -22t29.5 -11t42.5 -3v0v-45h-161zM124 694h290v-65h-290v65z" />
    <glyph glyph-name="Abreve" unicode="&#x102;" horiz-adv-x="699" 
d="M186 300h301l1 -56h-308zM322 672l16 -30l-198 -577q0 -5 13 -9.5t32.5 -6.5t38.5 -2h15v-47h-231v47h5q28 0 44 7.5t26 35.5l214 620h102l222 -635q7 -19 23.5 -23.5t41.5 -4.5h5v-47h-260v47h17q19 0 39 1t33.5 3.5t13.5 5.5zM349 759q42 0 73 16t49 47.5t22 76.5h-58
q-5 -26 -15.5 -41.5t-27 -22t-40.5 -6.5t-41 6.5t-28 22t-16 41.5h-63q4 -45 22.5 -76.5t49.5 -47.5t73 -16z" />
    <glyph glyph-name="abreve" unicode="&#x103;" horiz-adv-x="542" 
d="M385 308v-50q-50 -5 -89 -13t-67.5 -19t-46.5 -25.5t-27 -33.5t-9 -42q0 -24 11 -42t31 -28t46 -10q35 0 62.5 17t49 48t37.5 73v-71q-15 -37 -40 -64.5t-58 -42.5t-75 -15q-43 0 -78.5 16t-57 46.5t-21.5 71.5t21 71.5t63 52.5t104 36.5t144 23.5zM368 0v107l-10 3v240
q0 42 -11.5 66.5t-33.5 34.5t-54 10q-49 0 -80.5 -20t-50.5 -47q-2 12 1 22t9 18t14.5 14t18.5 10v-103h-87v103q15 12 40.5 26t61.5 24t79 10q35 0 67 -8t58 -26.5t41 -49t15 -75.5v-278q0 -14 11 -22t29.5 -11t42.5 -3v0v-45h-161zM263 582q39 0 69 17t48.5 51.5
t20.5 88.5h-55q-3 -34 -13.5 -53t-27 -27t-39.5 -8t-40 8t-27 27t-14 53h-60q3 -54 21 -88.5t48.5 -51.5t68.5 -17z" />
    <glyph glyph-name="Aogonek" unicode="&#x104;" horiz-adv-x="699" 
d="M186 300h301l1 -56h-308zM566 41l31 -33q-47 -26 -72.5 -51.5t-35.5 -48.5t-10 -44q0 -25 11.5 -36.5t28.5 -11.5t30 9.5t23 18.5l29 -34q-19 -20 -42 -33t-62 -13q-47 0 -77.5 24t-30.5 67q0 26 12.5 49.5t35.5 46t56 45t73 45.5zM691 0h-139l-230 672l20 -8l-205 -599
q0 -5 13 -9.5t32.5 -6.5t38.5 -2h15v-47h-228v47h5q28 0 44 7.5t26 35.5l214 620h102l222 -635q7 -19 23.5 -23.5t41.5 -4.5h5v-47z" />
    <glyph glyph-name="aogonek" unicode="&#x105;" horiz-adv-x="542" 
d="M247 -145q0 26 12.5 49t35.5 45t56 43.5t73 42.5l31 -27q-35 -20 -58 -39t-36 -37.5t-18.5 -35.5t-5.5 -32q0 -25 11.5 -36.5t28.5 -11.5t30 9.5t23 18.5l29 -34q-19 -20 -42 -33t-62 -13q-47 0 -77.5 24t-30.5 67zM529 0h-161v107l-10 3v240q0 42 -11.5 66.5t-33.5 34.5
t-54 10q-49 0 -80.5 -20t-50.5 -47q-2 12 1 22t9 18t14.5 14t18.5 10v-103h-87v103q15 12 40.5 26t61.5 24t79 10q35 0 67 -8t58 -26.5t41 -49t15 -75.5v-278q0 -14 11 -22t29.5 -11t42.5 -3v0v-45zM53 124q0 41 21 71.5t63 52.5t104 36.5t144 23.5v-50q-50 -5 -89 -13
t-67.5 -19t-46.5 -25.5t-27 -33.5t-9 -42q0 -24 11 -42t31 -28t46 -10q35 0 62.5 17t49 48t37.5 73v-71q-15 -37 -40 -64.5t-58 -42.5t-75 -15q-43 0 -78.5 16t-57 46.5t-21.5 71.5z" />
    <glyph glyph-name="Cacute" unicode="&#x106;" horiz-adv-x="717" 
d="M380 658q-48 0 -90.5 -21.5t-74.5 -61.5t-50 -95.5t-18 -124.5t17.5 -124.5t49.5 -95.5t78 -61.5t103 -21.5q59 0 104 27t75.5 73.5t44.5 103.5l61 -23q-17 -71 -56.5 -126t-99 -86t-135.5 -31q-75 0 -137.5 26.5t-108.5 75t-71 115.5t-25 148q0 80 26 147t72 116
t106 75.5t128 26.5q69 0 118 -20.5t81 -58t48 -89.5h-37l16 158h60v-214h-67q-16 49 -45 85t-71.5 56.5t-101.5 20.5zM413 875l-64 -87v-22h28l82 44q18 10 31 20t20 21.5t7 23.5q0 16 -11.5 28.5t-30.5 12.5q-12 0 -23 -5t-20 -14t-19 -22z" />
    <glyph glyph-name="cacute" unicode="&#x107;" horiz-adv-x="559" 
d="M312 47q45 0 77 17t54.5 42t38.5 48l44 -42q-22 -33 -51.5 -61t-70 -44.5t-95.5 -16.5q-79 0 -138.5 34t-92 93.5t-32.5 136.5q0 79 34.5 138t96 92.5t142.5 33.5q50 0 89.5 -11.5t67 -26.5t40.5 -28v-124h-88v113q11 -2 20 -6.5t15.5 -12t9 -17.5t0.5 -23
q-18 34 -61 56.5t-93 22.5q-59 0 -99 -26.5t-60 -73.5t-20 -107q0 -46 11.5 -84t33.5 -65.5t54 -42.5t73 -15zM323 710q7 18 15 29.5t18.5 17t22.5 5.5q19 0 30.5 -11t11.5 -28q0 -9 -3.5 -19t-10 -20t-15.5 -20l-84 -95h-30v20z" />
    <glyph glyph-name="Ccircumflex" unicode="&#x108;" horiz-adv-x="717" 
d="M380 658q-48 0 -90.5 -21.5t-74.5 -61.5t-50 -95.5t-18 -124.5t17.5 -124.5t49.5 -95.5t78 -61.5t103 -21.5q59 0 104 27t75.5 73.5t44.5 103.5l61 -23q-17 -71 -56.5 -126t-99 -86t-135.5 -31q-75 0 -137.5 26.5t-108.5 75t-71 115.5t-25 148q0 80 26 147t72 116
t106 75.5t128 26.5q69 0 118 -20.5t81 -58t48 -89.5h-37l16 158h60v-214h-67q-16 49 -45 85t-71.5 56.5t-101.5 20.5zM429 905h-90l-108 -134v-13h40l113 89h-10l113 -89h50v13z" />
    <glyph glyph-name="ccircumflex" unicode="&#x109;" horiz-adv-x="559" 
d="M312 47q45 0 77 17t54.5 42t38.5 48l44 -42q-22 -33 -51.5 -61t-70 -44.5t-95.5 -16.5q-79 0 -138.5 34t-92 93.5t-32.5 136.5q0 79 34.5 138t96 92.5t142.5 33.5q50 0 89.5 -11.5t67 -26.5t40.5 -28v-124h-88v113q11 -2 20 -6.5t15.5 -12t9 -17.5t0.5 -23
q-18 34 -61 56.5t-93 22.5q-59 0 -99 -26.5t-60 -73.5t-20 -107q0 -46 11.5 -84t33.5 -65.5t54 -42.5t73 -15zM341 741h-76l-109 -157v-10h35l117 114h-20l117 -114h45v10z" />
    <glyph glyph-name="Cdotaccent" unicode="&#x10a;" horiz-adv-x="717" 
d="M380 658q-48 0 -90.5 -21.5t-74.5 -61.5t-50 -95.5t-18 -124.5t17.5 -124.5t49.5 -95.5t78 -61.5t103 -21.5q59 0 104 27t75.5 73.5t44.5 103.5l61 -23q-17 -71 -56.5 -126t-99 -86t-135.5 -31q-75 0 -137.5 26.5t-108.5 75t-71 115.5t-25 148q0 80 26 147t72 116
t106 75.5t128 26.5q69 0 118 -20.5t81 -58t48 -89.5h-37l16 158h60v-214h-67q-16 49 -45 85t-71.5 56.5t-101.5 20.5zM388 783q-26 0 -43.5 16.5t-17.5 44.5t17.5 44t43.5 16t43.5 -16t17.5 -44t-17.5 -44.5t-43.5 -16.5z" />
    <glyph glyph-name="cdotaccent" unicode="&#x10b;" horiz-adv-x="559" 
d="M312 47q45 0 77 17t54.5 42t38.5 48l44 -42q-22 -33 -51.5 -61t-70 -44.5t-95.5 -16.5q-79 0 -138.5 34t-92 93.5t-32.5 136.5q0 79 34.5 138t96 92.5t142.5 33.5q50 0 89.5 -11.5t67 -26.5t40.5 -28v-124h-88v113q11 -2 20 -6.5t15.5 -12t9 -17.5t0.5 -23
q-18 34 -61 56.5t-93 22.5q-59 0 -99 -26.5t-60 -73.5t-20 -107q0 -46 11.5 -84t33.5 -65.5t54 -42.5t73 -15zM307 622q-26 0 -43.5 16.5t-17.5 44.5t17.5 44t43.5 16t43.5 -16t17.5 -44t-17.5 -44.5t-43.5 -16.5z" />
    <glyph glyph-name="Ccaron" unicode="&#x10c;" horiz-adv-x="717" 
d="M380 658q-48 0 -90.5 -21.5t-74.5 -61.5t-50 -95.5t-18 -124.5t17.5 -124.5t49.5 -95.5t78 -61.5t103 -21.5q59 0 104 27t75.5 73.5t44.5 103.5l61 -23q-17 -71 -56.5 -126t-99 -86t-135.5 -31q-75 0 -137.5 26.5t-108.5 75t-71 115.5t-25 148q0 80 26 147t72 116
t106 75.5t128 26.5q69 0 118 -20.5t81 -58t48 -89.5h-37l16 158h60v-214h-67q-16 49 -45 85t-71.5 56.5t-101.5 20.5zM335 758h90l108 134v13h-40l-113 -89h10l-113 89h-50v-13z" />
    <glyph glyph-name="ccaron" unicode="&#x10d;" horiz-adv-x="559" 
d="M312 47q45 0 77 17t54.5 42t38.5 48l44 -42q-22 -33 -51.5 -61t-70 -44.5t-95.5 -16.5q-79 0 -138.5 34t-92 93.5t-32.5 136.5q0 79 34.5 138t96 92.5t142.5 33.5q50 0 89.5 -11.5t67 -26.5t40.5 -28v-124h-88v113q11 -2 20 -6.5t15.5 -12t9 -17.5t0.5 -23
q-18 34 -61 56.5t-93 22.5q-59 0 -99 -26.5t-60 -73.5t-20 -107q0 -46 11.5 -84t33.5 -65.5t54 -42.5t73 -15zM264 574h76l109 157v10h-35l-117 -114h20l-117 114h-45v-10z" />
    <glyph glyph-name="Dcaron" unicode="&#x10e;" horiz-adv-x="773" 
d="M45 663v47h306q84 0 152.5 -24.5t118.5 -70.5t77 -111.5t27 -146.5t-27 -146.5t-77 -113t-118.5 -72.5t-152.5 -25h-306v47h12q37 0 61 7t24 29v544q0 20 -24 28t-61 8h-12zM351 651h-117v-592h117q64 0 114.5 20t86.5 58.5t55 94t19 125.5t-19 125t-55 92.5t-86.5 57
t-114.5 19.5zM335 758h90l108 134v13h-40l-113 -89h10l-113 89h-50v-13z" />
    <glyph glyph-name="dcaron" unicode="&#x10f;" horiz-adv-x="641" 
d="M537 81q0 -22 23.5 -29t59.5 -7h1v-45h-165v112l-8 3v527q0 15 -8 23t-25 13t-43 9l-11 2v46h176v-654zM286 518q40 0 71 -11t57.5 -34.5t50.5 -60.5v-90q-21 48 -47.5 79t-58.5 45.5t-70 14.5q-36 0 -64 -15t-47 -42.5t-28.5 -66.5t-9.5 -87q0 -46 9.5 -83.5t28 -64.5
t46 -41t62.5 -14q40 0 72 16.5t58.5 48.5t48.5 79v-84q-26 -39 -53 -65t-59 -39t-73 -13q-70 0 -122.5 32.5t-82 91t-29.5 136.5q0 80 30 140t84.5 94t125.5 34zM655 551l55 184h-91l-18 -174v-10h54z" />
    <glyph glyph-name="Dcroat" unicode="&#x110;" horiz-adv-x="773" 
d="M45 381h390v-52h-390v52zM45 663v47h306q84 0 152.5 -24.5t118.5 -70.5t77 -111.5t27 -146.5t-27 -146.5t-77 -113t-118.5 -72.5t-152.5 -25h-306v47h12q37 0 61 7t24 29v544q0 20 -24 28t-61 8h-12zM351 651h-117v-592h117q64 0 114.5 20t86.5 58.5t55 94t19 125.5
t-19 125t-55 92.5t-86.5 57t-114.5 19.5z" />
    <glyph glyph-name="dcroat" unicode="&#x111;" horiz-adv-x="641" 
d="M286 518q52 0 89.5 -19t69 -59t63.5 -105l-39 -22q-22 51 -49 84t-59.5 48.5t-71.5 15.5q-36 0 -64 -15t-47 -42.5t-28.5 -66.5t-9.5 -87q0 -46 9.5 -83.5t28 -64.5t46 -41t62.5 -14q30 0 56.5 10t49 29t42 48t35.5 66l38 -22q-35 -64 -67 -105.5t-70 -62t-90 -20.5
q-70 0 -122.5 32.5t-82 91t-29.5 136.5q0 80 30 140t84.5 94t125.5 34zM448 735h89v-654q0 -22 23.5 -29t59.5 -7h1v-45h-165v112l-8 3v620zM641 633v-52h-383v52h383z" />
    <glyph glyph-name="Emacron" unicode="&#x112;" horiz-adv-x="641" 
d="M581 217v-217h-536v47h11q37 0 61 7t24 29v544q0 22 -24 29t-61 7h-11v47h506v-192h-56l-9 90q-2 18 -15 27.5t-40 12.5t-70 3h-128v-592h157q32 0 55.5 1.5t38.5 6.5t22.5 13.5t8.5 21.5l9 115h57zM203 390q42 2 83.5 3t83 2.5t82.5 2.5v-70q-41 2 -82.5 3.5l-83 3
t-83.5 2.5v53zM168 862h290v-65h-290v65z" />
    <glyph glyph-name="emacron" unicode="&#x113;" horiz-adv-x="549" 
d="M137 250q0 -48 12.5 -86t35.5 -64t54 -39.5t67 -13.5q41 0 70.5 16t50 39.5t34.5 46.5l47 -42q-19 -32 -47 -59t-66.5 -42.5t-90.5 -15.5q-73 0 -131.5 32t-92.5 91t-34 139q0 79 32 138.5t86.5 93.5t121.5 34q55 0 96.5 -18t70 -53.5t43.5 -89.5t15 -126h-392v56h325
l-28 -22q-1 50 -9 87t-24 61t-40 36t-57 12q-31 0 -58 -14.5t-47.5 -42t-32 -66.5t-11.5 -88zM137 694h290v-65h-290v65z" />
    <glyph glyph-name="Ebreve" unicode="&#x114;" horiz-adv-x="641" 
d="M581 217v-217h-536v47h11q37 0 61 7t24 29v544q0 22 -24 29t-61 7h-11v47h506v-192h-56l-9 90q-2 18 -15 27.5t-40 12.5t-70 3h-128v-592h157q32 0 55.5 1.5t38.5 6.5t22.5 13.5t8.5 21.5l9 115h57zM203 390q42 2 83.5 3t83 2.5t82.5 2.5v-70q-41 2 -82.5 3.5l-83 3
t-83.5 2.5v53zM313 759q42 0 73 16t49 47.5t22 76.5h-58q-5 -26 -15.5 -41.5t-27 -22t-40.5 -6.5t-41 6.5t-28 22t-16 41.5h-63q4 -45 22.5 -76.5t49.5 -47.5t73 -16z" />
    <glyph glyph-name="ebreve" unicode="&#x115;" horiz-adv-x="549" 
d="M137 250q0 -48 12.5 -86t35.5 -64t54 -39.5t67 -13.5q41 0 70.5 16t50 39.5t34.5 46.5l47 -42q-19 -32 -47 -59t-66.5 -42.5t-90.5 -15.5q-73 0 -131.5 32t-92.5 91t-34 139q0 79 32 138.5t86.5 93.5t121.5 34q55 0 96.5 -18t70 -53.5t43.5 -89.5t15 -126h-392v56h325
l-28 -22q-1 50 -9 87t-24 61t-40 36t-57 12q-31 0 -58 -14.5t-47.5 -42t-32 -66.5t-11.5 -88zM281 582q39 0 69 17t48.5 51.5t20.5 88.5h-55q-3 -34 -13.5 -53t-27 -27t-39.5 -8t-40 8t-27 27t-14 53h-60q3 -54 21 -88.5t48.5 -51.5t68.5 -17z" />
    <glyph glyph-name="Edotaccent" unicode="&#x116;" horiz-adv-x="641" 
d="M581 217v-217h-536v47h11q37 0 61 7t24 29v544q0 22 -24 29t-61 7h-11v47h506v-192h-56l-9 90q-2 18 -15 27.5t-40 12.5t-70 3h-128v-592h157q32 0 55.5 1.5t38.5 6.5t22.5 13.5t8.5 21.5l9 115h57zM203 390q42 2 83.5 3t83 2.5t82.5 2.5v-70q-41 2 -82.5 3.5l-83 3
t-83.5 2.5v53zM313 783q-26 0 -43.5 16.5t-17.5 44.5t17.5 44t43.5 16t43.5 -16t17.5 -44t-17.5 -44.5t-43.5 -16.5z" />
    <glyph glyph-name="edotaccent" unicode="&#x117;" horiz-adv-x="549" 
d="M137 250q0 -48 12.5 -86t35.5 -64t54 -39.5t67 -13.5q41 0 70.5 16t50 39.5t34.5 46.5l47 -42q-19 -32 -47 -59t-66.5 -42.5t-90.5 -15.5q-73 0 -131.5 32t-92.5 91t-34 139q0 79 32 138.5t86.5 93.5t121.5 34q55 0 96.5 -18t70 -53.5t43.5 -89.5t15 -126h-392v56h325
l-28 -22q-1 50 -9 87t-24 61t-40 36t-57 12q-31 0 -58 -14.5t-47.5 -42t-32 -66.5t-11.5 -88zM290 622q-26 0 -43.5 16.5t-17.5 44.5t17.5 44t43.5 16t43.5 -16t17.5 -44t-17.5 -44.5t-43.5 -16.5z" />
    <glyph glyph-name="Eogonek" unicode="&#x118;" horiz-adv-x="641" 
d="M581 217v-217h-536v47h11q37 0 61 7t24 29v544q0 22 -24 29t-61 7h-11v47h506v-192h-56l-9 90q-2 18 -15 27.5t-40 12.5t-70 3h-128v-592h157q32 0 55.5 1.5t38.5 6.5t22.5 13.5t8.5 21.5l9 115h57zM203 390q42 2 83.5 3t83 2.5t82.5 2.5v-70q-41 2 -82.5 3.5l-83 3
t-83.5 2.5v53zM479 35l31 -27q-35 -20 -58 -39t-36 -37.5t-18.5 -35.5t-5.5 -32q0 -25 11.5 -36.5t28.5 -11.5t30 9.5t23 18.5l29 -34q-19 -20 -42 -33t-62 -13q-47 0 -77.5 24t-30.5 67q0 26 12.5 49t35.5 45t56 43.5t73 42.5z" />
    <glyph glyph-name="eogonek" unicode="&#x119;" horiz-adv-x="549" 
d="M391 37l11 -28q-21 -9 -45 -14t-53 -5q-73 0 -131.5 32t-92.5 91t-34 139q0 79 32 138.5t86.5 93.5t121.5 34q55 0 96.5 -18t70 -53.5t43.5 -89.5t15 -126h-404l-1 56h338l-28 -22q-1 50 -9 87t-24 61t-40 36t-57 12q-31 0 -58 -14.5t-47.5 -42t-32 -66.5t-11.5 -88
q0 -48 12.5 -86t35.5 -64t54 -39.5t67 -13.5q41 0 70.5 16t50 39.5t34.5 46.5l47 -42q-12 -21 -27.5 -39.5t-44.5 -39.5q-34 -25 -59 -46t-41.5 -39.5t-24 -37.5t-7.5 -41q0 -25 11.5 -36.5t28.5 -11.5t30 9.5t23 18.5l29 -34q-19 -20 -42 -33t-62 -13q-31 0 -55.5 11
t-38.5 31.5t-14 48.5q0 26 12.5 49.5t35.5 45.5t56 44t73 43z" />
    <glyph glyph-name="Ecaron" unicode="&#x11a;" horiz-adv-x="641" 
d="M581 217v-217h-536v47h11q37 0 61 7t24 29v544q0 22 -24 29t-61 7h-11v47h506v-192h-56l-9 90q-2 18 -15 27.5t-40 12.5t-70 3h-128v-592h157q32 0 55.5 1.5t38.5 6.5t22.5 13.5t8.5 21.5l9 115h57zM203 390q42 2 83.5 3t83 2.5t82.5 2.5v-70q-41 2 -82.5 3.5l-83 3
t-83.5 2.5v53zM263 758h90l108 134v13h-40l-113 -89h10l-113 89h-50v-13z" />
    <glyph glyph-name="ecaron" unicode="&#x11b;" horiz-adv-x="549" 
d="M137 250q0 -48 12.5 -86t35.5 -64t54 -39.5t67 -13.5q41 0 70.5 16t50 39.5t34.5 46.5l47 -42q-19 -32 -47 -59t-66.5 -42.5t-90.5 -15.5q-73 0 -131.5 32t-92.5 91t-34 139q0 79 32 138.5t86.5 93.5t121.5 34q55 0 96.5 -18t70 -53.5t43.5 -89.5t15 -126h-392v56h325
l-28 -22q-1 50 -9 87t-24 61t-40 36t-57 12q-31 0 -58 -14.5t-47.5 -42t-32 -66.5t-11.5 -88zM246 574h76l109 157v10h-35l-117 -114h20l-117 114h-45v-10z" />
    <glyph glyph-name="Gcircumflex" unicode="&#x11c;" horiz-adv-x="773" 
d="M679 270v-166q-15 -19 -41.5 -39t-63 -37t-79 -27.5t-89.5 -10.5q-81 0 -147 26t-113.5 74.5t-73 115.5t-25.5 149q0 80 26.5 147t74 116t110.5 75.5t135 26.5q66 0 116 -20.5t83.5 -58t48.5 -88.5h-36l16 157h60v-214h-67q-16 49 -45.5 85t-73 56.5t-102.5 20.5
q-53 0 -98 -21.5t-78 -61.5t-51.5 -95.5t-18.5 -124.5q0 -70 17.5 -126.5t51.5 -95.5t82 -60t109 -21q52 0 89 12.5t60 28.5t33 25v152q0 22 -24 29t-61 7h-11v47h265v-47h-4q-32 0 -53.5 -7t-21.5 -29zM452 905h-90l-108 -134v-13h40l113 89h-10l113 -89h50v13z" />
    <glyph glyph-name="gcircumflex" unicode="&#x11d;" horiz-adv-x="568" 
d="M563 437q-44 4 -75 4t-51.5 -6t-33.5 -23l-13 15q14 29 32.5 49.5t40.5 33.5t47 17.5t53 1.5v-92zM271 151q-58 0 -103.5 22.5t-71.5 63.5t-26 96t26.5 96.5t72 65t102.5 23.5q58 0 103.5 -23.5t72 -65t26.5 -96.5t-26.5 -96t-72 -63.5t-103.5 -22.5zM271 209
q35 0 60.5 14.5t39.5 42t14 67.5t-14 68.5t-39.5 43.5t-60.5 15q-34 0 -59.5 -15t-39.5 -43.5t-14 -68.5t14 -67.5t39.5 -42t59.5 -14.5zM256 -236q-67 0 -121 12.5t-85.5 41.5t-31.5 77q0 24 12.5 44t37.5 37.5t64 35.5l37 -26q-25 -12 -41 -26t-23.5 -29t-7.5 -32
q0 -24 17 -40.5t52.5 -25.5t90.5 -9h35q51 0 90.5 12.5t62 34.5t22.5 50q0 29 -21.5 41.5t-80.5 12.5h-224h-4q-32 17 -51 32.5t-26.5 32.5t-7.5 36q0 24 12 45t36 40.5t61 36.5l38 -27q-20 -10 -35 -21t-22.5 -23t-7.5 -26q0 -21 21.5 -30.5t61.5 -9.5h150
q60 0 100.5 -13.5t61.5 -41t21 -69.5q0 -59 -35.5 -97.5t-94 -57t-127.5 -18.5h-37zM327 741h-76l-109 -157v-10h35l117 114h-20l117 -114h45v10z" />
    <glyph glyph-name="Gbreve" unicode="&#x11e;" horiz-adv-x="773" 
d="M679 270v-166q-15 -19 -41.5 -39t-63 -37t-79 -27.5t-89.5 -10.5q-81 0 -147 26t-113.5 74.5t-73 115.5t-25.5 149q0 80 26.5 147t74 116t110.5 75.5t135 26.5q66 0 116 -20.5t83.5 -58t48.5 -88.5h-36l16 157h60v-214h-67q-16 49 -45.5 85t-73 56.5t-102.5 20.5
q-53 0 -98 -21.5t-78 -61.5t-51.5 -95.5t-18.5 -124.5q0 -70 17.5 -126.5t51.5 -95.5t82 -60t109 -21q52 0 89 12.5t60 28.5t33 25v152q0 22 -24 29t-61 7h-11v47h265v-47h-4q-32 0 -53.5 -7t-21.5 -29zM402 759q42 0 73 16t49 47.5t22 76.5h-58q-5 -26 -15.5 -41.5t-27 -22
t-40.5 -6.5t-41 6.5t-28 22t-16 41.5h-63q4 -45 22.5 -76.5t49.5 -47.5t73 -16z" />
    <glyph glyph-name="gbreve" unicode="&#x11f;" horiz-adv-x="568" 
d="M563 437q-44 4 -75 4t-51.5 -6t-33.5 -23l-13 15q14 29 32.5 49.5t40.5 33.5t47 17.5t53 1.5v-92zM271 151q-58 0 -103.5 22.5t-71.5 63.5t-26 96t26.5 96.5t72 65t102.5 23.5q58 0 103.5 -23.5t72 -65t26.5 -96.5t-26.5 -96t-72 -63.5t-103.5 -22.5zM271 209
q35 0 60.5 14.5t39.5 42t14 67.5t-14 68.5t-39.5 43.5t-60.5 15q-34 0 -59.5 -15t-39.5 -43.5t-14 -68.5t14 -67.5t39.5 -42t59.5 -14.5zM256 -236q-67 0 -121 12.5t-85.5 41.5t-31.5 77q0 24 12.5 44t37.5 37.5t64 35.5l37 -26q-25 -12 -41 -26t-23.5 -29t-7.5 -32
q0 -24 17 -40.5t52.5 -25.5t90.5 -9h35q51 0 90.5 12.5t62 34.5t22.5 50q0 29 -21.5 41.5t-80.5 12.5h-224h-4q-32 17 -51 32.5t-26.5 32.5t-7.5 36q0 24 12 45t36 40.5t61 36.5l38 -27q-20 -10 -35 -21t-22.5 -23t-7.5 -26q0 -21 21.5 -30.5t61.5 -9.5h150
q60 0 100.5 -13.5t61.5 -41t21 -69.5q0 -59 -35.5 -97.5t-94 -57t-127.5 -18.5h-37zM284 582q39 0 69 17t48.5 51.5t20.5 88.5h-55q-3 -34 -13.5 -53t-27 -27t-39.5 -8t-40 8t-27 27t-14 53h-60q3 -54 21 -88.5t48.5 -51.5t68.5 -17z" />
    <glyph glyph-name="Gdotaccent" unicode="&#x120;" horiz-adv-x="773" 
d="M679 270v-166q-15 -19 -41.5 -39t-63 -37t-79 -27.5t-89.5 -10.5q-81 0 -147 26t-113.5 74.5t-73 115.5t-25.5 149q0 80 26.5 147t74 116t110.5 75.5t135 26.5q66 0 116 -20.5t83.5 -58t48.5 -88.5h-36l16 157h60v-214h-67q-16 49 -45.5 85t-73 56.5t-102.5 20.5
q-53 0 -98 -21.5t-78 -61.5t-51.5 -95.5t-18.5 -124.5q0 -70 17.5 -126.5t51.5 -95.5t82 -60t109 -21q52 0 89 12.5t60 28.5t33 25v152q0 22 -24 29t-61 7h-11v47h265v-47h-4q-32 0 -53.5 -7t-21.5 -29zM402 783q-26 0 -43.5 16.5t-17.5 44.5t17.5 44t43.5 16t43.5 -16
t17.5 -44t-17.5 -44.5t-43.5 -16.5z" />
    <glyph glyph-name="gdotaccent" unicode="&#x121;" horiz-adv-x="568" 
d="M563 437q-44 4 -75 4t-51.5 -6t-33.5 -23l-13 15q14 29 32.5 49.5t40.5 33.5t47 17.5t53 1.5v-92zM271 151q-58 0 -103.5 22.5t-71.5 63.5t-26 96t26.5 96.5t72 65t102.5 23.5q58 0 103.5 -23.5t72 -65t26.5 -96.5t-26.5 -96t-72 -63.5t-103.5 -22.5zM271 209
q35 0 60.5 14.5t39.5 42t14 67.5t-14 68.5t-39.5 43.5t-60.5 15q-34 0 -59.5 -15t-39.5 -43.5t-14 -68.5t14 -67.5t39.5 -42t59.5 -14.5zM256 -236q-67 0 -121 12.5t-85.5 41.5t-31.5 77q0 24 12.5 44t37.5 37.5t64 35.5l37 -26q-25 -12 -41 -26t-23.5 -29t-7.5 -32
q0 -24 17 -40.5t52.5 -25.5t90.5 -9h35q51 0 90.5 12.5t62 34.5t22.5 50q0 29 -21.5 41.5t-80.5 12.5h-224h-4q-32 17 -51 32.5t-26.5 32.5t-7.5 36q0 24 12 45t36 40.5t61 36.5l38 -27q-20 -10 -35 -21t-22.5 -23t-7.5 -26q0 -21 21.5 -30.5t61.5 -9.5h150
q60 0 100.5 -13.5t61.5 -41t21 -69.5q0 -59 -35.5 -97.5t-94 -57t-127.5 -18.5h-37zM284 622q-26 0 -43.5 16.5t-17.5 44.5t17.5 44t43.5 16t43.5 -16t17.5 -44t-17.5 -44.5t-43.5 -16.5z" />
    <glyph glyph-name="Gcommaaccent" unicode="&#x122;" horiz-adv-x="773" 
d="M679 270v-166q-15 -19 -41.5 -39t-63 -37t-79 -27.5t-89.5 -10.5q-81 0 -147 26t-113.5 74.5t-73 115.5t-25.5 149q0 80 26.5 147t74 116t110.5 75.5t135 26.5q66 0 116 -20.5t83.5 -58t48.5 -88.5h-36l16 157h60v-214h-67q-16 49 -45.5 85t-73 56.5t-102.5 20.5
q-53 0 -98 -21.5t-78 -61.5t-51.5 -95.5t-18.5 -124.5q0 -70 17.5 -126.5t51.5 -95.5t82 -60t109 -21q52 0 89 12.5t60 28.5t33 25v152q0 22 -24 29t-61 7h-11v47h265v-47h-4q-32 0 -53.5 -7t-21.5 -29zM395 -305l-58 28q22 14 41.5 30t32 33.5t12.5 33.5l17 -12
q-7 -3 -14 -3.5t-12 -0.5q-29 0 -46.5 15t-17.5 38q0 24 16 38.5t40 14.5q28 0 46 -17.5t18 -52.5q0 -29 -8.5 -53.5t-25.5 -46.5t-41 -45z" />
    <glyph glyph-name="gcommaaccent" unicode="&#x123;" horiz-adv-x="568" 
d="M563 437q-44 4 -75 4t-51.5 -6t-33.5 -23l-13 15q14 29 32.5 49.5t40.5 33.5t47 17.5t53 1.5v-92zM271 151q-58 0 -103.5 22.5t-71.5 63.5t-26 96t26.5 96.5t72 65t102.5 23.5q58 0 103.5 -23.5t72 -65t26.5 -96.5t-26.5 -96t-72 -63.5t-103.5 -22.5zM271 209
q35 0 60.5 14.5t39.5 42t14 67.5t-14 68.5t-39.5 43.5t-60.5 15q-34 0 -59.5 -15t-39.5 -43.5t-14 -68.5t14 -67.5t39.5 -42t59.5 -14.5zM256 -236q-67 0 -121 12.5t-85.5 41.5t-31.5 77q0 24 12.5 44t37.5 37.5t64 35.5l37 -26q-25 -12 -41 -26t-23.5 -29t-7.5 -32
q0 -24 17 -40.5t52.5 -25.5t90.5 -9h35q51 0 90.5 12.5t62 34.5t22.5 50q0 29 -21.5 41.5t-80.5 12.5h-224h-4q-32 17 -51 32.5t-26.5 32.5t-7.5 36q0 24 12 45t36 40.5t61 36.5l38 -27q-20 -10 -35 -21t-22.5 -23t-7.5 -26q0 -21 21.5 -30.5t61.5 -9.5h150
q60 0 100.5 -13.5t61.5 -41t21 -69.5q0 -59 -35.5 -97.5t-94 -57t-127.5 -18.5h-37zM296 841l58 -28q-22 -14 -41.5 -30t-32 -33.5t-12.5 -33.5l-17 12q7 3 14 3.5t12 0.5q29 0 46.5 -15t17.5 -38q0 -24 -16 -38.5t-40 -14.5q-28 0 -46 17.5t-18 52.5q0 29 8.5 53.5
t25.5 46.5t41 45z" />
    <glyph glyph-name="Hcircumflex" unicode="&#x124;" horiz-adv-x="833" 
d="M202 395h429v-58h-429v58zM45 0v47h11q37 0 61 7t24 29v544q0 22 -24 29t-61 7h-11v47h285v-47h-9q-14 0 -29.5 -0.5t-28.5 -2t-21 -3t-8 -4.5v-596q0 -3 8 -4.5t21 -3t28.5 -2t29.5 -0.5h9v-47h-285zM503 0v47h9q14 0 29.5 0.5t28.5 2t21 3t8 4.5v596q0 3 -8 4.5t-21 3
t-28.5 2t-29.5 0.5h-9v47h285v-47h-11q-37 0 -61 -7t-24 -29v-544q0 -22 24 -29t61 -7h11v-47h-285zM461 905h-90l-108 -134v-13h40l113 89h-10l113 -89h50v13z" />
    <glyph glyph-name="hcircumflex" unicode="&#x125;" horiz-adv-x="646" 
d="M212 735v-680q0 -3 12 -5.5t29 -3.5t31 -1h3v-45h-249v45h2q24 0 42.5 3t29.5 11t11 22v561q0 15 -8 23t-24 13t-42 9l-11 2v46h174zM623 0h-248v45h2q14 0 31 1t29.5 3.5t12.5 5.5v291q0 38 -8 62t-26.5 35.5t-50.5 11.5q-34 0 -64 -13t-56 -38.5t-50 -62.5v68
q27 37 54.5 61t59 36t70.5 12q48 0 84 -17t56 -52.5t20 -91.5v-276q0 -22 23.5 -29t58.5 -7h2v-45zM380 943h-90l-108 -134v-13h40l113 89h-10l113 -89h50v13z" />
    <glyph glyph-name="Hbar" unicode="&#x126;" horiz-adv-x="833" 
d="M202 395h429v-58h-429v58zM45 0v47h11q37 0 61 7t24 29v544q0 22 -24 29t-61 7h-11v47h285v-47h-9q-14 0 -29.5 -0.5t-28.5 -2t-21 -3t-8 -4.5v-596q0 -3 8 -4.5t21 -3t28.5 -2t29.5 -0.5h9v-47h-285zM503 0v47h9q14 0 29.5 0.5t28.5 2t21 3t8 4.5v596q0 3 -8 4.5t-21 3
t-28.5 2t-29.5 0.5h-9v47h285v-47h-11q-37 0 -61 -7t-24 -29v-544q0 -22 24 -29t61 -7h11v-47h-285zM45 497v52h743v-52h-743z" />
    <glyph glyph-name="hbar" unicode="&#x127;" horiz-adv-x="646" 
d="M623 0h-248v45h2q14 0 31 1t29.5 3.5t12.5 5.5v291q0 38 -8 62t-26.5 35.5t-50.5 11.5q-37 0 -69.5 -15.5t-60.5 -45.5t-53 -75l-30 25q35 59 68 97.5t71.5 57.5t87.5 19q48 0 84 -17t56 -52.5t20 -91.5v-276q0 -22 23.5 -29t58.5 -7h2v-45zM123 735h89v-680
q0 -3 12 -5.5t29 -3.5t31 -1h3v-45h-249v45h2q24 0 42.5 3t29.5 11t11 22v654zM408 633v-52h-390v52h390z" />
    <glyph glyph-name="Itilde" unicode="&#x128;" horiz-adv-x="375" 
d="M141 83v544q0 22 -24 29t-61 7h-11v47h285v-47h-11q-37 0 -61 -7t-24 -29v-544q0 -22 24 -29t61 -7h11v-47h-285v47h11q37 0 61 7t24 29zM249 765q-21 0 -37 5.5t-29.5 13.5t-24.5 15.5t-21 13t-21 5.5q-12 0 -21 -7t-14.5 -19.5t-9.5 -30.5l-50 18q7 35 20.5 58.5
t34.5 35.5t50 12q19 0 34.5 -5.5t28.5 -13t24.5 -15t23 -13t23.5 -5.5q13 0 22 7t15.5 19.5t11.5 29.5l50 -19q-7 -33 -22.5 -56.5t-37.5 -36t-50 -12.5z" />
    <glyph glyph-name="itilde" unicode="&#x129;" horiz-adv-x="319" 
d="M199 597q-20 0 -36 7t-29 18t-24 21.5t-20.5 17.5t-19.5 7q-19 0 -29.5 -19.5t-15.5 -54.5l-47 16q7 42 20 69.5t32.5 41.5t47.5 14q18 0 33 -7t28 -17.5t24.5 -21t22.5 -17.5t22 -7q19 0 28.5 20t17.5 53l47 -17q-8 -41 -22 -68.5t-33.5 -41.5t-46.5 -14zM212 508v-427
q0 -22 23.5 -29t59.5 -7h1v-45h-257v45h1q36 0 59.5 7t23.5 29v334q0 22 -18 30t-56 15l-11 2v46h174z" />
    <glyph glyph-name="Imacron" unicode="&#x12a;" horiz-adv-x="375" 
d="M141 83v544q0 22 -24 29t-61 7h-11v47h285v-47h-11q-37 0 -61 -7t-24 -29v-544q0 -22 24 -29t61 -7h11v-47h-285v47h11q37 0 61 7t24 29zM42 862h290v-65h-290v65z" />
    <glyph glyph-name="imacron" unicode="&#x12b;" horiz-adv-x="319" 
d="M-5 694h290v-65h-290v65zM212 508v-427q0 -22 23.5 -29t59.5 -7h1v-45h-257v45h1q36 0 59.5 7t23.5 29v334q0 22 -18 30t-56 15l-11 2v46h174z" />
    <glyph glyph-name="Ibreve" unicode="&#x12c;" horiz-adv-x="375" 
d="M140 83v544q0 22 -24 29t-61 7h-11v47h285v-47h-11q-37 0 -61 -7t-24 -29v-544q0 -22 24 -29t61 -7h11v-47h-285v47h11q37 0 61 7t24 29zM187 759q42 0 73 16t49 47.5t22 76.5h-58q-5 -26 -15.5 -41.5t-27 -22t-40.5 -6.5t-41 6.5t-28 22t-16 41.5h-63q4 -45 22.5 -76.5
t49.5 -47.5t73 -16z" />
    <glyph glyph-name="ibreve" unicode="&#x12d;" horiz-adv-x="319" 
d="M155 582q39 0 69 17t48.5 51.5t20.5 88.5h-55q-3 -34 -13.5 -53t-27 -27t-39.5 -8t-40 8t-27 27t-14 53h-60q3 -54 21 -88.5t48.5 -51.5t68.5 -17zM212 508v-427q0 -22 23.5 -29t59.5 -7h1v-45h-257v45h1q36 0 59.5 7t23.5 29v334q0 22 -18 30t-56 15l-11 2v46h174z" />
    <glyph glyph-name="Iogonek" unicode="&#x12e;" horiz-adv-x="375" 
d="M141 83v544q0 22 -24 29t-61 7h-11v47h285v-47h-11q-37 0 -61 -7t-24 -29v-544q0 -22 24 -29t61 -7h11v-47h-285v47h11q37 0 61 7t24 29zM274 35l31 -27q-35 -20 -58 -39t-36 -37.5t-18.5 -35.5t-5.5 -32q0 -25 11.5 -36.5t28.5 -11.5t30 9.5t23 18.5l29 -34
q-19 -20 -42 -33t-62 -13q-47 0 -77.5 24t-30.5 67q0 26 12.5 49t35.5 45t56 43.5t73 42.5z" />
    <glyph glyph-name="iogonek" unicode="&#x12f;" horiz-adv-x="319" 
d="M163 619q-26 0 -43.5 16.5t-17.5 44.5t17.5 44t43.5 16t43.5 -16t17.5 -44t-17.5 -44.5t-43.5 -16.5zM212 508v-427q0 -22 23.5 -29t59.5 -7h1v-45h-257v45h1q36 0 59.5 7t23.5 29v334q0 22 -18 30t-56 15l-11 2v46h174zM227 35l31 -27q-35 -20 -58 -39t-36 -37.5
t-18.5 -35.5t-5.5 -32q0 -25 11.5 -36.5t28.5 -11.5t30 9.5t23 18.5l29 -34q-19 -20 -42 -33t-62 -13q-47 0 -77.5 24t-30.5 67q0 26 12.5 49t35.5 45t56 43.5t73 42.5z" />
    <glyph glyph-name="Idotaccent" unicode="&#x130;" horiz-adv-x="375" 
d="M141 83v544q0 22 -24 29t-61 7h-11v47h285v-47h-11q-37 0 -61 -7t-24 -29v-544q0 -22 24 -29t61 -7h11v-47h-285v47h11q37 0 61 7t24 29zM187 783q-26 0 -43.5 16.5t-17.5 44.5t17.5 44t43.5 16t43.5 -16t17.5 -44t-17.5 -44.5t-43.5 -16.5z" />
    <glyph glyph-name="dotlessi" unicode="&#x131;" horiz-adv-x="319" 
d="M212 508v-427q0 -22 23.5 -29t59.5 -7h1v-45h-257v45h1q36 0 59.5 7t23.5 29v334q0 22 -18 30t-56 15l-11 2v46h174z" />
    <glyph glyph-name="IJ" unicode="&#x132;" horiz-adv-x="940" 
d="M141 83v544q0 22 -24 29t-61 7h-11v47h285v-47h-11q-37 0 -61 -7t-24 -29v-544q0 -22 24 -29t61 -7h11v-47h-285v47h11q37 0 61 7t24 29zM606 710h292v-47h-11q-37 0 -61 -7t-24 -29v-385q0 -71 -15 -119.5t-43.5 -77.5t-68.5 -42t-90 -13q-40 0 -74 10t-60 26t-43 34
v104h93v-97q-18 5 -29 12.5t-13.5 14.5t3 10t18.5 -1q9 -14 23.5 -26.5t34.5 -19.5t47 -7q41 0 69 16.5t43 58t15 117.5v385q0 15 -11 22.5t-30 10.5t-44 3h-21v47z" />
    <glyph glyph-name="ij" unicode="&#x133;" horiz-adv-x="617" 
d="M163 619q-26 0 -43.5 16.5t-17.5 44.5t17.5 44t43.5 16t43.5 -16t17.5 -44t-17.5 -44.5t-43.5 -16.5zM212 508v-427q0 -22 23.5 -29t59.5 -7h1v-45h-257v45h1q36 0 59.5 7t23.5 29v334q0 22 -18 30t-56 15l-11 2v46h174zM434 -45v460q0 15 -9 23.5t-26.5 13.5t-45.5 8
l-16 2v46h186v-553q0 -56 -16 -93t-42.5 -58.5t-60 -30.5t-68.5 -9q-22 0 -43.5 3t-35.5 9v63q17 -6 35.5 -9.5t40.5 -3.5q31 0 53.5 11.5t35 40t12.5 77.5zM474 619q-26 0 -43.5 16.5t-17.5 44.5t17.5 44t43.5 16t43.5 -16t17.5 -44t-17.5 -44.5t-43.5 -16.5z" />
    <glyph glyph-name="Jcircumflex" unicode="&#x134;" horiz-adv-x="565" 
d="M231 710h292v-47h-11q-37 0 -61 -7t-24 -29v-385q0 -71 -15 -119.5t-43.5 -77.5t-68.5 -42t-90 -13q-40 0 -74 10t-60 26t-43 34v104h93v-97q-18 5 -29 12.5t-13.5 14.5t3 10t18.5 -1q9 -14 23.5 -26.5t34.5 -19.5t47 -7q41 0 69 16.5t43 58t15 117.5v385q0 15 -11 22.5
t-30 10.5t-44 3h-21v47zM419 905h-90l-108 -134v-13h40l113 89h-10l113 -89h50v13z" />
    <glyph glyph-name="jcircumflex" unicode="&#x135;" horiz-adv-x="298" 
d="M115 -45v460q0 15 -9 23.5t-26.5 13.5t-45.5 8l-16 2v46h186v-553q0 -56 -16 -93t-42.5 -58.5t-60 -30.5t-68.5 -9q-22 0 -43.5 3t-35.5 7v63q17 -4 35.5 -7.5t40.5 -3.5q31 0 53.5 11.5t35 40t12.5 77.5zM167 741h-76l-109 -157v-10h35l117 114h-20l117 -114h45v10z" />
    <glyph glyph-name="Kcommaaccent" unicode="&#x136;" horiz-adv-x="728" 
d="M45 0v47h11q37 0 61 7t24 29v544q0 22 -24 29t-61 7h-11v47h285v-47h-9q-19 0 -39 -1t-34 -3t-14 -6v-596q0 -3 14 -5.5t34 -3.5t39 -1h9v-47h-285zM423 0v47h9q19 0 38 1t32.5 3.5t13.5 5.5l-250 290v17l261 289q-1 4 -13 6t-30 3t-37 1h-9v47h246v-47h-16
q-18 0 -32 -2.5t-25 -8.5t-22 -18l-253 -278v45l277 -321q13 -14 24.5 -21.5t27 -9.5t37.5 -2h11v-47h-290zM372 -305l-58 28q22 14 41.5 30t32 33.5t12.5 33.5l17 -12q-7 -3 -14 -3.5t-12 -0.5q-29 0 -46.5 15t-17.5 38q0 24 16 38.5t40 14.5q28 0 46 -17.5t18 -52.5
q0 -29 -8.5 -53.5t-25.5 -46.5t-41 -45z" />
    <glyph glyph-name="kcommaaccent" unicode="&#x137;" horiz-adv-x="634" 
d="M611 0h-259v45h3q14 0 31 1t29 3.5t12 5.5l-189 213v5l180 172q0 8 -14 11.5t-33 5t-34 1.5h-4v45h248v-45h-2q-20 0 -40 -5t-38.5 -16t-36.5 -28l-155 -149l2 43l201 -225q15 -16 30 -24t32 -11t35 -3h2v-45zM212 735v-680q0 -3 12.5 -5.5t29.5 -3.5t30 -1h3v-45h-248
v45h2q36 0 59 7t23 29v561q0 15 -8 23t-24 13t-42 9l-11 2v46h174zM317 -305l-58 28q22 14 41.5 30t32 33.5t12.5 33.5l17 -12q-7 -3 -14 -3.5t-12 -0.5q-29 0 -46.5 15t-17.5 38q0 24 16 38.5t40 14.5q28 0 46 -17.5t18 -52.5q0 -29 -8.5 -53.5t-25.5 -46.5t-41 -45z" />
    <glyph glyph-name="kgreenlandic" unicode="&#x138;" horiz-adv-x="634" 
d="M611 0h-259v45h3q14 0 31 1t29 3.5t12 5.5l-189 213v5l180 172q0 6 -8 9.5t-21 5.5t-27 2.5t-25 0.5h-4v45h248v-45h-2q-20 0 -40 -5t-38.5 -16t-36.5 -28l-155 -149l2 43l201 -225q15 -16 30 -24t32 -11t35 -3h2v-45zM212 508v-453q0 -3 12.5 -5.5t29.5 -3.5t30 -1h3
v-45h-248v45h2q36 0 59 7t23 29v334q0 15 -8 23t-24 13t-42 9l-11 2v46h174z" />
    <glyph glyph-name="Lacute" unicode="&#x139;" horiz-adv-x="619" 
d="M334 710h-289v-47h11q37 0 61 -7t24 -29v-544q0 -22 -24 -29t-61 -7h-11v-47h531v224h-60l-9 -122q-1 -18 -14.5 -27t-40.5 -12.5t-70 -3.5h-148v568q0 22 25 29t64 7h11v47zM203 875l-64 -87v-22h28l82 44q18 10 31 20t20 21.5t7 23.5q0 16 -11.5 28.5t-30.5 12.5
q-12 0 -23 -5t-20 -14t-19 -22z" />
    <glyph glyph-name="lacute" unicode="&#x13a;" horiz-adv-x="309" 
d="M207 735v-654q0 -22 23 -29t59 -7h2v-45h-257v45h2q36 0 59 7t23 29v561q0 15 -8 23t-24 13t-42 9l-11 2v46h174zM195 905l-64 -87v-22h28l82 44q18 10 31 20t20 21.5t7 23.5q0 16 -11.5 28.5t-30.5 12.5q-12 0 -23 -5t-20 -14t-19 -22z" />
    <glyph glyph-name="Lcommaaccent" unicode="&#x13b;" horiz-adv-x="619" 
d="M334 710h-289v-47h11q37 0 61 -7t24 -29v-544q0 -22 -24 -29t-61 -7h-11v-47h531v224h-60l-9 -122q-1 -18 -14.5 -27t-40.5 -12.5t-70 -3.5h-148v568q0 22 25 29t64 7h11v47zM303 -305l-58 28q22 14 41.5 30t32 33.5t12.5 33.5l17 -12q-7 -3 -14 -3.5t-12 -0.5
q-29 0 -46.5 15t-17.5 38q0 24 16 38.5t40 14.5q28 0 46 -17.5t18 -52.5q0 -29 -8.5 -53.5t-25.5 -46.5t-41 -45z" />
    <glyph glyph-name="lcommaaccent" unicode="&#x13c;" horiz-adv-x="309" 
d="M207 735v-654q0 -22 23 -29t59 -7h2v-45h-257v45h2q36 0 59 7t23 29v561q0 15 -8 23t-24 13t-42 9l-11 2v46h174zM155 -305l-58 28q22 14 41.5 30t32 33.5t12.5 33.5l17 -12q-7 -3 -14 -3.5t-12 -0.5q-29 0 -46.5 15t-17.5 38q0 24 16 38.5t40 14.5q28 0 46 -17.5
t18 -52.5q0 -29 -8.5 -53.5t-25.5 -46.5t-41 -45z" />
    <glyph glyph-name="Lcaron" unicode="&#x13d;" horiz-adv-x="619" 
d="M334 710h-289v-47h11q37 0 61 -7t24 -29v-544q0 -22 -24 -29t-61 -7h-11v-47h531v224h-60l-9 -122q-1 -18 -14.5 -27t-40.5 -12.5t-70 -3.5h-148v568q0 22 25 29t64 7h11v47zM449 526l55 184h-91l-18 -174v-10h54z" />
    <glyph glyph-name="lcaron" unicode="&#x13e;" horiz-adv-x="309" 
d="M207 735v-654q0 -22 23 -29t59 -7h2v-45h-257v45h2q36 0 59 7t23 29v561q0 15 -8 23t-24 13t-42 9l-11 2v46h174zM317 551l55 184h-91l-18 -174v-10h54z" />
    <glyph glyph-name="Ldot" unicode="&#x13f;" horiz-adv-x="619" 
d="M334 710h-289v-47h11q37 0 61 -7t24 -29v-544q0 -22 -24 -29t-61 -7h-11v-47h531v224h-60l-9 -122q-1 -18 -14.5 -27t-40.5 -12.5t-70 -3.5h-148v568q0 22 25 29t64 7h11v47zM504 341q-30 0 -49 17.5t-19 45.5q0 29 19 46.5t49 17.5q31 0 50 -17.5t19 -46.5
q0 -28 -19 -45.5t-50 -17.5z" />
    <glyph glyph-name="ldot" unicode="&#x140;" horiz-adv-x="410" 
d="M207 735v-654q0 -22 23 -29t59 -7h2v-45h-257v45h2q36 0 59 7t23 29v561q0 15 -8 23t-24 13t-42 9l-11 2v46h174zM365 294q-30 0 -49 17.5t-19 45.5q0 29 19 46.5t49 17.5q31 0 50 -17.5t19 -46.5q0 -28 -19 -45.5t-50 -17.5z" />
    <glyph glyph-name="Lslash" unicode="&#x141;" horiz-adv-x="619" 
d="M45 188l405 268v70l-405 -268v-70zM334 710h-289v-47h11q37 0 61 -7t24 -29v-544q0 -22 -24 -29t-61 -7h-11v-47h531v224h-60l-9 -122q-1 -18 -14.5 -27t-40.5 -12.5t-70 -3.5h-148v568q0 22 25 29t64 7h11v47z" />
    <glyph glyph-name="lslash" unicode="&#x142;" horiz-adv-x="317" 
d="M33 188v70l272 268v-70zM211 735v-654q0 -22 23 -29t59 -7h2v-45h-257v45h2q36 0 59 7t23 29v561q0 15 -8 23t-24 13t-42 9l-11 2v46h174z" />
    <glyph glyph-name="Nacute" unicode="&#x143;" horiz-adv-x="800" 
d="M45 0v47h11q25 0 44 4t30 13.5t11 23.5v539q0 15 -11 22.5t-30 10.5t-44 3h-11v47h223l345 -617l-11 -3v558q0 4 -14 7t-35 5.5t-43 2.5h-14v47h267v-47h-12q-24 0 -43.5 -4t-30.5 -13t-11 -24v-622h-96l-376 670l12 4v-612q0 -3 14 -6.5t35.5 -6t42.5 -2.5h14v-47h-267z
M437 875l-64 -87v-22h28l82 44q18 10 31 20t20 21.5t7 23.5q0 16 -11.5 28.5t-30.5 12.5q-12 0 -23 -5t-20 -14t-19 -22z" />
    <glyph glyph-name="nacute" unicode="&#x144;" horiz-adv-x="645" 
d="M38 0v45h2q24 0 42.5 3t29 11t10.5 22v334q0 15 -8 22.5t-24.5 12.5t-41.5 10l-10 2v46h164v-106l9 -11v-336q0 -3 12 -5.5t29 -3.5t31 -1h3v-45h-248zM622 0h-248v45h2q14 0 31 1t29.5 3.5t12.5 5.5v291q0 38 -8 62t-26.5 35.5t-50.5 11.5q-33 0 -63 -13t-56.5 -38.5
t-50.5 -63.5v68q27 37 54.5 61.5t59.5 36.5t71 12q48 0 83.5 -17t55.5 -52.5t20 -91.5v-276q0 -14 10.5 -22t29 -11t42.5 -3h2v-45zM331 710q7 18 15 29.5t18.5 17t22.5 5.5q19 0 30.5 -11t11.5 -28q0 -9 -3.5 -19t-10 -20t-15.5 -20l-84 -95h-30v20z" />
    <glyph glyph-name="Ncommaaccent" unicode="&#x145;" horiz-adv-x="800" 
d="M45 0v47h11q25 0 44 4t30 13.5t11 23.5v539q0 15 -11 22.5t-30 10.5t-44 3h-11v47h223l345 -617l-11 -3v558q0 4 -14 7t-35 5.5t-43 2.5h-14v47h267v-47h-12q-24 0 -43.5 -4t-30.5 -13t-11 -24v-622h-96l-376 670l12 4v-612q0 -3 14 -6.5t35.5 -6t42.5 -2.5h14v-47h-267z
M397 -305l-58 28q22 14 41.5 30t32 33.5t12.5 33.5l17 -12q-7 -3 -14 -3.5t-12 -0.5q-29 0 -46.5 15t-17.5 38q0 24 16 38.5t40 14.5q28 0 46 -17.5t18 -52.5q0 -29 -8.5 -53.5t-25.5 -46.5t-41 -45z" />
    <glyph glyph-name="ncommaaccent" unicode="&#x146;" horiz-adv-x="645" 
d="M38 0v45h2q24 0 42.5 3t29 11t10.5 22v334q0 15 -8 22.5t-24.5 12.5t-41.5 10l-10 2v46h164v-106l9 -11v-336q0 -3 12 -5.5t29 -3.5t31 -1h3v-45h-248zM622 0h-248v45h2q14 0 31 1t29.5 3.5t12.5 5.5v291q0 38 -8 62t-26.5 35.5t-50.5 11.5q-33 0 -63 -13t-56.5 -38.5
t-50.5 -63.5v68q27 37 54.5 61.5t59.5 36.5t71 12q48 0 83.5 -17t55.5 -52.5t20 -91.5v-276q0 -14 10.5 -22t29 -11t42.5 -3h2v-45zM323 -305l-58 28q22 14 41.5 30t32 33.5t12.5 33.5l17 -12q-7 -3 -14 -3.5t-12 -0.5q-29 0 -46.5 15t-17.5 38q0 24 16 38.5t40 14.5
q28 0 46 -17.5t18 -52.5q0 -29 -8.5 -53.5t-25.5 -46.5t-41 -45z" />
    <glyph glyph-name="Ncaron" unicode="&#x147;" horiz-adv-x="800" 
d="M45 0v47h11q25 0 44 4t30 13.5t11 23.5v539q0 15 -11 22.5t-30 10.5t-44 3h-11v47h223l345 -617l-11 -3v558q0 4 -14 7t-35 5.5t-43 2.5h-14v47h267v-47h-12q-24 0 -43.5 -4t-30.5 -13t-11 -24v-622h-96l-376 670l12 4v-612q0 -3 14 -6.5t35.5 -6t42.5 -2.5h14v-47h-267z
M354 758h90l108 134v13h-40l-113 -89h10l-113 89h-50v-13z" />
    <glyph glyph-name="ncaron" unicode="&#x148;" horiz-adv-x="645" 
d="M38 0v45h2q24 0 42.5 3t29 11t10.5 22v334q0 15 -8 22.5t-24.5 12.5t-41.5 10l-10 2v46h164v-106l9 -11v-336q0 -3 12 -5.5t29 -3.5t31 -1h3v-45h-248zM622 0h-248v45h2q14 0 31 1t29.5 3.5t12.5 5.5v291q0 38 -8 62t-26.5 35.5t-50.5 11.5q-33 0 -63 -13t-56.5 -38.5
t-50.5 -63.5v68q27 37 54.5 61.5t59.5 36.5t71 12q48 0 83.5 -17t55.5 -52.5t20 -91.5v-276q0 -14 10.5 -22t29 -11t42.5 -3h2v-45zM288 574h76l109 157v10h-35l-117 -114h20l-117 114h-45v-10z" />
    <glyph glyph-name="napostrophe" unicode="&#x149;" horiz-adv-x="635" 
d="M28 0v45h2q24 0 42.5 3t29 11t10.5 22v334q0 15 -8 22.5t-24.5 12.5t-41.5 10l-10 2v46h164v-106l9 -11v-336q0 -3 12 -5.5t29 -3.5t31 -1h3v-45h-248zM612 0h-248v45h2q14 0 31 1t29.5 3.5t12.5 5.5v291q0 38 -8 62t-26.5 35.5t-50.5 11.5q-33 0 -63 -13t-56.5 -38.5
t-50.5 -63.5v68q27 37 54.5 61.5t59.5 36.5t71 12q48 0 83.5 -17t55.5 -52.5t20 -91.5v-276q0 -14 10.5 -22t29 -11t42.5 -3h2v-45zM-101 425l-69 32q20 17 38.5 36t34 39.5t25 41.5t10.5 40l14 -16q-7 -1 -13 -1.5t-11 -0.5q-31 0 -50.5 15.5t-19.5 43.5q0 26 18.5 43
t45.5 17q31 0 50 -18.5t19 -58.5q0 -30 -7.5 -60t-20 -57.5t-29 -52t-35.5 -43.5z" />
    <glyph glyph-name="Eng" unicode="&#x14a;" horiz-adv-x="800" 
d="M666 -11q0 -56 -15.5 -94.5t-41.5 -62t-57 -34t-63 -10.5q-27 0 -56.5 4t-44.5 8v65q13 -3 29 -6t33.5 -5t35.5 -2q33 0 59.5 14t41.5 44.5t15 78.5v39l41 -112l-451 754l14 4v-612q0 -3 14 -6.5t35.5 -6t42.5 -2.5h14v-47h-267v47h11q25 0 44 4t30 13.5t11 23.5v539
q0 15 -11 22.5t-30 10.5t-44 3h-11v47h223l367 -607l-33 -13v558q0 4 -14 7t-35 5.5t-43 2.5h-14v47h267v-47h-12q-24 0 -43.5 -4t-30.5 -13t-11 -24v-633z" />
    <glyph glyph-name="eng" unicode="&#x14b;" horiz-adv-x="620" 
d="M38 0v45h2q24 0 42.5 3t29 11t10.5 22v334q0 15 -8 22.5t-24.5 12.5t-41.5 10l-10 2v46h164v-106l9 -11v-336q0 -3 12 -5.5t29 -3.5t31 -1h3v-45h-248zM449 -45v391q0 38 -8 62t-26.5 35.5t-50.5 11.5q-36 0 -68.5 -15.5t-60.5 -45.5t-53 -75l-30 25q35 59 68 97.5
t71.5 57.5t87.5 19q48 0 83.5 -17t55.5 -52.5t20 -91.5v-402q0 -56 -16 -93t-42.5 -58.5t-60 -30.5t-68.5 -9q-22 0 -43.5 3t-35.5 7v63q17 -4 35.5 -7.5t40.5 -3.5q31 0 53.5 11.5t35 40t12.5 77.5z" />
    <glyph glyph-name="Omacron" unicode="&#x14c;" horiz-adv-x="794" 
d="M397 -10q-74 0 -137.5 26.5t-111.5 75t-74.5 115.5t-26.5 148t26.5 148t74.5 115.5t111.5 75t137.5 26.5t137.5 -26.5t111.5 -75t74.5 -115.5t26.5 -148t-26.5 -148t-74.5 -115.5t-111.5 -75t-137.5 -26.5zM397 50q54 0 100 21t79.5 61t52 96.5t18.5 126.5t-18.5 126.5
t-52 96.5t-79.5 61t-100 21t-100 -21t-79.5 -61t-52 -96.5t-18.5 -126.5t18.5 -126.5t52 -96.5t79.5 -61t100 -21zM252 862h290v-65h-290v65z" />
    <glyph glyph-name="omacron" unicode="&#x14d;" horiz-adv-x="614" 
d="M568 254q0 -77 -33.5 -137t-92.5 -93.5t-135 -33.5t-135 33.5t-92.5 93.5t-33.5 137q0 58 19 106.5t54.5 83.5t83 54.5t104.5 19.5t104.5 -19.5t83 -54.5t54.5 -83.5t19 -106.5zM140 254q0 -62 20.5 -109t58 -72.5t88.5 -25.5q52 0 89 25.5t57.5 72.5t20.5 109
q0 63 -20.5 109.5t-57.5 72t-89 25.5q-51 0 -88.5 -25.5t-58 -72t-20.5 -109.5zM162 694h290v-65h-290v65z" />
    <glyph glyph-name="Obreve" unicode="&#x14e;" horiz-adv-x="794" 
d="M397 -10q-74 0 -137.5 26.5t-111.5 75t-74.5 115.5t-26.5 148t26.5 148t74.5 115.5t111.5 75t137.5 26.5t137.5 -26.5t111.5 -75t74.5 -115.5t26.5 -148t-26.5 -148t-74.5 -115.5t-111.5 -75t-137.5 -26.5zM397 50q54 0 100 21t79.5 61t52 96.5t18.5 126.5t-18.5 126.5
t-52 96.5t-79.5 61t-100 21t-100 -21t-79.5 -61t-52 -96.5t-18.5 -126.5t18.5 -126.5t52 -96.5t79.5 -61t100 -21zM397 759q42 0 73 16t49 47.5t22 76.5h-58q-5 -26 -15.5 -41.5t-27 -22t-40.5 -6.5t-41 6.5t-28 22t-16 41.5h-63q4 -45 22.5 -76.5t49.5 -47.5t73 -16z" />
    <glyph glyph-name="obreve" unicode="&#x14f;" horiz-adv-x="614" 
d="M568 254q0 -77 -33.5 -137t-92.5 -93.5t-135 -33.5t-135 33.5t-92.5 93.5t-33.5 137q0 58 19 106.5t54.5 83.5t83 54.5t104.5 19.5t104.5 -19.5t83 -54.5t54.5 -83.5t19 -106.5zM140 254q0 -62 20.5 -109t58 -72.5t88.5 -25.5q52 0 89 25.5t57.5 72.5t20.5 109
q0 63 -20.5 109.5t-57.5 72t-89 25.5q-51 0 -88.5 -25.5t-58 -72t-20.5 -109.5zM307 582q39 0 69 17t48.5 51.5t20.5 88.5h-55q-3 -34 -13.5 -53t-27 -27t-39.5 -8t-40 8t-27 27t-14 53h-60q3 -54 21 -88.5t48.5 -51.5t68.5 -17z" />
    <glyph glyph-name="Ohungarumlaut" unicode="&#x150;" horiz-adv-x="794" 
d="M397 -10q-74 0 -137.5 26.5t-111.5 75t-74.5 115.5t-26.5 148t26.5 148t74.5 115.5t111.5 75t137.5 26.5t137.5 -26.5t111.5 -75t74.5 -115.5t26.5 -148t-26.5 -148t-74.5 -115.5t-111.5 -75t-137.5 -26.5zM397 50q54 0 100 21t79.5 61t52 96.5t18.5 126.5t-18.5 126.5
t-52 96.5t-79.5 61t-100 21t-100 -21t-79.5 -61t-52 -96.5t-18.5 -126.5t18.5 -126.5t52 -96.5t79.5 -61t100 -21zM310 854q6 22 14 34.5t18.5 18t22.5 5.5q19 0 32 -11t13 -30t-12.5 -34t-32.5 -35l-44 -44h-31v23zM474 854q6 22 14 34.5t18.5 18t22.5 5.5q19 0 32 -11
t13 -30t-12.5 -34t-32.5 -35l-44 -44h-31v23z" />
    <glyph glyph-name="ohungarumlaut" unicode="&#x151;" horiz-adv-x="614" 
d="M568 254q0 -77 -33.5 -137t-92.5 -93.5t-135 -33.5t-135 33.5t-92.5 93.5t-33.5 137q0 58 19 106.5t54.5 83.5t83 54.5t104.5 19.5t104.5 -19.5t83 -54.5t54.5 -83.5t19 -106.5zM140 254q0 -62 20.5 -109t58 -72.5t88.5 -25.5q52 0 89 25.5t57.5 72.5t20.5 109
q0 63 -20.5 109.5t-57.5 72t-89 25.5q-51 0 -88.5 -25.5t-58 -72t-20.5 -109.5zM231 710q6 29 18.5 40.5t31.5 11.5t30.5 -11t11.5 -28q0 -13 -6 -27.5t-17 -31.5l-63 -95h-30v20zM384 710q6 29 18.5 40.5t31.5 11.5t30.5 -11t11.5 -28q0 -13 -6 -27.5t-17 -31.5l-63 -95
h-30v20z" />
    <glyph glyph-name="OE" unicode="&#x152;" horiz-adv-x="1020" 
d="M587 390q41 2 81.5 3t81.5 2.5t81 2.5v-70q-40 2 -81 3t-81.5 2.5t-81.5 2.5v54zM422 57h103v596h-103q-64 0 -115.5 -20t-87.5 -59t-55 -94.5t-19 -126.5t19 -126t55 -93t87.5 -57.5t115.5 -19.5zM422 0q-84 0 -152.5 24.5t-118.5 70.5t-77 111.5t-27 146.5t27 146.5
t77 113t118.5 72.5t152.5 25h508v-192h-56l-9 90q-2 18 -15 27.5t-40 12.5t-70 3h-123v-592h152q32 0 55.5 1.5t38.5 6.5t22.5 13t8.5 22l9 115h57v-217h-538z" />
    <glyph glyph-name="oe" unicode="&#x153;" horiz-adv-x="968" 
d="M557 250q0 -48 12 -86t34.5 -64t53.5 -39.5t69 -13.5q42 0 71 16.5t49.5 40t34.5 45.5l47 -42q-19 -32 -46.5 -59t-66.5 -42.5t-91 -15.5q-54 0 -99.5 19.5t-79 55t-52 83.5t-18.5 104q0 55 17.5 103.5t49.5 85t75 57.5t94 21q53 0 94 -18t69 -54t42.5 -90t14.5 -126
h-404l-1 56h338l-28 -22q-1 67 -14.5 110.5t-41 65t-69.5 21.5q-34 0 -62.5 -14.5t-49 -42.5t-31.5 -67t-11 -88zM546 254q0 -55 -17.5 -103t-50 -84t-77 -56.5t-98.5 -20.5q-74 0 -132.5 33.5t-91.5 93t-33 137.5q0 59 19 107.5t53.5 83.5t81.5 54t103 19q54 0 98.5 -20.5
t77 -57t50 -84.5t17.5 -102zM140 254q0 -62 20 -109t56.5 -72.5t86.5 -25.5t86.5 25.5t56.5 72t20 109.5q0 62 -20 108.5t-56.5 72.5t-86.5 26t-86.5 -26t-56.5 -72.5t-20 -108.5z" />
    <glyph glyph-name="Racute" unicode="&#x154;" horiz-adv-x="695" 
d="M358 321l168 -321h146v47h-9q-16 0 -29.5 2t-23 8t-16.5 18l-147 261zM233 57v594h98q53 0 88.5 -17.5t53.5 -50t18 -77.5q0 -46 -17.5 -79.5t-53.5 -51.5t-93 -18h-114v-56h114q17 0 33 1.5t31 3.5t29 5q54 13 92 40.5t58.5 66.5t20.5 88q0 61 -31 107t-88.5 71.5
t-138.5 25.5h-288v-47h11q37 0 61 -7t24 -29v-544q0 -22 -24 -29t-61 -7h-11v-47h278v47h-13q-13 0 -26.5 0.5t-25 2t-18.5 3t-7 4.5zM370 875l-64 -87v-22h28l82 44q18 10 31 20t20 21.5t7 23.5q0 16 -11.5 28.5t-30.5 12.5q-12 0 -23 -5t-20 -14t-19 -22z" />
    <glyph glyph-name="racute" unicode="&#x155;" horiz-adv-x="411" 
d="M388 515v-89q-7 3 -16.5 4.5t-19.5 2.5t-19 1q-27 0 -47 -7.5t-35.5 -22.5t-28.5 -38t-28 -55v66q15 42 37.5 73.5t53 49.5t69.5 18q10 0 19.5 -0.5t14.5 -2.5zM38 0v45h2q36 0 59 7t23 29v334q0 15 -8 22.5t-24.5 12.5t-41.5 10l-10 2v46h164v-147l9 9v-290
q0 -16 14.5 -23.5t34 -9.5t33.5 -2h17v-45h-272zM253 710q7 18 15 29.5t18.5 17t22.5 5.5q19 0 30.5 -11t11.5 -28q0 -9 -3.5 -19t-10 -20t-15.5 -20l-84 -95h-30v20z" />
    <glyph glyph-name="Rcommaaccent" unicode="&#x156;" horiz-adv-x="695" 
d="M358 321l168 -321h146v47h-9q-16 0 -29.5 2t-23 8t-16.5 18l-147 261zM233 57v594h98q53 0 88.5 -17.5t53.5 -50t18 -77.5q0 -46 -17.5 -79.5t-53.5 -51.5t-93 -18h-114v-56h114q17 0 33 1.5t31 3.5t29 5q54 13 92 40.5t58.5 66.5t20.5 88q0 61 -31 107t-88.5 71.5
t-138.5 25.5h-288v-47h11q37 0 61 -7t24 -29v-544q0 -22 -24 -29t-61 -7h-11v-47h278v47h-13q-13 0 -26.5 0.5t-25 2t-18.5 3t-7 4.5zM349 -305l-58 28q22 14 41.5 30t32 33.5t12.5 33.5l17 -12q-7 -3 -14 -3.5t-12 -0.5q-29 0 -46.5 15t-17.5 38q0 24 16 38.5t40 14.5
q28 0 46 -17.5t18 -52.5q0 -29 -8.5 -53.5t-25.5 -46.5t-41 -45z" />
    <glyph glyph-name="rcommaaccent" unicode="&#x157;" horiz-adv-x="411" 
d="M388 515v-89q-7 3 -16.5 4.5t-19.5 2.5t-19 1q-27 0 -47 -7.5t-35.5 -22.5t-28.5 -38t-28 -55v66q15 42 37.5 73.5t53 49.5t69.5 18q10 0 19.5 -0.5t14.5 -2.5zM38 0v45h2q36 0 59 7t23 29v334q0 15 -8 22.5t-24.5 12.5t-41.5 10l-10 2v46h164v-147l9 9v-290
q0 -16 14.5 -23.5t34 -9.5t33.5 -2h17v-45h-272zM158 -305l-58 28q22 14 41.5 30t32 33.5t12.5 33.5l17 -12q-7 -3 -14 -3.5t-12 -0.5q-29 0 -46.5 15t-17.5 38q0 24 16 38.5t40 14.5q28 0 46 -17.5t18 -52.5q0 -29 -8.5 -53.5t-25.5 -46.5t-41 -45z" />
    <glyph glyph-name="Rcaron" unicode="&#x158;" horiz-adv-x="695" 
d="M358 321l168 -321h146v47h-9q-16 0 -29.5 2t-23 8t-16.5 18l-147 261zM233 57v594h98q53 0 88.5 -17.5t53.5 -50t18 -77.5q0 -46 -17.5 -79.5t-53.5 -51.5t-93 -18h-114v-56h114q17 0 33 1.5t31 3.5t29 5q54 13 92 40.5t58.5 66.5t20.5 88q0 61 -31 107t-88.5 71.5
t-138.5 25.5h-288v-47h11q37 0 61 -7t24 -29v-544q0 -22 -24 -29t-61 -7h-11v-47h278v47h-13q-13 0 -26.5 0.5t-25 2t-18.5 3t-7 4.5zM290 758h90l108 134v13h-40l-113 -89h10l-113 89h-50v-13z" />
    <glyph glyph-name="rcaron" unicode="&#x159;" horiz-adv-x="411" 
d="M388 515v-89q-7 3 -16.5 4.5t-19.5 2.5t-19 1q-27 0 -47 -7.5t-35.5 -22.5t-28.5 -38t-28 -55v66q15 42 37.5 73.5t53 49.5t69.5 18q10 0 19.5 -0.5t14.5 -2.5zM38 0v45h2q36 0 59 7t23 29v334q0 15 -8 22.5t-24.5 12.5t-41.5 10l-10 2v46h164v-147l9 9v-290
q0 -16 14.5 -23.5t34 -9.5t33.5 -2h17v-45h-272zM189 574h76l109 157v10h-35l-117 -114h20l-117 114h-45v-10z" />
    <glyph glyph-name="Sacute" unicode="&#x15a;" horiz-adv-x="623" 
d="M338 50q45 0 77.5 13t50.5 40.5t18 69.5q0 39 -16 65t-43 42.5t-61.5 28t-71.5 21.5q-40 11 -79.5 25t-71.5 37t-51 58t-19 88q0 56 28.5 96.5t76 63t104.5 22.5q45 0 85 -12.5t74 -44.5t58 -92l-36 -6l15 145h57v-186h-64q-16 43 -42.5 73.5t-61.5 47t-76 16.5
q-42 0 -72 -14t-46 -39.5t-16 -61.5q0 -34 16 -56.5t43 -37.5t62 -25.5t72 -20.5q42 -11 82 -25.5t72.5 -37.5t51.5 -59t19 -90q0 -65 -31.5 -111t-84 -69.5t-115.5 -23.5q-57 0 -109.5 18.5t-93.5 58.5t-64 107l46 -4l-15 -170h-61v221h64q17 -50 50 -89t79 -60.5
t100 -21.5zM339 875l-64 -87v-22h28l82 44q18 10 31 20t20 21.5t7 23.5q0 16 -11.5 28.5t-30.5 12.5q-12 0 -23 -5t-20 -14t-19 -22z" />
    <glyph glyph-name="sacute" unicode="&#x15b;" horiz-adv-x="475" 
d="M358 132q0 21 -11 35t-29.5 23.5t-42 16t-49.5 12.5q-31 8 -61.5 18t-55.5 26.5t-40 42t-15 64.5q0 44 22 77.5t63.5 52t100.5 18.5q46 0 80.5 -7t57.5 -17.5t34 -19.5v-109h-86v94q11 0 18.5 -3.5t11.5 -10t5 -15.5t-2 -20q-11 17 -29 28.5t-40.5 17t-49.5 5.5
q-52 0 -78 -22.5t-26 -57.5q0 -22 11.5 -37t31 -24.5t44 -16.5t51.5 -14q30 -7 60 -17t54.5 -26t39 -41t14.5 -63q0 -43 -24 -77.5t-68.5 -54.5t-107.5 -20q-48 0 -86.5 7.5t-68.5 20t-54 27.5v115h88v-127q-15 9 -23 18t-11 18t-2 18.5t4 19.5q17 -21 40 -34t51 -19.5
t61 -6.5q36 0 62 10t40.5 29t14.5 46zM256 710q7 18 15 29.5t18.5 17t22.5 5.5q19 0 30.5 -11t11.5 -28q0 -9 -3.5 -19t-10 -20t-15.5 -20l-84 -95h-30v20z" />
    <glyph glyph-name="Scircumflex" unicode="&#x15c;" horiz-adv-x="623" 
d="M338 50q45 0 77.5 13t50.5 40.5t18 69.5q0 39 -16 65t-43 42.5t-61.5 28t-71.5 21.5q-40 11 -79.5 25t-71.5 37t-51 58t-19 88q0 56 28.5 96.5t76 63t104.5 22.5q45 0 85 -12.5t74 -44.5t58 -92l-36 -6l15 145h57v-186h-64q-16 43 -42.5 73.5t-61.5 47t-76 16.5
q-42 0 -72 -14t-46 -39.5t-16 -61.5q0 -34 16 -56.5t43 -37.5t62 -25.5t72 -20.5q42 -11 82 -25.5t72.5 -37.5t51.5 -59t19 -90q0 -65 -31.5 -111t-84 -69.5t-115.5 -23.5q-57 0 -109.5 18.5t-93.5 58.5t-64 107l46 -4l-15 -170h-61v221h64q17 -50 50 -89t79 -60.5
t100 -21.5zM356 905h-90l-108 -134v-13h40l113 89h-10l113 -89h50v13z" />
    <glyph glyph-name="scircumflex" unicode="&#x15d;" horiz-adv-x="475" 
d="M358 132q0 21 -11 35t-29.5 23.5t-42 16t-49.5 12.5q-31 8 -61.5 18t-55.5 26.5t-40 42t-15 64.5q0 44 22 77.5t63.5 52t100.5 18.5q46 0 80.5 -7t57.5 -17.5t34 -19.5v-109h-86v94q11 0 18.5 -3.5t11.5 -10t5 -15.5t-2 -20q-11 17 -29 28.5t-40.5 17t-49.5 5.5
q-52 0 -78 -22.5t-26 -57.5q0 -22 11.5 -37t31 -24.5t44 -16.5t51.5 -14q30 -7 60 -17t54.5 -26t39 -41t14.5 -63q0 -43 -24 -77.5t-68.5 -54.5t-107.5 -20q-48 0 -86.5 7.5t-68.5 20t-54 27.5v115h88v-127q-15 9 -23 18t-11 18t-2 18.5t4 19.5q17 -21 40 -34t51 -19.5
t61 -6.5q36 0 62 10t40.5 29t14.5 46zM283 741h-76l-109 -157v-10h35l117 114h-20l117 -114h45v10z" />
    <glyph glyph-name="Scedilla" unicode="&#x15e;" horiz-adv-x="623" 
d="M338 50q45 0 77.5 13t50.5 40.5t18 69.5q0 39 -16 65t-43 42.5t-61.5 28t-71.5 21.5q-40 11 -79.5 25t-71.5 37t-51 58t-19 88q0 56 28.5 96.5t76 63t104.5 22.5q45 0 85 -12.5t74 -44.5t58 -92l-36 -6l15 145h57v-186h-64q-16 43 -42.5 73.5t-61.5 47t-76 16.5
q-42 0 -72 -14t-46 -39.5t-16 -61.5q0 -34 16 -56.5t43 -37.5t62 -25.5t72 -20.5q42 -11 82 -25.5t72.5 -37.5t51.5 -59t19 -90q0 -65 -31.5 -111t-84 -69.5t-115.5 -23.5q-57 0 -109.5 18.5t-93.5 58.5t-64 107l46 -4l-15 -170h-61v221h64q17 -50 50 -89t79 -60.5
t100 -21.5zM317 4l-41 -71l-9 9q38 2 68 -8t47.5 -29.5t17.5 -48.5q0 -24 -9.5 -41.5t-26.5 -28.5t-39 -16.5t-47 -5.5q-42 0 -70.5 15t-45.5 40l36 34q9 -11 20.5 -21t26 -16t31.5 -6q23 0 36 11t13 33q0 23 -16 37t-57 14h-26l29 99h62z" />
    <glyph glyph-name="scedilla" unicode="&#x15f;" horiz-adv-x="475" 
d="M358 132q0 21 -11 35t-29.5 23.5t-42 16t-49.5 12.5q-31 8 -61.5 18t-55.5 26.5t-40 42t-15 64.5q0 44 22 77.5t63.5 52t100.5 18.5q46 0 80.5 -7t57.5 -17.5t34 -19.5v-109h-86v94q11 0 18.5 -3.5t11.5 -10t5 -15.5t-2 -20q-11 17 -29 28.5t-40.5 17t-49.5 5.5
q-52 0 -78 -22.5t-26 -57.5q0 -22 11.5 -37t31 -24.5t44 -16.5t51.5 -14q30 -7 60 -17t54.5 -26t39 -41t14.5 -63q0 -43 -24 -77.5t-68.5 -54.5t-107.5 -20q-48 0 -86.5 7.5t-68.5 20t-54 27.5v115h88v-127q-15 9 -23 18t-11 18t-2 18.5t4 19.5q17 -21 40 -34t51 -19.5
t61 -6.5q36 0 62 10t40.5 29t14.5 46zM248 4l-41 -71l-9 9q38 2 68 -8t47.5 -29.5t17.5 -48.5q0 -24 -9.5 -41.5t-26.5 -28.5t-39 -16.5t-47 -5.5q-42 0 -70.5 15t-45.5 40l36 34q9 -11 20.5 -21t26 -16t31.5 -6q23 0 36 11t13 33q0 23 -16 37t-57 14h-26l29 99h62z" />
    <glyph glyph-name="Scaron" unicode="&#x160;" horiz-adv-x="623" 
d="M338 50q45 0 77.5 13t50.5 40.5t18 69.5q0 39 -16 65t-43 42.5t-61.5 28t-71.5 21.5q-40 11 -79.5 25t-71.5 37t-51 58t-19 88q0 56 28.5 96.5t76 63t104.5 22.5q45 0 85 -12.5t74 -44.5t58 -92l-36 -6l15 145h57v-186h-64q-16 43 -42.5 73.5t-61.5 47t-76 16.5
q-42 0 -72 -14t-46 -39.5t-16 -61.5q0 -34 16 -56.5t43 -37.5t62 -25.5t72 -20.5q42 -11 82 -25.5t72.5 -37.5t51.5 -59t19 -90q0 -65 -31.5 -111t-84 -69.5t-115.5 -23.5q-57 0 -109.5 18.5t-93.5 58.5t-64 107l46 -4l-15 -170h-61v221h64q17 -50 50 -89t79 -60.5
t100 -21.5zM256 758h90l108 134v13h-40l-113 -89h10l-113 89h-50v-13z" />
    <glyph glyph-name="scaron" unicode="&#x161;" horiz-adv-x="475" 
d="M358 132q0 21 -11 35t-29.5 23.5t-42 16t-49.5 12.5q-31 8 -61.5 18t-55.5 26.5t-40 42t-15 64.5q0 44 22 77.5t63.5 52t100.5 18.5q46 0 80.5 -7t57.5 -17.5t34 -19.5v-109h-86v94q11 0 18.5 -3.5t11.5 -10t5 -15.5t-2 -20q-11 17 -29 28.5t-40.5 17t-49.5 5.5
q-52 0 -78 -22.5t-26 -57.5q0 -22 11.5 -37t31 -24.5t44 -16.5t51.5 -14q30 -7 60 -17t54.5 -26t39 -41t14.5 -63q0 -43 -24 -77.5t-68.5 -54.5t-107.5 -20q-48 0 -86.5 7.5t-68.5 20t-54 27.5v115h88v-127q-15 9 -23 18t-11 18t-2 18.5t4 19.5q17 -21 40 -34t51 -19.5
t61 -6.5q36 0 62 10t40.5 29t14.5 46zM198 574h76l109 157v10h-35l-117 -114h20l-117 114h-45v-10z" />
    <glyph glyph-name="Tcommaaccent" unicode="&#x162;" horiz-adv-x="669" 
d="M288 83v571h-58q-43 0 -70 -3t-40 -12.5t-15 -27.5l-9 -98h-56v197h589v-197h-56l-9 98q-1 18 -14.5 27.5t-40.5 12.5t-70 3h-58v-571q0 -22 24 -29t61 -7h16v-47h-295v47h16q37 0 61 7t24 29zM324 -305l-58 28q22 14 41.5 30t32 33.5t12.5 33.5l17 -12q-7 -3 -14 -3.5
t-12 -0.5q-29 0 -46.5 15t-17.5 38q0 24 16 38.5t40 14.5q28 0 46 -17.5t18 -52.5q0 -29 -8.5 -53.5t-25.5 -46.5t-41 -45z" />
    <glyph glyph-name="tcommaaccent" unicode="&#x163;" horiz-adv-x="373" 
d="M8 451v52h5q30 0 51.5 4t32.5 15t11 31l65 -45h168v-57h-333zM190 174q0 -44 11.5 -71.5t32.5 -40t49 -12.5q21 0 39 4t31 8v-57q-9 -4 -21.5 -7.5t-26.5 -5.5t-30 -2q-44 0 -84 16t-65 56t-25 111v319l7 7v149h82v-474zM207 -305l-58 28q22 14 41.5 30t32 33.5
t12.5 33.5l17 -12q-7 -3 -14 -3.5t-12 -0.5q-29 0 -46.5 15t-17.5 38q0 24 16 38.5t40 14.5q28 0 46 -17.5t18 -52.5q0 -29 -8.5 -53.5t-25.5 -46.5t-41 -45z" />
    <glyph glyph-name="Tcaron" unicode="&#x164;" horiz-adv-x="669" 
d="M288 83v571h-58q-43 0 -70 -3t-40 -12.5t-15 -27.5l-9 -98h-56v197h589v-197h-56l-9 98q-1 18 -14.5 27.5t-40.5 12.5t-70 3h-58v-571q0 -22 24 -29t61 -7h16v-47h-295v47h16q37 0 61 7t24 29zM289 758h90l108 134v13h-40l-113 -89h10l-113 89h-50v-13z" />
    <glyph glyph-name="tcaron" unicode="&#x165;" horiz-adv-x="373" 
d="M8 451v52h5q30 0 51.5 4t32.5 15t11 31l65 -45h168v-57h-333zM190 174q0 -44 11.5 -71.5t32.5 -40t49 -12.5q21 0 39 4t31 8v-57q-9 -4 -21.5 -7.5t-26.5 -5.5t-30 -2q-44 0 -84 16t-65 56t-25 111v319l7 7v149h82v-474zM289 552l55 184h-91l-18 -174v-10h54z" />
    <glyph glyph-name="Tbar" unicode="&#x166;" horiz-adv-x="669" 
d="M140 380h389v-52h-389v52zM288 83v571h-58q-43 0 -70 -3t-40 -12.5t-15 -27.5l-9 -98h-56v197h589v-197h-56l-9 98q-1 18 -14.5 27.5t-40.5 12.5t-70 3h-58v-571q0 -22 24 -29t61 -7h16v-47h-295v47h16q37 0 61 7t24 29z" />
    <glyph glyph-name="tbar" unicode="&#x167;" horiz-adv-x="373" 
d="M8 272v52h333v-52h-333zM8 451v52h5q30 0 51.5 4t32.5 15t11 31l65 -45h168v-57h-333zM190 174q0 -44 11.5 -71.5t32.5 -40t49 -12.5q21 0 39 4t31 8v-57q-9 -4 -21.5 -7.5t-26.5 -5.5t-30 -2q-44 0 -84 16t-65 56t-25 111v319l7 7v149h82v-474z" />
    <glyph glyph-name="Utilde" unicode="&#x168;" horiz-adv-x="807" 
d="M232 271q0 -60 14 -101t39 -65t59 -35t75 -11q40 0 73.5 11t58.5 35t38.5 65t13.5 101v370q0 5 -8 9t-21 7t-28.5 4.5t-29.5 1.5h-9v47h257v-47h-11q-24 0 -43.5 -4.5t-30.5 -14.5t-11 -27v-346q0 -75 -20 -128.5t-56 -87.5t-83 -49.5t-101 -15.5q-58 0 -107 16
t-85.5 49.5t-56.5 87t-20 128.5v356q0 22 -24 29t-61 7h-11v47h285v-47h-9q-14 0 -29.5 -0.5t-28.5 -2t-21 -3t-8 -4.5v-382zM465 765q-21 0 -37 5.5t-29.5 13.5t-24.5 15.5t-21 13t-21 5.5q-12 0 -21 -7t-14.5 -19.5t-9.5 -30.5l-50 18q7 35 20.5 58.5t34.5 35.5t50 12
q19 0 34.5 -5.5t28.5 -13t24.5 -15t23 -13t23.5 -5.5q13 0 22 7t15.5 19.5t11.5 29.5l50 -19q-7 -33 -22.5 -56.5t-37.5 -36t-50 -12.5z" />
    <glyph glyph-name="utilde" unicode="&#x169;" horiz-adv-x="624" 
d="M195 508v-345q0 -38 8 -62.5t26.5 -36t50.5 -11.5q33 0 62 13t55 38t49 62v-69q-26 -36 -53 -59.5t-58 -35.5t-70 -12q-47 0 -83 17t-56 53t-20 91v264q0 22 -18 30.5t-56 14.5l-12 2v46h175zM518 508v-427q0 -14 11 -22t29.5 -11t42.5 -3h3v-45h-166v104l-9 13v298
q0 22 -18.5 30.5t-57.5 13.5l-22 3v46h187zM363 597q-20 0 -36 7t-29 18t-24 21.5t-20.5 17.5t-19.5 7q-19 0 -29.5 -19.5t-15.5 -54.5l-47 16q7 42 19.5 69.5t32.5 41.5t48 14q18 0 33 -7t28 -17.5t24.5 -21t22.5 -17.5t22 -7q13 0 21 9t14 25.5t11 38.5l47 -17
q-8 -41 -22 -68.5t-33.5 -41.5t-46.5 -14z" />
    <glyph glyph-name="Umacron" unicode="&#x16a;" horiz-adv-x="807" 
d="M232 271q0 -60 14 -101t39 -65t59 -35t75 -11q40 0 73.5 11t58.5 35t38.5 65t13.5 101v370q0 5 -8 9t-21 7t-28.5 4.5t-29.5 1.5h-9v47h257v-47h-11q-24 0 -43.5 -4.5t-30.5 -14.5t-11 -27v-346q0 -75 -20 -128.5t-56 -87.5t-83 -49.5t-101 -15.5q-58 0 -107 16
t-85.5 49.5t-56.5 87t-20 128.5v356q0 22 -24 29t-61 7h-11v47h285v-47h-9q-14 0 -29.5 -0.5t-28.5 -2t-21 -3t-8 -4.5v-382zM258 862h290v-65h-290v65z" />
    <glyph glyph-name="umacron" unicode="&#x16b;" horiz-adv-x="624" 
d="M195 508v-345q0 -38 8 -62.5t26.5 -36t50.5 -11.5q33 0 62 13t55 38t49 62v-69q-26 -36 -53 -59.5t-58 -35.5t-70 -12q-47 0 -83 17t-56 53t-20 91v264q0 22 -18 30.5t-56 14.5l-12 2v46h175zM518 508v-427q0 -14 11 -22t29.5 -11t42.5 -3h3v-45h-166v104l-9 13v298
q0 22 -18.5 30.5t-57.5 13.5l-22 3v46h187zM157 694h290v-65h-290v65z" />
    <glyph glyph-name="Ubreve" unicode="&#x16c;" horiz-adv-x="807" 
d="M232 271q0 -60 14 -101t39 -65t59 -35t75 -11q40 0 73.5 11t58.5 35t38.5 65t13.5 101v370q0 5 -8 9t-21 7t-28.5 4.5t-29.5 1.5h-9v47h257v-47h-11q-24 0 -43.5 -4.5t-30.5 -14.5t-11 -27v-346q0 -75 -20 -128.5t-56 -87.5t-83 -49.5t-101 -15.5q-58 0 -107 16
t-85.5 49.5t-56.5 87t-20 128.5v356q0 22 -24 29t-61 7h-11v47h285v-47h-9q-14 0 -29.5 -0.5t-28.5 -2t-21 -3t-8 -4.5v-382zM403 759q42 0 73 16t49 47.5t22 76.5h-58q-5 -26 -15.5 -41.5t-27 -22t-40.5 -6.5t-41 6.5t-28 22t-16 41.5h-63q4 -45 22.5 -76.5t49.5 -47.5
t73 -16z" />
    <glyph glyph-name="ubreve" unicode="&#x16d;" horiz-adv-x="624" 
d="M195 508v-345q0 -38 8 -62.5t26.5 -36t50.5 -11.5q33 0 62 13t55 38t49 62v-69q-26 -36 -53 -59.5t-58 -35.5t-70 -12q-47 0 -83 17t-56 53t-20 91v264q0 22 -18 30.5t-56 14.5l-12 2v46h175zM518 508v-427q0 -14 11 -22t29.5 -11t42.5 -3h3v-45h-166v104l-9 13v298
q0 22 -18.5 30.5t-57.5 13.5l-22 3v46h187zM302 582q39 0 69 17t48.5 51.5t20.5 88.5h-55q-3 -34 -13.5 -53t-27 -27t-39.5 -8t-40 8t-27 27t-14 53h-60q3 -54 21 -88.5t48.5 -51.5t68.5 -17z" />
    <glyph glyph-name="Uring" unicode="&#x16e;" horiz-adv-x="807" 
d="M232 271q0 -60 14 -101t39 -65t59 -35t75 -11q40 0 73.5 11t58.5 35t38.5 65t13.5 101v370q0 5 -8 9t-21 7t-28.5 4.5t-29.5 1.5h-9v47h257v-47h-11q-24 0 -43.5 -4.5t-30.5 -14.5t-11 -27v-346q0 -75 -20 -128.5t-56 -87.5t-83 -49.5t-101 -15.5q-58 0 -107 16
t-85.5 49.5t-56.5 87t-20 128.5v356q0 22 -24 29t-61 7h-11v47h285v-47h-9q-14 0 -29.5 -0.5t-28.5 -2t-21 -3t-8 -4.5v-382zM346 858q0 -31 16.5 -47t40.5 -16t40.5 16t16.5 47q0 32 -16.5 47.5t-40.5 15.5t-40.5 -15.5t-16.5 -47.5zM517 858q0 -46 -33.5 -72t-80.5 -26
t-80.5 26t-33.5 72q0 31 15.5 53t41.5 33.5t57 11.5q32 0 57.5 -11.5t41 -33.5t15.5 -53z" />
    <glyph glyph-name="uring" unicode="&#x16f;" horiz-adv-x="624" 
d="M195 508v-345q0 -38 8 -62.5t26.5 -36t50.5 -11.5q33 0 62 13t55 38t49 62v-69q-26 -36 -53 -59.5t-58 -35.5t-70 -12q-47 0 -83 17t-56 53t-20 91v264q0 22 -18 30.5t-56 14.5l-12 2v46h175zM518 508v-427q0 -14 11 -22t29.5 -11t42.5 -3h3v-45h-166v104l-9 13v298
q0 22 -18.5 30.5t-57.5 13.5l-22 3v46h187zM245 673q0 -31 16.5 -47t40.5 -16t40.5 16t16.5 47q0 32 -16.5 47.5t-40.5 15.5t-40.5 -15.5t-16.5 -47.5zM416 673q0 -31 -15.5 -53t-41 -33.5t-57.5 -11.5q-31 0 -57 11.5t-41.5 33.5t-15.5 53t15.5 53t41.5 33.5t57 11.5
q32 0 57.5 -11.5t41 -33.5t15.5 -53z" />
    <glyph glyph-name="Uhungarumlaut" unicode="&#x170;" horiz-adv-x="807" 
d="M232 271q0 -60 14 -101t39 -65t59 -35t75 -11q40 0 73.5 11t58.5 35t38.5 65t13.5 101v370q0 5 -8 9t-21 7t-28.5 4.5t-29.5 1.5h-9v47h257v-47h-11q-24 0 -43.5 -4.5t-30.5 -14.5t-11 -27v-346q0 -75 -20 -128.5t-56 -87.5t-83 -49.5t-101 -15.5q-58 0 -107 16
t-85.5 49.5t-56.5 87t-20 128.5v356q0 22 -24 29t-61 7h-11v47h285v-47h-9q-14 0 -29.5 -0.5t-28.5 -2t-21 -3t-8 -4.5v-382zM316 854q6 22 14 34.5t18.5 18t22.5 5.5q19 0 32 -11t13 -30t-12.5 -34t-32.5 -35l-44 -44h-31v23zM480 854q6 22 14 34.5t18.5 18t22.5 5.5
q19 0 32 -11t13 -30t-12.5 -34t-32.5 -35l-44 -44h-31v23z" />
    <glyph glyph-name="uhungarumlaut" unicode="&#x171;" horiz-adv-x="624" 
d="M195 508v-345q0 -38 8 -62.5t26.5 -36t50.5 -11.5q33 0 62 13t55 38t49 62v-69q-26 -36 -53 -59.5t-58 -35.5t-70 -12q-47 0 -83 17t-56 53t-20 91v264q0 22 -18 30.5t-56 14.5l-12 2v46h175zM518 508v-427q0 -14 11 -22t29.5 -11t42.5 -3h3v-45h-166v104l-9 13v298
q0 22 -18.5 30.5t-57.5 13.5l-22 3v46h187zM219 710q6 29 18.5 40.5t31.5 11.5t30.5 -11t11.5 -28q0 -13 -6 -27.5t-17 -31.5l-63 -95h-30v20zM372 710q6 29 18.5 40.5t31.5 11.5t30.5 -11t11.5 -28q0 -13 -6 -27.5t-17 -31.5l-63 -95h-30v20z" />
    <glyph glyph-name="Uogonek" unicode="&#x172;" horiz-adv-x="807" 
d="M532 45l4 -28q-28 -14 -60.5 -20.5t-67.5 -6.5q-58 0 -107 16t-85.5 49.5t-56.5 87t-20 128.5v356q0 22 -24 29t-61 7h-11v47h285v-47h-9q-14 0 -29.5 -0.5t-28.5 -2t-21 -3t-8 -4.5v-382q0 -60 14 -101t39 -65t59 -35t75 -11q40 0 73.5 11t58.5 35t38.5 65t13.5 101v370
q0 5 -8 9t-21 7t-28.5 4.5t-29.5 1.5h-9v47h257v-47h-11q-24 0 -43.5 -4.5t-30.5 -14.5t-11 -27v-346q0 -48 -8.5 -88t-24.5 -70.5t-39 -53.5q-13 -13 -37 -34.5t-48.5 -47.5t-41.5 -55t-17 -58q0 -25 11.5 -36.5t28.5 -11.5t30 9.5t23 18.5l29 -34q-19 -20 -42 -33t-62 -13
q-31 0 -55.5 11t-38.5 31.5t-14 48.5q0 26 13 49t36.5 45.5t54 46t66.5 49.5z" />
    <glyph glyph-name="uogonek" unicode="&#x173;" horiz-adv-x="624" 
d="M195 508v-345q0 -38 8 -62.5t26.5 -36t50.5 -11.5q33 0 62 13t55 38t49 62v-69q-26 -36 -53 -59.5t-58 -35.5t-70 -12q-47 0 -83 17t-56 53t-20 91v264q0 22 -18 30.5t-56 14.5l-12 2v46h175zM518 508v-427q0 -14 11 -22t29.5 -11t42.5 -3h3v-45h-166v104l-9 13v298
q0 22 -18.5 30.5t-57.5 13.5l-22 3v46h187zM497 35l31 -27q-35 -20 -58 -39t-36 -37.5t-18.5 -35.5t-5.5 -32q0 -25 11.5 -36.5t28.5 -11.5q11 0 20.5 4.5t18 11t14.5 12.5l29 -34q-19 -20 -42 -33t-62 -13q-47 0 -77.5 24t-30.5 67q0 26 12.5 49t35.5 45t56 43.5t73 42.5z
" />
    <glyph glyph-name="Wcircumflex" unicode="&#x174;" horiz-adv-x="1013" 
d="M8 710h259v-47h-17q-19 0 -39 -1t-33.5 -3t-13.5 -6l153 -606h-9l157 663h106l169 -660h-8l140 595q0 6 -13 10t-32.5 6t-38.5 2h-15v47h232v-47h-5q-26 0 -44.5 -8.5t-24.5 -34.5l-150 -620h-110l-166 645h7l-156 -645h-111l-163 626q-7 26 -24 31.5t-45 5.5h-5v47z
M585 905h-90l-108 -134v-13h40l113 89h-10l113 -89h50v13z" />
    <glyph glyph-name="wcircumflex" unicode="&#x175;" horiz-adv-x="827" 
d="M419 409l-16 -1l129 -408h90l126 420q5 16 16 25t26.5 13.5t30.5 4.5h1v45h-217v-45h2q24 0 42.5 -2.5t30 -7t12.5 -11.5l-110 -380h9l-132 446h-71l-129 -447h12l-115 393q0 4 12.5 5.5t33 2.5t43.5 1h2v45h-242v-45h1q16 0 29.5 -2.5t23.5 -9t14 -19.5l134 -432h90z
M474 741h-76l-109 -157v-10h35l117 114h-20l117 -114h45v10z" />
    <glyph glyph-name="Ycircumflex" unicode="&#x176;" horiz-adv-x="683" 
d="M297 315l14 -45l-218 367q-8 13 -19 18.5t-25.5 6.5t-31.5 1h-5v47h264v-47h-17q-18 0 -37 -1t-32.5 -3t-13.5 -6l195 -333l-27 3l182 322q0 6 -13 10t-32 6t-38 2h-15v47h243v-47h-5q-17 0 -32.5 -2.5t-28.5 -11t-24 -27.5l-203 -354l12 47v-232q0 -22 24 -29t61 -7h16
v-47h-295v47h16q37 0 61 7t24 29v232zM401 905h-90l-108 -134v-13h40l113 89h-10l113 -89h50v13z" />
    <glyph glyph-name="ycircumflex" unicode="&#x177;" horiz-adv-x="591" 
d="M332 45l-12 -37l-51 -22l-187 442q-6 14 -16 21.5t-25 10.5t-35 3h-1v45h250v-45h-2q-20 0 -40.5 -1t-34 -2.5t-13.5 -5.5zM342 17q-27 -64 -54 -111.5t-55.5 -77.5t-60.5 -45t-70 -15q-25 0 -41.5 5.5t-27.5 12.5v80q3 -1 12.5 -5.5t24 -8.5t31.5 -4q23 0 46 7.5t47 29
t49 62.5t51 107l7 18l152 369q0 7 -12 11.5t-31 7.5t-39 3h-3v45h218v-45h-1q-15 0 -29 -3.5t-26 -13t-20 -28.5zM340 741h-76l-109 -157v-10h35l117 114h-20l117 -114h45v10z" />
    <glyph glyph-name="Ydieresis" unicode="&#x178;" horiz-adv-x="683" 
d="M297 315l14 -45l-218 367q-8 13 -19 18.5t-25.5 6.5t-31.5 1h-5v47h264v-47h-17q-18 0 -37 -1t-32.5 -3t-13.5 -6l195 -333l-27 3l182 322q0 6 -13 10t-32 6t-38 2h-15v47h243v-47h-5q-17 0 -32.5 -2.5t-28.5 -11t-24 -27.5l-203 -354l12 47v-232q0 -22 24 -29t61 -7h16
v-47h-295v47h16q37 0 61 7t24 29v232zM303 844q0 -28 -17.5 -44.5t-43.5 -16.5t-43.5 16.5t-17.5 44.5t17.5 44t43.5 16t43.5 -16t17.5 -44zM521 844q0 -28 -17.5 -44.5t-43.5 -16.5t-43.5 16.5t-17.5 44.5t17.5 44t43.5 16t43.5 -16t17.5 -44z" />
    <glyph glyph-name="Zacute" unicode="&#x179;" horiz-adv-x="622" 
d="M254 651q-32 0 -55.5 -1.5t-38.5 -6.5t-22.5 -13t-8.5 -22l-9 -95h-56v197h499v-64l-451 -627l-14 40h279q43 0 70 3.5t40.5 12.5t14.5 27l9 110h58v-212h-521v67l439 612l19 -28h-252zM342 875l-64 -87v-22h28l82 44q18 10 31 20t20 21.5t7 23.5q0 16 -11.5 28.5
t-30.5 12.5q-12 0 -23 -5t-20 -14t-19 -22z" />
    <glyph glyph-name="zacute" unicode="&#x17a;" horiz-adv-x="470" 
d="M114 39l-12 16h156q32 0 55 2t38 6.5t22.5 13.5t9.5 23l10 80h54v-180h-414v60l320 407l15 -13h-131q-33 0 -56 -1.5t-37.5 -6.5t-22 -13t-9.5 -22l-9 -65h-53v162h386v-55zM259 710q7 18 15 29.5t18.5 17t22.5 5.5q19 0 30.5 -11t11.5 -28q0 -9 -3.5 -19t-10 -20
t-15.5 -20l-84 -95h-30v20z" />
    <glyph glyph-name="Zdotaccent" unicode="&#x17b;" horiz-adv-x="622" 
d="M254 651q-32 0 -55.5 -1.5t-38.5 -6.5t-22.5 -13t-8.5 -22l-9 -95h-56v197h499v-64l-451 -627l-14 40h279q43 0 70 3.5t40.5 12.5t14.5 27l9 110h58v-212h-521v67l439 612l19 -28h-252zM315 783q-26 0 -43.5 16.5t-17.5 44.5t17.5 44t43.5 16t43.5 -16t17.5 -44
t-17.5 -44.5t-43.5 -16.5z" />
    <glyph glyph-name="zdotaccent" unicode="&#x17c;" horiz-adv-x="470" 
d="M114 39l-12 16h156q32 0 55 2t38 6.5t22.5 13.5t9.5 23l10 80h54v-180h-414v60l320 407l15 -13h-131q-33 0 -56 -1.5t-37.5 -6.5t-22 -13t-9.5 -22l-9 -65h-53v162h386v-55zM240 622q-26 0 -43.5 16.5t-17.5 44.5t17.5 44t43.5 16t43.5 -16t17.5 -44t-17.5 -44.5
t-43.5 -16.5z" />
    <glyph glyph-name="Zcaron" unicode="&#x17d;" horiz-adv-x="622" 
d="M254 651q-32 0 -55.5 -1.5t-38.5 -6.5t-22.5 -13t-8.5 -22l-9 -95h-56v197h499v-64l-451 -627l-14 40h279q43 0 70 3.5t40.5 12.5t14.5 27l9 110h58v-212h-521v67l439 612l19 -28h-252zM268 758h90l108 134v13h-40l-113 -89h10l-113 89h-50v-13z" />
    <glyph glyph-name="zcaron" unicode="&#x17e;" horiz-adv-x="470" 
d="M114 39l-12 16h156q32 0 55 2t38 6.5t22.5 13.5t9.5 23l10 80h54v-180h-414v60l320 407l15 -13h-131q-33 0 -56 -1.5t-37.5 -6.5t-22 -13t-9.5 -22l-9 -65h-53v162h386v-55zM197 574h76l109 157v10h-35l-117 -114h20l-117 114h-45v-10z" />
    <glyph glyph-name="Schwa" unicode="&#x18f;" horiz-adv-x="707" 
d="M341 720q93 0 165 -44.5t113 -125.5t41 -192q0 -82 -24 -149t-67 -116.5t-100 -76t-123 -26.5q-96 0 -162.5 43t-101 129t-35.5 215h567l2 -60h-498l27 22q1 -73 13.5 -127.5t37.5 -90.5t62 -53.5t88 -17.5q45 0 84 21.5t69 61.5t46.5 96.5t16.5 126.5q0 73 -16 129.5
t-45.5 95.5t-71 59t-91.5 20q-58 0 -102 -21.5t-75 -54.5t-51 -66l-56 39q28 45 68 82t94.5 59t124.5 22z" />
    <glyph glyph-name="florin" unicode="&#x192;" 
d="M143 508h352l-6 -57h-352zM259 56q-14 -105 -45.5 -169.5t-75 -93.5t-93.5 -29q-23 0 -42 4.5t-30 9.5l5 66q15 -5 33 -9.5t36 -4.5q20 0 38 8t34 30t29 64t22 110l75 546q9 61 35.5 100.5t69 59t99.5 19.5q26 0 54 -5t47 -14l-5 -66q-24 9 -47 14t-48 5q-32 0 -56.5 -11
t-40 -37t-21.5 -71z" />
    <glyph glyph-name="Ohorn" unicode="&#x1a0;" horiz-adv-x="798" 
d="M396 50q55 0 101 21t80 61t52.5 96.5t18.5 126.5t-18.5 126.5t-52.5 96.5t-80 61t-101 21t-101 -21t-79.5 -61t-52 -96.5t-18.5 -126.5t18.5 -126.5t52 -96.5t79.5 -61t101 -21zM573 651l-15 12q43 -19 77.5 -49.5t59 -70t38 -87.5t13.5 -101q0 -81 -26.5 -148
t-74.5 -115.5t-111.5 -75t-137.5 -26.5q-73 0 -136.5 26.5t-111.5 75t-74.5 115.5t-26.5 148t26.5 148t74.5 115.5t111.5 75t136.5 26.5q24 0 44.5 -2.5t38.5 -5.5t35 -5.5t33 -2.5q36 0 62 13.5t44 37t28.5 55t14.5 67.5h85q-6 -55 -22 -96t-41 -69t-56 -42t-66 -14
q-4 0 -9 0.5t-9.5 1t-9.5 1.5l-10 2l15 3v-13z" />
    <glyph glyph-name="ohorn" unicode="&#x1a1;" horiz-adv-x="626" 
d="M140 254q0 -62 20.5 -109t58 -72.5t88.5 -25.5q52 0 89 25.5t57.5 72t20.5 109.5q0 62 -20.5 108.5t-57.5 72.5t-89 26q-51 0 -88.5 -26t-58 -72.5t-20.5 -108.5zM427 459l-17 13q46 -18 81.5 -48t56 -72t20.5 -98q0 -78 -33.5 -137.5t-92.5 -93t-135 -33.5t-135 33.5
t-92.5 93t-33.5 137.5q0 59 19 107t54 83.5t83.5 54.5t106.5 19q17 0 31 -1.5t26.5 -3.5t24 -3.5t23.5 -1.5q36 0 57.5 24.5t31.5 64t13 83.5h80q-3 -65 -23 -113.5t-53 -75t-76 -26.5h-6t-6.5 0.5t-7 1.5t-7 1.5t-7.5 1.5l17 -1v-10z" />
    <glyph glyph-name="Uhorn" unicode="&#x1af;" horiz-adv-x="827" 
d="M139 271v356q0 22 -24 29t-61 7h-11v47h285v-47h-9q-14 0 -29.5 -0.5t-28.5 -2t-21 -3t-8 -4.5v-382q0 -60 14 -101t39 -65t59 -35t75 -11q53 0 94.5 19.5t65.5 66t24 126.5v370q0 5 -8 9t-21 7t-28.5 4.5t-29.5 1.5h-9v47h123q53 0 83.5 8.5t44.5 27.5t18 51t4 80h85
q0 -41 -6.5 -73.5t-19 -56t-30 -40t-39.5 -26.5t-48 -15q-16 -3 -28.5 -8.5t-19 -14.5t-6.5 -22v-350q0 -75 -20 -128.5t-56 -87.5t-83 -49.5t-101 -15.5q-58 0 -107 16t-85.5 49.5t-56.5 87t-20 128.5z" />
    <glyph glyph-name="uhorn" unicode="&#x1b0;" horiz-adv-x="624" 
d="M195 508v-345q0 -38 8 -62.5t26.5 -36t50.5 -11.5q36 0 68 15.5t60 46t52 75.5l30 -26q-35 -58 -68 -97t-70.5 -58t-86.5 -19q-47 0 -83 17t-56 53t-20 91v262q0 22 -18 30.5t-56 14.5l-12 2v48h175zM416 508q46 0 75 8t44.5 27t21 52.5t5.5 84.5h80q0 -60 -12 -100.5
t-36.5 -64.5t-60.5 -34.5t-84 -11.5l69 24v-412q0 -14 11 -22t29.5 -11t42.5 -3h3v-45h-166v104l-9 13v296q0 22 -18.5 31.5t-57.5 13.5l-22 2v48h85z" />
    <glyph glyph-name="Acaron" unicode="&#x1cd;" horiz-adv-x="699" 
d="M186 300h301l1 -56h-308zM322 672l16 -30l-198 -577q0 -5 13 -9.5t32.5 -6.5t38.5 -2h15v-47h-231v47h5q28 0 44 7.5t26 35.5l214 620h102l222 -635q7 -19 23.5 -23.5t41.5 -4.5h5v-47h-260v47h17q19 0 39 1t33.5 3.5t13.5 5.5zM304 758h90l108 134v13h-40l-113 -89h10
l-113 89h-50v-13z" />
    <glyph glyph-name="acaron" unicode="&#x1ce;" horiz-adv-x="542" 
d="M385 308v-50q-50 -5 -89 -13t-67.5 -19t-46.5 -25.5t-27 -33.5t-9 -42q0 -24 11 -42t31 -28t46 -10q35 0 62.5 17t49 48t37.5 73v-71q-15 -37 -40 -64.5t-58 -42.5t-75 -15q-43 0 -78.5 16t-57 46.5t-21.5 71.5t21 71.5t63 52.5t104 36.5t144 23.5zM368 0v107l-10 3v240
q0 42 -11.5 66.5t-33.5 34.5t-54 10q-49 0 -80.5 -20t-50.5 -47q-2 12 1 22t9 18t14.5 14t18.5 10v-103h-87v103q15 12 40.5 26t61.5 24t79 10q35 0 67 -8t58 -26.5t41 -49t15 -75.5v-278q0 -14 11 -22t29.5 -11t42.5 -3v0v-45h-161zM231 571h76l109 157v10h-35l-117 -114
h20l-117 114h-45v-10z" />
    <glyph glyph-name="Icaron" unicode="&#x1cf;" horiz-adv-x="375" 
d="M141 83v544q0 22 -24 29t-61 7h-11v47h285v-47h-11q-37 0 -61 -7t-24 -29v-544q0 -22 24 -29t61 -7h11v-47h-285v47h11q37 0 61 7t24 29zM142 758h90l108 134v13h-40l-113 -89h10l-113 89h-50v-13z" />
    <glyph glyph-name="icaron" unicode="&#x1d0;" horiz-adv-x="319" 
d="M130 571h76l109 157v10h-35l-117 -114h20l-117 114h-45v-10zM212 508v-427q0 -22 23.5 -29t59.5 -7h1v-45h-257v45h1q36 0 59.5 7t23.5 29v334q0 22 -18 30t-56 15l-11 2v46h174z" />
    <glyph glyph-name="Ocaron" unicode="&#x1d1;" horiz-adv-x="794" 
d="M397 -10q-74 0 -137.5 26.5t-111.5 75t-74.5 115.5t-26.5 148t26.5 148t74.5 115.5t111.5 75t137.5 26.5t137.5 -26.5t111.5 -75t74.5 -115.5t26.5 -148t-26.5 -148t-74.5 -115.5t-111.5 -75t-137.5 -26.5zM397 50q54 0 100 21t79.5 61t52 96.5t18.5 126.5t-18.5 126.5
t-52 96.5t-79.5 61t-100 21t-100 -21t-79.5 -61t-52 -96.5t-18.5 -126.5t18.5 -126.5t52 -96.5t79.5 -61t100 -21zM352 758h90l108 134v13h-40l-113 -89h10l-113 89h-50v-13z" />
    <glyph glyph-name="ocaron" unicode="&#x1d2;" horiz-adv-x="614" 
d="M568 254q0 -77 -33.5 -137t-92.5 -93.5t-135 -33.5t-135 33.5t-92.5 93.5t-33.5 137q0 58 19 106.5t54.5 83.5t83 54.5t104.5 19.5t104.5 -19.5t83 -54.5t54.5 -83.5t19 -106.5zM140 254q0 -62 20.5 -109t58 -72.5t88.5 -25.5q52 0 89 25.5t57.5 72.5t20.5 109
q0 63 -20.5 109.5t-57.5 72t-89 25.5q-51 0 -88.5 -25.5t-58 -72t-20.5 -109.5zM269 571h76l109 157v10h-35l-117 -114h20l-117 114h-45v-10z" />
    <glyph glyph-name="Ucaron" unicode="&#x1d3;" horiz-adv-x="807" 
d="M232 271q0 -60 14 -101t39 -65t59 -35t75 -11q40 0 73.5 11t58.5 35t38.5 65t13.5 101v370q0 5 -8 9t-21 7t-28.5 4.5t-29.5 1.5h-9v47h257v-47h-11q-24 0 -43.5 -4.5t-30.5 -14.5t-11 -27v-346q0 -75 -20 -128.5t-56 -87.5t-83 -49.5t-101 -15.5q-58 0 -107 16
t-85.5 49.5t-56.5 87t-20 128.5v356q0 22 -24 29t-61 7h-11v47h285v-47h-9q-14 0 -29.5 -0.5t-28.5 -2t-21 -3t-8 -4.5v-382zM374 758h90l108 134v13h-40l-113 -89h10l-113 89h-50v-13z" />
    <glyph glyph-name="ucaron" unicode="&#x1d4;" horiz-adv-x="624" 
d="M195 508v-345q0 -38 8 -62.5t26.5 -36t50.5 -11.5q33 0 62 13t55 38t49 62v-69q-26 -36 -53 -59.5t-58 -35.5t-70 -12q-47 0 -83 17t-56 53t-20 91v264q0 22 -18 30.5t-56 14.5l-12 2v46h175zM518 508v-427q0 -14 11 -22t29.5 -11t42.5 -3h3v-45h-166v104l-9 13v298
q0 22 -18.5 30.5t-57.5 13.5l-22 3v46h187zM259 571h76l109 157v10h-35l-117 -114h20l-117 114h-45v-10z" />
    <glyph glyph-name="Udieresiscaron" unicode="&#x1d9;" horiz-adv-x="807" 
d="M232 271q0 -60 14 -101t39 -65t59 -35t75 -11q40 0 73.5 11t58.5 35t38.5 65t13.5 101v370q0 5 -8 9t-21 7t-28.5 4.5t-29.5 1.5h-9v47h257v-47h-11q-24 0 -43.5 -4.5t-30.5 -14.5t-11 -27v-346q0 -75 -20 -128.5t-56 -87.5t-83 -49.5t-101 -15.5q-58 0 -107 16
t-85.5 49.5t-56.5 87t-20 128.5v356q0 22 -24 29t-61 7h-11v47h285v-47h-9q-14 0 -29.5 -0.5t-28.5 -2t-21 -3t-8 -4.5v-382zM355 844q0 -28 -17.5 -44.5t-43.5 -16.5t-43.5 16.5t-17.5 44.5t17.5 44t43.5 16t43.5 -16t17.5 -44zM573 844q0 -28 -17.5 -44.5t-43.5 -16.5
t-43.5 16.5t-17.5 44.5t17.5 44t43.5 16t43.5 -16t17.5 -44zM358 936h90l108 134v13h-40l-113 -89h10l-113 89h-50v-13z" />
    <glyph glyph-name="udieresiscaron" unicode="&#x1da;" horiz-adv-x="624" 
d="M195 508v-345q0 -38 8 -62.5t26.5 -36t50.5 -11.5q33 0 62 13t55 38t49 62v-69q-26 -36 -53 -59.5t-58 -35.5t-70 -12q-47 0 -83 17t-56 53t-20 91v264q0 22 -18 30.5t-56 14.5l-12 2v46h175zM518 508v-427q0 -14 11 -22t29.5 -11t42.5 -3h3v-45h-166v104l-9 13v298
q0 22 -18.5 30.5t-57.5 13.5l-22 3v46h187zM252 669q0 -28 -17.5 -44.5t-43.5 -16.5t-43.5 16.5t-17.5 44.5t17.5 44t43.5 16t43.5 -16t17.5 -44zM470 669q0 -28 -17.5 -44.5t-43.5 -16.5t-43.5 16.5t-17.5 44.5t17.5 44t43.5 16t43.5 -16t17.5 -44zM262 769h76l109 157v10
h-35l-117 -114h20l-117 114h-45v-10z" />
    <glyph glyph-name="Gcaron" unicode="&#x1e6;" horiz-adv-x="773" 
d="M679 270v-166q-15 -19 -41.5 -39t-63 -37t-79 -27.5t-89.5 -10.5q-81 0 -147 26t-113.5 74.5t-73 115.5t-25.5 149q0 80 26.5 147t74 116t110.5 75.5t135 26.5q66 0 116 -20.5t83.5 -58t48.5 -88.5h-36l16 157h60v-214h-67q-16 49 -45.5 85t-73 56.5t-102.5 20.5
q-53 0 -98 -21.5t-78 -61.5t-51.5 -95.5t-18.5 -124.5q0 -70 17.5 -126.5t51.5 -95.5t82 -60t109 -21q52 0 89 12.5t60 28.5t33 25v152q0 22 -24 29t-61 7h-11v47h265v-47h-4q-32 0 -53.5 -7t-21.5 -29zM352 758h90l108 134v13h-40l-113 -89h10l-113 89h-50v-13z" />
    <glyph glyph-name="gcaron" unicode="&#x1e7;" horiz-adv-x="568" 
d="M563 437q-44 4 -75 4t-51.5 -6t-33.5 -23l-13 15q14 29 32.5 49.5t40.5 33.5t47 17.5t53 1.5v-92zM271 151q-58 0 -103.5 22.5t-71.5 63.5t-26 96t26.5 96.5t72 65t102.5 23.5q58 0 103.5 -23.5t72 -65t26.5 -96.5t-26.5 -96t-72 -63.5t-103.5 -22.5zM271 209
q35 0 60.5 14.5t39.5 42t14 67.5t-14 68.5t-39.5 43.5t-60.5 15q-34 0 -59.5 -15t-39.5 -43.5t-14 -68.5t14 -67.5t39.5 -42t59.5 -14.5zM256 -236q-67 0 -121 12.5t-85.5 41.5t-31.5 77q0 24 12.5 44t37.5 37.5t64 35.5l37 -26q-25 -12 -41 -26t-23.5 -29t-7.5 -32
q0 -24 17 -40.5t52.5 -25.5t90.5 -9h35q51 0 90.5 12.5t62 34.5t22.5 50q0 29 -21.5 41.5t-80.5 12.5h-224h-4q-32 17 -51 32.5t-26.5 32.5t-7.5 36q0 24 12 45t36 40.5t61 36.5l38 -27q-20 -10 -35 -21t-22.5 -23t-7.5 -26q0 -21 21.5 -30.5t61.5 -9.5h150
q60 0 100.5 -13.5t61.5 -41t21 -69.5q0 -59 -35.5 -97.5t-94 -57t-127.5 -18.5h-37zM241 574h76l109 157v10h-35l-117 -114h20l-117 114h-45v-10z" />
    <glyph glyph-name="Oogonek" unicode="&#x1ea;" horiz-adv-x="794" 
d="M397 50q54 0 100 21t79.5 61t52 96.5t18.5 126.5t-18.5 126.5t-52 96.5t-79.5 61t-100 21q-55 0 -100.5 -21t-79 -61t-52 -96.5t-18.5 -126.5t18.5 -126.5t52 -96.5t79.5 -61t100 -21zM629 76q-23 -22 -51 -41.5t-56 -38t-51 -38.5t-37 -43t-14 -51q0 -25 11.5 -36.5
t28.5 -11.5t30 9.5t23 18.5l29 -34q-12 -13 -26.5 -23.5t-33 -16.5t-44.5 -6q-31 0 -55.5 11t-38.5 31.5t-14 48.5q0 26 13 49.5t38 45t60.5 42t79.5 39.5l-10 -23q-17 -6 -36 -10t-38.5 -6t-39.5 -2q-74 0 -137.5 26.5t-111.5 75t-74.5 115.5t-26.5 148t26.5 148
t74.5 115.5t111.5 75t137.5 26.5t137.5 -26.5t111.5 -75t74.5 -115.5t26.5 -148q0 -56 -13.5 -107t-39.5 -94.5t-65 -77.5z" />
    <glyph glyph-name="oogonek" unicode="&#x1eb;" horiz-adv-x="614" 
d="M140 253q0 -63 20.5 -109.5t58 -72.5t88.5 -26q52 0 89 25.5t57.5 72.5t20.5 110q0 62 -20.5 109t-57.5 73t-89 26q-51 0 -88.5 -26t-58 -73t-20.5 -109zM435 35l-10 -22q-17 -8 -36.5 -13.5t-39.5 -8.5t-42 -3q-76 0 -135 33.5t-92.5 93t-33.5 138.5q0 59 19 107.5
t54.5 84t83 54.5t104.5 19t104.5 -19.5t83 -54.5t54.5 -83.5t19 -107.5q0 -39 -8.5 -74.5t-26.5 -66.5t-47 -59q-30 -29 -56.5 -52t-47.5 -44t-32.5 -43.5t-11.5 -49.5q0 -25 11.5 -36.5t28.5 -11.5t30 9.5t23 18.5l29 -34q-19 -20 -42 -33t-62 -13q-47 0 -77.5 24t-30.5 67
q0 26 12.5 49t36.5 45t59 43.5t79 42.5z" />
    <glyph glyph-name="Aringacute" unicode="&#x1fa;" horiz-adv-x="699" 
d="M186 300h301l1 -56h-308zM322 672l16 -30l-198 -577q0 -5 13 -9.5t32.5 -6.5t38.5 -2h15v-47h-231v47h5q28 0 44 7.5t26 35.5l214 620h102l222 -635q7 -19 23.5 -23.5t41.5 -4.5h5v-47h-260v47h17q19 0 39 1t33.5 3.5t13.5 5.5zM278 858q0 -31 16.5 -47t40.5 -16t40.5 16
t16.5 47q0 32 -16.5 47.5t-40.5 15.5t-40.5 -15.5t-16.5 -47.5zM449 858q0 -46 -33.5 -72t-80.5 -26t-80.5 26t-33.5 72q0 31 15.5 53t41.5 33.5t57 11.5q32 0 57.5 -11.5t41 -33.5t15.5 -53zM373 1111l-64 -87v-22h28l82 44q18 10 31 20t20 21.5t7 23.5q0 16 -11.5 28.5
t-30.5 12.5q-12 0 -23 -5t-20 -14t-19 -22z" />
    <glyph glyph-name="aringacute" unicode="&#x1fb;" horiz-adv-x="542" 
d="M385 308v-50q-50 -5 -89 -13t-67.5 -19t-46.5 -25.5t-27 -33.5t-9 -42q0 -24 11 -42t31 -28t46 -10q35 0 62.5 17t49 48t37.5 73v-71q-15 -37 -40 -64.5t-58 -42.5t-75 -15q-43 0 -78.5 16t-57 46.5t-21.5 71.5t21 71.5t63 52.5t104 36.5t144 23.5zM368 0v107l-10 3v240
q0 42 -11.5 66.5t-33.5 34.5t-54 10q-49 0 -80.5 -20t-50.5 -47q-2 12 1 22t9 18t14.5 14t18.5 10v-103h-87v103q15 12 40.5 26t61.5 24t79 10q35 0 67 -8t58 -26.5t41 -49t15 -75.5v-278q0 -14 11 -22t29.5 -11t42.5 -3v0v-45h-161zM211 660q0 -31 16.5 -47t40.5 -16
t40.5 16t16.5 47q0 32 -16.5 47.5t-40.5 15.5t-40.5 -15.5t-16.5 -47.5zM382 660q0 -31 -15.5 -53t-41 -33.5t-57.5 -11.5q-31 0 -57 11.5t-41.5 33.5t-15.5 53t15.5 53t41.5 33.5t57 11.5q32 0 57.5 -11.5t41 -33.5t15.5 -53zM306 913l-64 -87v-22h28l82 44q18 10 31 20
t20 21.5t7 23.5q0 16 -11.5 28.5t-30.5 12.5q-12 0 -23 -5t-20 -14t-19 -22z" />
    <glyph glyph-name="AEacute" unicode="&#x1fc;" horiz-adv-x="987" 
d="M260 300h247v-56h-279zM549 389q42 2 83.5 3t83 2.5t82.5 2.5v-68q-41 2 -82.5 3t-83 2.5t-83.5 2.5v52zM391 0v47h9q19 0 39 1t34 3.5t14 5.5v597v0l-344 -589q0 -5 13 -9.5t32.5 -6.5t38.5 -2h15v-47h-232v47h5q19 0 30.5 3.5t20.5 13t19 26.5l324 543q0 12 -14.5 18.5
t-36.5 9t-47 2.5h-11v47h597v-192h-56l-9 90q-2 18 -15 27.5t-40 12.5t-70 3h-128v-592h157q32 0 55.5 1.5t38.5 6.5t22.5 13.5t8.5 21.5l9 115h57v-217h-536zM604 875l-64 -87v-22h28l82 44q18 10 31 20t20 21.5t7 23.5q0 16 -11.5 28.5t-30.5 12.5q-12 0 -23 -5t-20 -14
t-19 -22z" />
    <glyph glyph-name="aeacute" unicode="&#x1fd;" horiz-adv-x="842" 
d="M394 291l-2 -51q-52 -2 -92.5 -7.5t-70 -14t-48.5 -21.5t-28.5 -30.5t-9.5 -39.5q0 -25 11.5 -42.5t32 -27t48.5 -9.5q37 0 66.5 17.5t52 48t37.5 70.5l37 -37q-15 -37 -35.5 -66t-47 -49.5t-58.5 -31t-69 -10.5q-49 0 -87 16.5t-59.5 47t-21.5 72.5q0 41 21.5 71
t65 49.5t108 30.5t149.5 14zM262 518q42 0 75 -10t56 -31t35 -53t12 -77l-75 -70v73q0 42 -12.5 66.5t-36 34.5t-57.5 10q-52 0 -83.5 -20t-50.5 -47q-2 12 1 22t9 18t14.5 14t18.5 10v-103h-87v103q15 12 40.5 26t61.5 24t79 10zM611 47q39 0 66 16.5t46.5 40t33.5 45.5
l47 -42q-19 -32 -46 -59t-63.5 -42.5t-85.5 -15.5q-69 0 -124 32t-87.5 91t-32.5 139q0 14 3 26t7.5 23t9.5 20t9 17q12 42 30.5 75t44 57t58 36.5t72.5 12.5q50 0 88.5 -17.5t65 -53t40.5 -88.5t14 -125h-384l-1 56h318l-28 -26q-1 50 -8 87t-21.5 61.5t-36 36.5t-50.5 12
q-31 0 -57 -15t-45.5 -42.5t-30 -66.5t-10.5 -88q0 -48 12 -86t33 -64t50 -39.5t63 -13.5zM453 707q7 18 15 29.5t18.5 17t22.5 5.5q19 0 30.5 -11t11.5 -28q0 -9 -3.5 -19t-10 -20t-15.5 -20l-84 -95h-30v20z" />
    <glyph glyph-name="Oslashacute" unicode="&#x1fe;" horiz-adv-x="793" 
d="M397 660q-55 0 -100.5 -21t-79 -61t-52 -96.5t-18.5 -126.5q0 -78 17 -135t49.5 -95t79 -56.5t104.5 -18.5q54 0 100 21t79.5 61t52 96.5t18.5 126.5q0 78 -17 135t-49.5 95t-79 56.5t-104.5 18.5zM397 -10q-74 0 -137.5 26.5t-111.5 75t-74.5 115.5t-26.5 148t26.5 148
t74.5 115.5t111.5 75t137.5 26.5t137.5 -26.5t111.5 -75t74.5 -115.5t26.5 -148t-26.5 -148t-74.5 -115.5t-111.5 -75t-137.5 -26.5zM8 -15l683 740h84l-683 -740h-84zM430 875l-64 -87v-22h28l82 44q18 10 31 20t20 21.5t7 23.5q0 16 -11.5 28.5t-30.5 12.5q-12 0 -23 -5
t-20 -14t-19 -22z" />
    <glyph glyph-name="oslashacute" unicode="&#x1ff;" horiz-adv-x="614" 
d="M-2 -15l523 538h84l-523 -538h-84zM136 254q0 -64 19.5 -110.5t58 -71.5t93.5 -25q53 0 91.5 25.5t59 72t20.5 109.5q0 65 -19.5 111t-57.5 71t-94 25q-53 0 -91.5 -25.5t-59 -72t-20.5 -109.5zM46 254q0 59 19 107.5t54.5 83.5t83 54t104.5 19t104.5 -19t83 -54.5
t54.5 -83.5t19 -107q0 -78 -33.5 -137.5t-92.5 -93t-135 -33.5t-135 33.5t-92.5 93t-33.5 137.5zM326 710q7 18 15 29.5t18.5 17t22.5 5.5q19 0 30.5 -11t11.5 -28q0 -9 -3.5 -19t-10 -20t-15.5 -20l-84 -95h-30v20z" />
    <glyph glyph-name="Adblgrave" unicode="&#x200;" horiz-adv-x="699" 
d="M186 300h301l1 -56h-308zM322 672l16 -30l-198 -577q0 -5 13 -9.5t32.5 -6.5t38.5 -2h15v-47h-231v47h5q28 0 44 7.5t26 35.5l214 620h102l222 -635q7 -19 23.5 -23.5t41.5 -4.5h5v-47h-260v47h17q19 0 39 1t33.5 3.5t13.5 5.5zM426 854q-6 22 -14 34.5t-18.5 18
t-22.5 5.5q-19 0 -32 -11t-13 -30t12.5 -34t32.5 -35l44 -44h31v23zM262 854q-6 22 -14 34.5t-18.5 18t-22.5 5.5q-19 0 -32 -11t-13 -30t12.5 -34t32.5 -35l44 -44h31v23z" />
    <glyph glyph-name="adblgrave" unicode="&#x201;" horiz-adv-x="542" 
d="M385 308v-50q-50 -5 -89 -13t-67.5 -19t-46.5 -25.5t-27 -33.5t-9 -42q0 -24 11 -42t31 -28t46 -10q35 0 62.5 17t49 48t37.5 73v-71q-15 -37 -40 -64.5t-58 -42.5t-75 -15q-43 0 -78.5 16t-57 46.5t-21.5 71.5t21 71.5t63 52.5t104 36.5t144 23.5zM368 0v107l-10 3v240
q0 42 -11.5 66.5t-33.5 34.5t-54 10q-49 0 -80.5 -20t-50.5 -47q-2 12 1 22t9 18t14.5 14t18.5 10v-103h-87v103q15 12 40.5 26t61.5 24t79 10q35 0 67 -8t58 -26.5t41 -49t15 -75.5v-278q0 -14 11 -22t29.5 -11t42.5 -3v0v-45h-161zM348 710q-6 29 -18.5 40.5t-31.5 11.5
t-30.5 -11t-11.5 -28q0 -13 6 -27.5t17 -31.5l63 -95h30v20zM195 710q-6 29 -18.5 40.5t-31.5 11.5t-30.5 -11t-11.5 -28q0 -13 6 -27.5t17 -31.5l63 -95h30v20z" />
    <glyph glyph-name="Ainvertedbreve" unicode="&#x202;" horiz-adv-x="699" 
d="M186 300h301l1 -56h-308zM322 672l16 -30l-198 -577q0 -5 13 -9.5t32.5 -6.5t38.5 -2h15v-47h-231v47h5q28 0 44 7.5t26 35.5l214 620h102l222 -635q7 -19 23.5 -23.5t41.5 -4.5h5v-47h-260v47h17q19 0 39 1t33.5 3.5t13.5 5.5zM357 899q-42 0 -73 -16t-49 -47.5
t-22 -76.5h58q5 26 15.5 41.5t27 22t40.5 6.5t41 -6.5t28 -22t16 -41.5h63q-4 45 -22.5 76.5t-49.5 47.5t-73 16z" />
    <glyph glyph-name="ainvertedbreve" unicode="&#x203;" horiz-adv-x="542" 
d="M385 308v-50q-50 -5 -89 -13t-67.5 -19t-46.5 -25.5t-27 -33.5t-9 -42q0 -24 11 -42t31 -28t46 -10q35 0 62.5 17t49 48t37.5 73v-71q-15 -37 -40 -64.5t-58 -42.5t-75 -15q-43 0 -78.5 16t-57 46.5t-21.5 71.5t21 71.5t63 52.5t104 36.5t144 23.5zM368 0v107l-10 3v240
q0 42 -11.5 66.5t-33.5 34.5t-54 10q-49 0 -80.5 -20t-50.5 -47q-2 12 1 22t9 18t14.5 14t18.5 10v-103h-87v103q15 12 40.5 26t61.5 24t79 10q35 0 67 -8t58 -26.5t41 -49t15 -75.5v-278q0 -14 11 -22t29.5 -11t42.5 -3v0v-45h-161zM268 739q-39 0 -69 -17t-48.5 -51.5
t-20.5 -88.5h55q3 34 13.5 53t27 27t39.5 8t40 -8t27 -27t14 -53h60q-3 54 -21 88.5t-48.5 51.5t-68.5 17z" />
    <glyph glyph-name="Edblgrave" unicode="&#x204;" horiz-adv-x="641" 
d="M581 217v-217h-536v47h11q37 0 61 7t24 29v544q0 22 -24 29t-61 7h-11v47h506v-192h-56l-9 90q-2 18 -15 27.5t-40 12.5t-70 3h-128v-592h157q32 0 55.5 1.5t38.5 6.5t22.5 13.5t8.5 21.5l9 115h57zM203 390q42 2 83.5 3t83 2.5t82.5 2.5v-70q-41 2 -82.5 3.5l-83 3
t-83.5 2.5v53zM430 854q-6 22 -14 34.5t-18.5 18t-22.5 5.5q-19 0 -32 -11t-13 -30t12.5 -34t32.5 -35l44 -44h31v23zM266 854q-6 22 -14 34.5t-18.5 18t-22.5 5.5q-19 0 -32 -11t-13 -30t12.5 -34t32.5 -35l44 -44h31v23z" />
    <glyph glyph-name="edblgrave" unicode="&#x205;" horiz-adv-x="549" 
d="M137 250q0 -48 12.5 -86t35.5 -64t54 -39.5t67 -13.5q41 0 70.5 16t50 39.5t34.5 46.5l47 -42q-19 -32 -47 -59t-66.5 -42.5t-90.5 -15.5q-73 0 -131.5 32t-92.5 91t-34 139q0 79 32 138.5t86.5 93.5t121.5 34q55 0 96.5 -18t70 -53.5t43.5 -89.5t15 -126h-392v56h325
l-28 -22q-1 50 -9 87t-24 61t-40 36t-57 12q-31 0 -58 -14.5t-47.5 -42t-32 -66.5t-11.5 -88zM370 710q-6 29 -18.5 40.5t-31.5 11.5t-30.5 -11t-11.5 -28q0 -13 6 -27.5t17 -31.5l63 -95h30v20zM217 710q-6 29 -18.5 40.5t-31.5 11.5t-30.5 -11t-11.5 -28q0 -13 6 -27.5
t17 -31.5l63 -95h30v20z" />
    <glyph glyph-name="Einvertedbreve" unicode="&#x206;" horiz-adv-x="641" 
d="M581 217v-217h-536v47h11q37 0 61 7t24 29v544q0 22 -24 29t-61 7h-11v47h506v-192h-56l-9 90q-2 18 -15 27.5t-40 12.5t-70 3h-128v-592h157q32 0 55.5 1.5t38.5 6.5t22.5 13.5t8.5 21.5l9 115h57zM203 390q42 2 83.5 3t83 2.5t82.5 2.5v-70q-41 2 -82.5 3.5l-83 3
t-83.5 2.5v53zM321 899q-42 0 -73 -16t-49 -47.5t-22 -76.5h58q5 26 15.5 41.5t27 22t40.5 6.5t41 -6.5t28 -22t16 -41.5h63q-4 45 -22.5 76.5t-49.5 47.5t-73 16z" />
    <glyph glyph-name="einvertedbreve" unicode="&#x207;" horiz-adv-x="549" 
d="M137 250q0 -48 12.5 -86t35.5 -64t54 -39.5t67 -13.5q41 0 70.5 16t50 39.5t34.5 46.5l47 -42q-19 -32 -47 -59t-66.5 -42.5t-90.5 -15.5q-73 0 -131.5 32t-92.5 91t-34 139q0 79 32 138.5t86.5 93.5t121.5 34q55 0 96.5 -18t70 -53.5t43.5 -89.5t15 -126h-392v56h325
l-28 -22q-1 50 -9 87t-24 61t-40 36t-57 12q-31 0 -58 -14.5t-47.5 -42t-32 -66.5t-11.5 -88zM284 739q-39 0 -69 -17t-48.5 -51.5t-20.5 -88.5h55q3 34 13.5 53t27 27t39.5 8t40 -8t27 -27t14 -53h60q-3 54 -21 88.5t-48.5 51.5t-68.5 17z" />
    <glyph glyph-name="Idblgrave" unicode="&#x208;" horiz-adv-x="375" 
d="M141 83v544q0 22 -24 29t-61 7h-11v47h285v-47h-11q-37 0 -61 -7t-24 -29v-544q0 -22 24 -29t61 -7h11v-47h-285v47h11q37 0 61 7t24 29zM285 854q-6 22 -14 34.5t-18.5 18t-22.5 5.5q-19 0 -32 -11t-13 -30t12.5 -34t32.5 -35l44 -44h31v23zM121 854q-6 22 -14 34.5
t-18.5 18t-22.5 5.5q-19 0 -32 -11t-13 -30t12.5 -34t32.5 -35l44 -44h31v23z" />
    <glyph glyph-name="idblgrave" unicode="&#x209;" horiz-adv-x="319" 
d="M212 508v-427q0 -22 23.5 -29t59.5 -7h1v-45h-257v45h1q36 0 59.5 7t23.5 29v334q0 22 -18 30t-56 15l-11 2v46h174zM229 710q-6 29 -18.5 40.5t-31.5 11.5t-30.5 -11t-11.5 -28q0 -13 6 -27.5t17 -31.5l63 -95h30v20zM76 710q-6 29 -18.5 40.5t-31.5 11.5t-30.5 -11
t-11.5 -28q0 -13 6 -27.5t17 -31.5l63 -95h30v20z" />
    <glyph glyph-name="Iinvertedbreve" unicode="&#x20a;" horiz-adv-x="375" 
d="M141 83v544q0 22 -24 29t-61 7h-11v47h285v-47h-11q-37 0 -61 -7t-24 -29v-544q0 -22 24 -29t61 -7h11v-47h-285v47h11q37 0 61 7t24 29zM187 899q-42 0 -73 -16t-49 -47.5t-22 -76.5h58q5 26 15.5 41.5t27 22t40.5 6.5t41 -6.5t28 -22t16 -41.5h63q-4 45 -22.5 76.5
t-49.5 47.5t-73 16z" />
    <glyph glyph-name="iinvertedbreve" unicode="&#x20b;" horiz-adv-x="319" 
d="M147 739q-38 0 -68.5 -16.5t-48.5 -51.5t-21 -89h55q4 34 14 53t26.5 27t39.5 8t40 -8t27.5 -27t13.5 -53h60q-2 54 -20.5 89t-48.5 51.5t-69 16.5zM212 508v-427q0 -22 23.5 -29t59.5 -7h1v-45h-257v45h1q36 0 59.5 7t23.5 29v334q0 22 -18 30t-56 15l-11 2v46h174z" />
    <glyph glyph-name="Odblgrave" unicode="&#x20c;" horiz-adv-x="794" 
d="M397 -10q-74 0 -137.5 26.5t-111.5 75t-74.5 115.5t-26.5 148t26.5 148t74.5 115.5t111.5 75t137.5 26.5t137.5 -26.5t111.5 -75t74.5 -115.5t26.5 -148t-26.5 -148t-74.5 -115.5t-111.5 -75t-137.5 -26.5zM397 50q54 0 100 21t79.5 61t52 96.5t18.5 126.5t-18.5 126.5
t-52 96.5t-79.5 61t-100 21t-100 -21t-79.5 -61t-52 -96.5t-18.5 -126.5t18.5 -126.5t52 -96.5t79.5 -61t100 -21zM503 854q-6 22 -14 34.5t-18.5 18t-22.5 5.5q-19 0 -32 -11t-13 -30t12.5 -34t32.5 -35l44 -44h31v23zM339 854q-6 22 -14 34.5t-18.5 18t-22.5 5.5
q-19 0 -32 -11t-13 -30t12.5 -34t32.5 -35l44 -44h31v23z" />
    <glyph glyph-name="odblgrave" unicode="&#x20d;" horiz-adv-x="614" 
d="M568 254q0 -77 -33.5 -137t-92.5 -93.5t-135 -33.5t-135 33.5t-92.5 93.5t-33.5 137q0 58 19 106.5t54.5 83.5t83 54.5t104.5 19.5t104.5 -19.5t83 -54.5t54.5 -83.5t19 -106.5zM140 254q0 -62 20.5 -109t58 -72.5t88.5 -25.5q52 0 89 25.5t57.5 72.5t20.5 109
q0 63 -20.5 109.5t-57.5 72t-89 25.5q-51 0 -88.5 -25.5t-58 -72t-20.5 -109.5zM394 710q-6 29 -18.5 40.5t-31.5 11.5t-30.5 -11t-11.5 -28q0 -13 6 -27.5t17 -31.5l63 -95h30v20zM241 710q-6 29 -18.5 40.5t-31.5 11.5t-30.5 -11t-11.5 -28q0 -13 6 -27.5t17 -31.5l63 -95
h30v20z" />
    <glyph glyph-name="Oinvertedbreve" unicode="&#x20e;" horiz-adv-x="794" 
d="M397 -10q-74 0 -137.5 26.5t-111.5 75t-74.5 115.5t-26.5 148t26.5 148t74.5 115.5t111.5 75t137.5 26.5t137.5 -26.5t111.5 -75t74.5 -115.5t26.5 -148t-26.5 -148t-74.5 -115.5t-111.5 -75t-137.5 -26.5zM397 50q54 0 100 21t79.5 61t52 96.5t18.5 126.5t-18.5 126.5
t-52 96.5t-79.5 61t-100 21t-100 -21t-79.5 -61t-52 -96.5t-18.5 -126.5t18.5 -126.5t52 -96.5t79.5 -61t100 -21zM397 899q-42 0 -73 -16t-49 -47.5t-22 -76.5h58q5 26 15.5 41.5t27 22t40.5 6.5t41 -6.5t28 -22t16 -41.5h63q-4 45 -22.5 76.5t-49.5 47.5t-73 16z" />
    <glyph glyph-name="oinvertedbreve" unicode="&#x20f;" horiz-adv-x="614" 
d="M568 254q0 -77 -33.5 -137t-92.5 -93.5t-135 -33.5t-135 33.5t-92.5 93.5t-33.5 137q0 58 19 106.5t54.5 83.5t83 54.5t104.5 19.5t104.5 -19.5t83 -54.5t54.5 -83.5t19 -106.5zM140 254q0 -62 20.5 -109t58 -72.5t88.5 -25.5q52 0 89 25.5t57.5 72.5t20.5 109
q0 63 -20.5 109.5t-57.5 72t-89 25.5q-51 0 -88.5 -25.5t-58 -72t-20.5 -109.5zM307 739q-39 0 -69 -17t-48.5 -51.5t-20.5 -88.5h55q3 34 13.5 53t27 27t39.5 8t40 -8t27 -27t14 -53h60q-3 54 -21 88.5t-48.5 51.5t-68.5 17z" />
    <glyph glyph-name="Rdblgrave" unicode="&#x210;" horiz-adv-x="695" 
d="M358 321l168 -321h146v47h-9q-16 0 -29.5 2t-23 8t-16.5 18l-147 261zM233 57v594h98q53 0 88.5 -17.5t53.5 -50t18 -77.5q0 -46 -17.5 -79.5t-53.5 -51.5t-93 -18h-114v-56h114q17 0 33 1.5t31 3.5t29 5q54 13 92 40.5t58.5 66.5t20.5 88q0 61 -31 107t-88.5 71.5
t-138.5 25.5h-288v-47h11q37 0 61 -7t24 -29v-544q0 -22 -24 -29t-61 -7h-11v-47h278v47h-13q-13 0 -26.5 0.5t-25 2t-18.5 3t-7 4.5zM436 854q-6 22 -14 34.5t-18.5 18t-22.5 5.5q-19 0 -32 -11t-13 -30t12.5 -34t32.5 -35l44 -44h31v23zM272 854q-6 22 -14 34.5t-18.5 18
t-22.5 5.5q-19 0 -32 -11t-13 -30t12.5 -34t32.5 -35l44 -44h31v23z" />
    <glyph glyph-name="rdblgrave" unicode="&#x211;" horiz-adv-x="411" 
d="M388 515v-89q-7 3 -16.5 4.5t-19.5 2.5t-19 1q-27 0 -47 -7.5t-35.5 -22.5t-28.5 -38t-28 -55v66q15 42 37.5 73.5t53 49.5t69.5 18q10 0 19.5 -0.5t14.5 -2.5zM38 0v45h2q36 0 59 7t23 29v334q0 15 -8 22.5t-24.5 12.5t-41.5 10l-10 2v46h164v-147l9 9v-290
q0 -16 14.5 -23.5t34 -9.5t33.5 -2h17v-45h-272zM318 710q-6 29 -18.5 40.5t-31.5 11.5t-30.5 -11t-11.5 -28q0 -13 6 -27.5t17 -31.5l63 -95h30v20zM165 710q-6 29 -18.5 40.5t-31.5 11.5t-30.5 -11t-11.5 -28q0 -13 6 -27.5t17 -31.5l63 -95h30v20z" />
    <glyph glyph-name="Rinvertedbreve" unicode="&#x212;" horiz-adv-x="695" 
d="M358 321l168 -321h146v47h-9q-16 0 -29.5 2t-23 8t-16.5 18l-147 261zM233 57v594h98q53 0 88.5 -17.5t53.5 -50t18 -77.5q0 -46 -17.5 -79.5t-53.5 -51.5t-93 -18h-114v-56h114q17 0 33 1.5t31 3.5t29 5q54 13 92 40.5t58.5 66.5t20.5 88q0 61 -31 107t-88.5 71.5
t-138.5 25.5h-288v-47h11q37 0 61 -7t24 -29v-544q0 -22 -24 -29t-61 -7h-11v-47h278v47h-13q-13 0 -26.5 0.5t-25 2t-18.5 3t-7 4.5zM337 899q-42 0 -73 -16t-49 -47.5t-22 -76.5h58q5 26 15.5 41.5t27 22t40.5 6.5t41 -6.5t28 -22t16 -41.5h63q-4 45 -22.5 76.5
t-49.5 47.5t-73 16z" />
    <glyph glyph-name="rinvertedbreve" unicode="&#x213;" horiz-adv-x="411" 
d="M388 515v-89q-7 3 -16.5 4.5t-19.5 2.5t-19 1q-27 0 -47 -7.5t-35.5 -22.5t-28.5 -38t-28 -55v66q15 42 37.5 73.5t53 49.5t69.5 18q10 0 19.5 -0.5t14.5 -2.5zM38 0v45h2q36 0 59 7t23 29v334q0 15 -8 22.5t-24.5 12.5t-41.5 10l-10 2v46h164v-147l9 9v-290
q0 -16 14.5 -23.5t34 -9.5t33.5 -2h17v-45h-272zM228 739q-39 0 -69 -17t-48.5 -51.5t-20.5 -88.5h55q3 34 13.5 53t27 27t39.5 8t40 -8t27 -27t14 -53h60q-3 54 -21 88.5t-48.5 51.5t-68.5 17z" />
    <glyph glyph-name="Udblgrave" unicode="&#x214;" horiz-adv-x="807" 
d="M232 271q0 -60 14 -101t39 -65t59 -35t75 -11q40 0 73.5 11t58.5 35t38.5 65t13.5 101v370q0 5 -8 9t-21 7t-28.5 4.5t-29.5 1.5h-9v47h257v-47h-11q-24 0 -43.5 -4.5t-30.5 -14.5t-11 -27v-346q0 -75 -20 -128.5t-56 -87.5t-83 -49.5t-101 -15.5q-58 0 -107 16
t-85.5 49.5t-56.5 87t-20 128.5v356q0 22 -24 29t-61 7h-11v47h285v-47h-9q-14 0 -29.5 -0.5t-28.5 -2t-21 -3t-8 -4.5v-382zM520 854q-6 22 -14 34.5t-18.5 18t-22.5 5.5q-19 0 -32 -11t-13 -30t12.5 -34t32.5 -35l44 -44h31v23zM356 854q-6 22 -14 34.5t-18.5 18
t-22.5 5.5q-19 0 -32 -11t-13 -30t12.5 -34t32.5 -35l44 -44h31v23z" />
    <glyph glyph-name="udblgrave" unicode="&#x215;" horiz-adv-x="624" 
d="M195 508v-345q0 -38 8 -62.5t26.5 -36t50.5 -11.5q33 0 62 13t55 38t49 62v-69q-26 -36 -53 -59.5t-58 -35.5t-70 -12q-47 0 -83 17t-56 53t-20 91v264q0 22 -18 30.5t-56 14.5l-12 2v46h175zM518 508v-427q0 -14 11 -22t29.5 -11t42.5 -3h3v-45h-166v104l-9 13v298
q0 22 -18.5 30.5t-57.5 13.5l-22 3v46h187zM375 710q-6 29 -18.5 40.5t-31.5 11.5t-30.5 -11t-11.5 -28q0 -13 6 -27.5t17 -31.5l63 -95h30v20zM222 710q-6 29 -18.5 40.5t-31.5 11.5t-30.5 -11t-11.5 -28q0 -13 6 -27.5t17 -31.5l63 -95h30v20z" />
    <glyph glyph-name="Uinvertedbreve" unicode="&#x216;" horiz-adv-x="807" 
d="M232 271q0 -60 14 -101t39 -65t59 -35t75 -11q40 0 73.5 11t58.5 35t38.5 65t13.5 101v370q0 5 -8 9t-21 7t-28.5 4.5t-29.5 1.5h-9v47h257v-47h-11q-24 0 -43.5 -4.5t-30.5 -14.5t-11 -27v-346q0 -75 -20 -128.5t-56 -87.5t-83 -49.5t-101 -15.5q-58 0 -107 16
t-85.5 49.5t-56.5 87t-20 128.5v356q0 22 -24 29t-61 7h-11v47h285v-47h-9q-14 0 -29.5 -0.5t-28.5 -2t-21 -3t-8 -4.5v-382zM411 899q-42 0 -73 -16t-49 -47.5t-22 -76.5h58q5 26 15.5 41.5t27 22t40.5 6.5t41 -6.5t28 -22t16 -41.5h63q-4 45 -22.5 76.5t-49.5 47.5t-73 16
z" />
    <glyph glyph-name="uinvertedbreve" unicode="&#x217;" horiz-adv-x="624" 
d="M195 508v-345q0 -38 8 -62.5t26.5 -36t50.5 -11.5q33 0 62 13t55 38t49 62v-69q-26 -36 -53 -59.5t-58 -35.5t-70 -12q-47 0 -83 17t-56 53t-20 91v264q0 22 -18 30.5t-56 14.5l-12 2v46h175zM518 508v-427q0 -14 11 -22t29.5 -11t42.5 -3h3v-45h-166v104l-9 13v298
q0 22 -18.5 30.5t-57.5 13.5l-22 3v46h187zM300 739q-39 0 -69 -17t-48.5 -51.5t-20.5 -88.5h55q3 34 13.5 53t27 27t39.5 8t40 -8t27 -27t14 -53h60q-3 54 -21 88.5t-48.5 51.5t-68.5 17z" />
    <glyph glyph-name="Scommaaccent" unicode="&#x218;" horiz-adv-x="623" 
d="M338 50q45 0 77.5 13t50.5 40.5t18 69.5q0 39 -16 65t-43 42.5t-61.5 28t-71.5 21.5q-40 11 -79.5 25t-71.5 37t-51 58t-19 88q0 56 28.5 96.5t76 63t104.5 22.5q45 0 85 -12.5t74 -44.5t58 -92l-36 -6l15 145h57v-186h-64q-16 43 -42.5 73.5t-61.5 47t-76 16.5
q-42 0 -72 -14t-46 -39.5t-16 -61.5q0 -34 16 -56.5t43 -37.5t62 -25.5t72 -20.5q42 -11 82 -25.5t72.5 -37.5t51.5 -59t19 -90q0 -65 -31.5 -111t-84 -69.5t-115.5 -23.5q-57 0 -109.5 18.5t-93.5 58.5t-64 107l46 -4l-15 -170h-61v221h64q17 -50 50 -89t79 -60.5
t100 -21.5zM302 -305l-58 28q22 14 41.5 30t32 33.5t12.5 33.5l17 -12q-7 -3 -14 -3.5t-12 -0.5q-29 0 -46.5 15t-17.5 38q0 24 16 38.5t40 14.5q28 0 46 -17.5t18 -52.5q0 -29 -8.5 -53.5t-25.5 -46.5t-41 -45z" />
    <glyph glyph-name="scommaaccent" unicode="&#x219;" horiz-adv-x="475" 
d="M358 132q0 21 -11 35t-29.5 23.5t-42 16t-49.5 12.5q-31 8 -61.5 18t-55.5 26.5t-40 42t-15 64.5q0 44 22 77.5t63.5 52t100.5 18.5q46 0 80.5 -7t57.5 -17.5t34 -19.5v-109h-86v94q11 0 18.5 -3.5t11.5 -10t5 -15.5t-2 -20q-11 17 -29 28.5t-40.5 17t-49.5 5.5
q-52 0 -78 -22.5t-26 -57.5q0 -22 11.5 -37t31 -24.5t44 -16.5t51.5 -14q30 -7 60 -17t54.5 -26t39 -41t14.5 -63q0 -43 -24 -77.5t-68.5 -54.5t-107.5 -20q-48 0 -86.5 7.5t-68.5 20t-54 27.5v115h88v-127q-15 9 -23 18t-11 18t-2 18.5t4 19.5q17 -21 40 -34t51 -19.5
t61 -6.5q36 0 62 10t40.5 29t14.5 46zM230 -305l-58 28q22 14 41.5 30t32 33.5t12.5 33.5l17 -12q-7 -3 -14 -3.5t-12 -0.5q-29 0 -46.5 15t-17.5 38q0 24 16 38.5t40 14.5q28 0 46 -17.5t18 -52.5q0 -29 -8.5 -53.5t-25.5 -46.5t-41 -45z" />
    <glyph glyph-name="Odieresismacron" unicode="&#x22a;" horiz-adv-x="794" 
d="M397 -10q-74 0 -137.5 26.5t-111.5 75t-74.5 115.5t-26.5 148t26.5 148t74.5 115.5t111.5 75t137.5 26.5t137.5 -26.5t111.5 -75t74.5 -115.5t26.5 -148t-26.5 -148t-74.5 -115.5t-111.5 -75t-137.5 -26.5zM397 50q54 0 100 21t79.5 61t52 96.5t18.5 126.5t-18.5 126.5
t-52 96.5t-79.5 61t-100 21t-100 -21t-79.5 -61t-52 -96.5t-18.5 -126.5t18.5 -126.5t52 -96.5t79.5 -61t100 -21zM349 844q0 -28 -17.5 -44.5t-43.5 -16.5t-43.5 16.5t-17.5 44.5t17.5 44t43.5 16t43.5 -16t17.5 -44zM567 844q0 -28 -17.5 -44.5t-43.5 -16.5t-43.5 16.5
t-17.5 44.5t17.5 44t43.5 16t43.5 -16t17.5 -44zM252 1012h290v-65h-290v65z" />
    <glyph glyph-name="odieresismacron" unicode="&#x22b;" horiz-adv-x="614" 
d="M568 254q0 -77 -33.5 -137t-92.5 -93.5t-135 -33.5t-135 33.5t-92.5 93.5t-33.5 137q0 58 19 106.5t54.5 83.5t83 54.5t104.5 19.5t104.5 -19.5t83 -54.5t54.5 -83.5t19 -106.5zM140 254q0 -62 20.5 -109t58 -72.5t88.5 -25.5q52 0 89 25.5t57.5 72.5t20.5 109
q0 63 -20.5 109.5t-57.5 72t-89 25.5q-51 0 -88.5 -25.5t-58 -72t-20.5 -109.5zM259 669q0 -28 -17.5 -44.5t-43.5 -16.5t-43.5 16.5t-17.5 44.5t17.5 44t43.5 16t43.5 -16t17.5 -44zM477 669q0 -28 -17.5 -44.5t-43.5 -16.5t-43.5 16.5t-17.5 44.5t17.5 44t43.5 16
t43.5 -16t17.5 -44zM162 864h290v-65h-290v65z" />
    <glyph glyph-name="Otildemacron" unicode="&#x22c;" horiz-adv-x="794" 
d="M397 -10q-74 0 -137.5 26.5t-111.5 75t-74.5 115.5t-26.5 148t26.5 148t74.5 115.5t111.5 75t137.5 26.5t137.5 -26.5t111.5 -75t74.5 -115.5t26.5 -148t-26.5 -148t-74.5 -115.5t-111.5 -75t-137.5 -26.5zM397 50q54 0 100 21t79.5 61t52 96.5t18.5 126.5t-18.5 126.5
t-52 96.5t-79.5 61t-100 21t-100 -21t-79.5 -61t-52 -96.5t-18.5 -126.5t18.5 -126.5t52 -96.5t79.5 -61t100 -21zM456 765q-21 0 -37 5.5t-29.5 13.5t-24.5 15.5t-21 13t-21 5.5q-12 0 -21 -7t-14.5 -19.5t-9.5 -30.5l-50 18q7 35 20.5 58.5t34.5 35.5t50 12
q19 0 34.5 -5.5t28.5 -13t24.5 -15t23 -13t23.5 -5.5q13 0 22 7t15.5 19.5t11.5 29.5l50 -19q-7 -33 -22.5 -56.5t-37.5 -36t-50 -12.5zM249 1012h290v-65h-290v65z" />
    <glyph glyph-name="otildemacron" unicode="&#x22d;" horiz-adv-x="614" 
d="M568 254q0 -77 -33.5 -137t-92.5 -93.5t-135 -33.5t-135 33.5t-92.5 93.5t-33.5 137q0 58 19 106.5t54.5 83.5t83 54.5t104.5 19.5t104.5 -19.5t83 -54.5t54.5 -83.5t19 -106.5zM140 254q0 -62 20.5 -109t58 -72.5t88.5 -25.5q52 0 89 25.5t57.5 72.5t20.5 109
q0 63 -20.5 109.5t-57.5 72t-89 25.5q-51 0 -88.5 -25.5t-58 -72t-20.5 -109.5zM367 597q-20 0 -36 7t-29 18t-24 21.5t-20.5 17.5t-19.5 7q-19 0 -29.5 -19.5t-15.5 -54.5l-47 16q7 42 19.5 69.5t32.5 41.5t48 14q18 0 33 -7t28 -17.5t24.5 -21t22.5 -17.5t22 -7q13 0 21 9
t14 25.5t11 38.5l47 -17q-8 -41 -22 -68.5t-33.5 -41.5t-46.5 -14zM160 854h290v-65h-290v65z" />
    <glyph glyph-name="Odotaccentmacron" unicode="&#x230;" horiz-adv-x="794" 
d="M397 -10q-74 0 -137.5 26.5t-111.5 75t-74.5 115.5t-26.5 148t26.5 148t74.5 115.5t111.5 75t137.5 26.5t137.5 -26.5t111.5 -75t74.5 -115.5t26.5 -148t-26.5 -148t-74.5 -115.5t-111.5 -75t-137.5 -26.5zM397 50q54 0 100 21t79.5 61t52 96.5t18.5 126.5t-18.5 126.5
t-52 96.5t-79.5 61t-100 21t-100 -21t-79.5 -61t-52 -96.5t-18.5 -126.5t18.5 -126.5t52 -96.5t79.5 -61t100 -21zM397 783q-26 0 -43.5 16.5t-17.5 44.5t17.5 44t43.5 16t43.5 -16t17.5 -44t-17.5 -44.5t-43.5 -16.5zM252 1012h290v-65h-290v65z" />
    <glyph glyph-name="odotaccentmacron" unicode="&#x231;" horiz-adv-x="614" 
d="M568 254q0 -77 -33.5 -137t-92.5 -93.5t-135 -33.5t-135 33.5t-92.5 93.5t-33.5 137q0 58 19 106.5t54.5 83.5t83 54.5t104.5 19.5t104.5 -19.5t83 -54.5t54.5 -83.5t19 -106.5zM140 254q0 -62 20.5 -109t58 -72.5t88.5 -25.5q52 0 89 25.5t57.5 72.5t20.5 109
q0 63 -20.5 109.5t-57.5 72t-89 25.5q-51 0 -88.5 -25.5t-58 -72t-20.5 -109.5zM307 622q-26 0 -43.5 16.5t-17.5 44.5t17.5 44t43.5 16t43.5 -16t17.5 -44t-17.5 -44.5t-43.5 -16.5zM162 864h290v-65h-290v65z" />
    <glyph glyph-name="Ymacron" unicode="&#x232;" horiz-adv-x="683" 
d="M297 315l14 -45l-218 367q-8 13 -19 18.5t-25.5 6.5t-31.5 1h-5v47h264v-47h-17q-18 0 -37 -1t-32.5 -3t-13.5 -6l195 -333l-27 3l182 322q0 6 -13 10t-32 6t-38 2h-15v47h243v-47h-5q-17 0 -32.5 -2.5t-28.5 -11t-24 -27.5l-203 -354l12 47v-232q0 -22 24 -29t61 -7h16
v-47h-295v47h16q37 0 61 7t24 29v232zM207 862h290v-65h-290v65z" />
    <glyph glyph-name="ymacron" unicode="&#x233;" horiz-adv-x="591" 
d="M332 45l-12 -37l-51 -22l-187 442q-6 14 -16 21.5t-25 10.5t-35 3h-1v45h250v-45h-2q-20 0 -40.5 -1t-34 -2.5t-13.5 -5.5zM342 17q-27 -64 -54 -111.5t-55.5 -77.5t-60.5 -45t-70 -15q-25 0 -41.5 5.5t-27.5 12.5v80q3 -1 12.5 -5.5t24 -8.5t31.5 -4q23 0 46 7.5t47 29
t49 62.5t51 107l7 18l152 369q0 7 -12 11.5t-31 7.5t-39 3h-3v45h218v-45h-1q-15 0 -29 -3.5t-26 -13t-20 -28.5zM152 694h290v-65h-290v65z" />
    <glyph glyph-name="dotlessj" unicode="&#x237;" horiz-adv-x="298" 
d="M115 -45v460q0 15 -9 23.5t-26.5 13.5t-45.5 8l-16 2v46h186v-553q0 -56 -16 -93t-42.5 -58.5t-60 -30.5t-68.5 -9q-22 0 -43.5 3t-35.5 7v63q17 -4 35.5 -7.5t40.5 -3.5q31 0 53.5 11.5t35 40t12.5 77.5z" />
    <glyph glyph-name="schwa" unicode="&#x259;" horiz-adv-x="549" 
d="M420 258q0 49 -12.5 86.5t-35.5 63.5t-54 39.5t-67 13.5q-41 0 -70.5 -16t-50 -39.5t-34.5 -46.5l-47 42q19 33 47 59.5t67 42t90 15.5q73 0 131.5 -32t92.5 -90.5t34 -139.5q0 -78 -32 -138t-86.5 -94t-121.5 -34q-55 0 -96.5 18t-70 53.5t-43.5 89t-15 124.5h404l1 -56
h-338l28 22q1 -65 15 -108.5t42.5 -64.5t72.5 -21q31 0 58 14.5t47.5 42t32 66.5t11.5 88z" />
    <glyph glyph-name="primemod" unicode="&#x2b9;" horiz-adv-x="240" 
d="M195 710h-93q-3 -22 -3 -42v-45t-1.5 -60t-7.5 -88h51q6 42 14 72t16 54.5t14.5 50t9.5 58.5z" />
    <glyph glyph-name="doubleprimemod" unicode="&#x2ba;" horiz-adv-x="385" 
d="M195 710h-93q-3 -22 -3 -42v-45t-1.5 -60t-7.5 -88h51q6 42 14 72t16 54.5t14.5 50t9.5 58.5zM340 710h-93q-3 -22 -3 -42v-45t-1.5 -60t-7.5 -88h51q6 42 14 72t16 54.5t14.5 50t9.5 58.5z" />
    <glyph glyph-name="commaturnedmod" unicode="&#x2bb;" horiz-adv-x="234" 
d="M142 718l69 -32q-20 -17 -38.5 -36t-34 -39.5t-25 -41.5t-10.5 -40l-14 16q7 1 13 1.5t11 0.5q31 0 50.5 -15.5t19.5 -43.5q0 -26 -18.5 -43t-45.5 -17q-31 0 -50 18.5t-19 58.5q0 30 7.5 60t20 57.5t29 52t35.5 43.5z" />
    <glyph glyph-name="apostrophemod" unicode="&#x2bc;" horiz-adv-x="234" 
d="M92 425l-69 32q20 17 38.5 36t34 39.5t25 41.5t10.5 40l14 -16q-7 -1 -13 -1.5t-11 -0.5q-31 0 -50.5 15.5t-19.5 43.5q0 26 18.5 43t45.5 17q31 0 50 -18.5t19 -58.5q0 -30 -7.5 -60t-20 -57.5t-29 -52t-35.5 -43.5z" />
    <glyph glyph-name="ringhalfright" unicode="&#x2be;" horiz-adv-x="500" 
d="M248 768v-35q26 0 42.5 -15.5t16.5 -47.5q0 -31 -16.5 -47t-42.5 -16v-35q33 0 59 11.5t41.5 33.5t15.5 53t-15.5 53t-41.5 33.5t-59 11.5z" />
    <glyph glyph-name="ringhalfleft" unicode="&#x2bf;" horiz-adv-x="500" 
d="M252 607v-35q-32 0 -58.5 11.5t-42 33.5t-15.5 53t15.5 53t42 33.5t58.5 11.5v-35q-25 0 -42 -15.5t-17 -47.5q0 -31 17 -47t42 -16z" />
    <glyph glyph-name="circumflex" unicode="&#x2c6;" horiz-adv-x="500" 
d="M288 738h-76l-109 -157v-10h35l117 114h-20l117 -114h45v10z" />
    <glyph glyph-name="caron" unicode="&#x2c7;" horiz-adv-x="500" 
d="M212 571h76l109 157v10h-35l-117 -114h20l-117 114h-45v-10z" />
    <glyph glyph-name="verticallinemod" unicode="&#x2c8;" horiz-adv-x="500" 
d="M214 547v203h72v-203h-72z" />
    <glyph glyph-name="firsttonechinese" unicode="&#x2c9;" horiz-adv-x="500" 
d="M105 691h290v-65h-290v65z" />
    <glyph glyph-name="secondtonechinese" unicode="&#x2ca;" horiz-adv-x="500" 
d="M236 707q7 18 15 29.5t18.5 17t22.5 5.5q19 0 30.5 -11t11.5 -28q0 -9 -3.5 -19t-10 -20t-15.5 -20l-84 -95h-30v20z" />
    <glyph glyph-name="fourthtonechinese" unicode="&#x2cb;" horiz-adv-x="500" 
d="M220 707l45 -121v-20h-30l-84 95q-9 10 -15.5 20t-10 20t-3.5 19q0 17 11.5 28t30.5 11q13 0 23 -5.5t18.5 -17t14.5 -29.5z" />
    <glyph glyph-name="verticallinelowmod" unicode="&#x2cc;" horiz-adv-x="500" 
d="M214 -250v203h72v-203h-72z" />
    <glyph glyph-name="breve" unicode="&#x2d8;" horiz-adv-x="500" 
d="M250 579q39 0 69 17t48.5 51.5t20.5 88.5h-55q-3 -34 -13.5 -53t-27 -27t-39.5 -8t-40 8t-27 27t-14 53h-60q3 -54 21 -88.5t48.5 -51.5t68.5 -17z" />
    <glyph glyph-name="dotaccent" unicode="&#x2d9;" horiz-adv-x="500" 
d="M250 619q-26 0 -43.5 16.5t-17.5 44.5t17.5 44t43.5 16t43.5 -16t17.5 -44t-17.5 -44.5t-43.5 -16.5z" />
    <glyph glyph-name="ring" unicode="&#x2da;" horiz-adv-x="500" 
d="M193 670q0 -31 16.5 -47t40.5 -16t40.5 16t16.5 47q0 32 -16.5 47.5t-40.5 15.5t-40.5 -15.5t-16.5 -47.5zM364 670q0 -31 -15.5 -53t-41 -33.5t-57.5 -11.5q-31 0 -57 11.5t-41.5 33.5t-15.5 53t15.5 53t41.5 33.5t57 11.5q32 0 57.5 -11.5t41 -33.5t15.5 -53z" />
    <glyph glyph-name="ogonek" unicode="&#x2db;" horiz-adv-x="600" 
d="M383 35l31 -27q-35 -20 -58 -39t-36 -37.5t-18.5 -35.5t-5.5 -32q0 -25 11.5 -36.5t28.5 -11.5t30 9.5t23 18.5l29 -34q-19 -20 -42 -33t-62 -13q-47 0 -77.5 24t-30.5 67q0 26 12.5 49t35.5 45t56 43.5t73 42.5z" />
    <glyph glyph-name="tilde" unicode="&#x2dc;" horiz-adv-x="500" 
d="M312 594q-20 0 -36 7t-29 18t-24 21.5t-20.5 17.5t-19.5 7q-19 0 -29.5 -19.5t-15.5 -54.5l-47 16q7 42 19.5 69.5t32.5 41.5t48 14q18 0 33 -7t28 -17.5t24.5 -21t22.5 -17.5t22 -7q13 0 21 9t14 25.5t11 38.5l47 -17q-8 -41 -22 -68.5t-33.5 -41.5t-46.5 -14z" />
    <glyph glyph-name="hungarumlaut" unicode="&#x2dd;" horiz-adv-x="500" 
d="M173 707q6 29 18.5 40.5t31.5 11.5t30.5 -11t11.5 -28q0 -13 -6 -27.5t-17 -31.5l-63 -95h-30v20zM326 707q6 29 18.5 40.5t31.5 11.5t30.5 -11t11.5 -28q0 -13 -6 -27.5t-17 -31.5l-63 -95h-30v20z" />
    <glyph glyph-name="gravecomb" unicode="&#x300;" horiz-adv-x="0" 
d="M-281 707q-7 18 -15 29.5t-18.5 17t-22.5 5.5q-19 0 -30.5 -11t-11.5 -28q0 -9 3.5 -19t10 -20t15.5 -20l84 -95h30v20z" />
    <glyph glyph-name="acutecomb" unicode="&#x301;" horiz-adv-x="0" 
d="M-334 707q7 18 15 29.5t18.5 17t22.5 5.5q19 0 30.5 -11t11.5 -28q0 -9 -3.5 -19t-10 -20t-15.5 -20l-84 -95h-30v20z" />
    <glyph glyph-name="circumflexcomb" unicode="&#x302;" horiz-adv-x="0" 
d="M-269 738h-76l-109 -157v-10h35l117 114h-20l117 -114h45v10z" />
    <glyph glyph-name="tildecomb" unicode="&#x303;" horiz-adv-x="0" 
d="M-248 594q-20 0 -36 7t-29 18t-24 21.5t-20.5 17.5t-19.5 7q-19 0 -29.5 -19.5t-15.5 -54.5l-47 16q7 42 19.5 69.5t32.5 41.5t48 14q18 0 33 -7t28 -17.5t24.5 -21t22.5 -17.5t22 -7q13 0 21 9t14 25.5t11 38.5l47 -17q-8 -41 -22 -68.5t-33.5 -41.5t-46.5 -14z" />
    <glyph glyph-name="macroncomb" unicode="&#x304;" horiz-adv-x="0" 
d="M-452 691h290v-65h-290v65z" />
    <glyph glyph-name="brevecomb" unicode="&#x306;" horiz-adv-x="0" 
d="M-307 579q39 0 69 17t48.5 51.5t20.5 88.5h-55q-3 -34 -13.5 -53t-27 -27t-39.5 -8t-40 8t-27 27t-14 53h-60q3 -54 21 -88.5t48.5 -51.5t68.5 -17z" />
    <glyph glyph-name="dotaccentcomb" unicode="&#x307;" horiz-adv-x="0" 
d="M-307 619q-26 0 -43.5 16.5t-17.5 44.5t17.5 44t43.5 16t43.5 -16t17.5 -44t-17.5 -44.5t-43.5 -16.5z" />
    <glyph glyph-name="dieresiscomb" unicode="&#x308;" horiz-adv-x="0" 
d="M-355 666q0 -28 -17.5 -44.5t-43.5 -16.5t-43.5 16.5t-17.5 44.5t17.5 44t43.5 16t43.5 -16t17.5 -44zM-137 666q0 -28 -17.5 -44.5t-43.5 -16.5t-43.5 16.5t-17.5 44.5t17.5 44t43.5 16t43.5 -16t17.5 -44z" />
    <glyph glyph-name="hookabovecomb" unicode="&#x309;" horiz-adv-x="0" 
d="M-421 694h70q2 11 7 19t14 13t23 5q20 0 30 -10.5t10 -28.5q0 -15 -8 -26.5t-24.5 -18t-43.5 -8.5v-71h56v62l-30 -28q33 3 61.5 13t46 29.5t17.5 49.5q0 26 -13.5 45t-38.5 29t-62 10q-36 0 -61 -11.5t-38.5 -30.5t-15.5 -42z" />
    <glyph glyph-name="ringcomb" unicode="&#x30a;" horiz-adv-x="0" 
d="M-364 670q0 -31 16.5 -47t40.5 -16t40.5 16t16.5 47q0 32 -16.5 47.5t-40.5 15.5t-40.5 -15.5t-16.5 -47.5zM-193 670q0 -31 -15.5 -53t-41 -33.5t-57.5 -11.5q-31 0 -57 11.5t-41.5 33.5t-15.5 53t15.5 53t41.5 33.5t57 11.5q32 0 57.5 -11.5t41 -33.5t15.5 -53z" />
    <glyph glyph-name="hungarumlautcomb" unicode="&#x30b;" horiz-adv-x="0" 
d="M-417 707q6 29 18.5 40.5t31.5 11.5t30.5 -11t11.5 -28q0 -13 -6 -27.5t-17 -31.5l-63 -95h-30v20zM-264 707q6 29 18.5 40.5t31.5 11.5t30.5 -11t11.5 -28q0 -13 -6 -27.5t-17 -31.5l-63 -95h-30v20z" />
    <glyph glyph-name="caroncomb" unicode="&#x30c;" horiz-adv-x="0" 
d="M-345 571h76l109 157v10h-35l-117 -114h20l-117 114h-45v-10z" />
    <glyph glyph-name="dblgravecomb" unicode="&#x30f;" horiz-adv-x="0" 
d="M-196 707q-6 29 -18.5 40.5t-31.5 11.5t-30.5 -11t-11.5 -28q0 -13 6 -27.5t17 -31.5l63 -95h30v20zM-349 707q-6 29 -18.5 40.5t-31.5 11.5t-30.5 -11t-11.5 -28q0 -13 6 -27.5t17 -31.5l63 -95h30v20z" />
    <glyph glyph-name="breveinvertedcomb" unicode="&#x311;" horiz-adv-x="0" 
d="M-307 736q39 0 69 -17t48.5 -51.5t20.5 -88.5h-55q-3 34 -13.5 53t-27 27t-39.5 8t-40 -8t-27 -27t-14 -53h-60q3 54 21 88.5t48.5 51.5t68.5 17z" />
    <glyph glyph-name="commaturnedabovecomb" unicode="&#x312;" horiz-adv-x="0" 
d="M-295 913l69 -32q-20 -17 -38.5 -36t-34 -39.5t-25 -41.5t-10.5 -40l-14 16q7 1 13 1.5t11 0.5q31 0 50.5 -15.5t19.5 -43.5q0 -26 -18.5 -43t-45.5 -17q-31 0 -50 18.5t-19 58.5q0 30 7.5 60t20 57.5t29 52t35.5 43.5z" />
    <glyph glyph-name="horncomb" unicode="&#x31b;" horiz-adv-x="0" 
d="M-407 483l-43 35q65 0 105.5 7.5t62.5 25.5t30 49.5t8 79.5h80q0 -57 -13 -96.5t-41.5 -63t-75 -32.5t-113.5 -5z" />
    <glyph glyph-name="dotbelowcomb" unicode="&#x323;" horiz-adv-x="0" 
d="M-307 -211q-26 0 -43.5 16.5t-17.5 44.5t17.5 44t43.5 16t43.5 -16t17.5 -44t-17.5 -44.5t-43.5 -16.5z" />
    <glyph glyph-name="dieresisbelowcomb" unicode="&#x324;" horiz-adv-x="0" 
d="M-355 -146q0 -28 -17.5 -44.5t-43.5 -16.5t-43.5 16.5t-17.5 44.5t17.5 44t43.5 16t43.5 -16t17.5 -44zM-137 -146q0 -28 -17.5 -44.5t-43.5 -16.5t-43.5 16.5t-17.5 44.5t17.5 44t43.5 16t43.5 -16t17.5 -44z" />
    <glyph glyph-name="commaaccentcomb" unicode="&#x326;" horiz-adv-x="0" 
d="M-315 -305l-58 28q22 14 41.5 30t32 33.5t12.5 33.5l17 -12q-7 -3 -14 -3.5t-12 -0.5q-29 0 -46.5 15t-17.5 38q0 24 16 38.5t40 14.5q28 0 46 -17.5t18 -52.5q0 -29 -8.5 -53.5t-25.5 -46.5t-41 -45z" />
    <glyph glyph-name="cedillacomb" unicode="&#x327;" horiz-adv-x="0" 
d="M-271 4l-41 -71l-9 9q38 2 68 -8t47.5 -29.5t17.5 -48.5q0 -24 -9.5 -41.5t-26.5 -28.5t-39 -16.5t-47 -5.5q-42 0 -70.5 15t-45.5 40l36 34q9 -11 20.5 -21t26 -16t31.5 -6q23 0 36 11t13 33q0 23 -16 37t-57 14h-26l29 99h62z" />
    <glyph glyph-name="ogonekcomb" unicode="&#x328;" horiz-adv-x="0" 
d="M-248 35l31 -27q-35 -20 -58 -39t-36 -37.5t-18.5 -35.5t-5.5 -32q0 -25 11.5 -36.5t28.5 -11.5t30 9.5t23 18.5l29 -34q-19 -20 -42 -33t-62 -13q-47 0 -77.5 24t-30.5 67q0 26 12.5 49t35.5 45t56 43.5t73 42.5z" />
    <glyph glyph-name="brevebelowcomb" unicode="&#x32e;" horiz-adv-x="0" 
d="M-307 -240q39 0 69 17t48.5 51.5t20.5 88.5h-55q-3 -34 -13.5 -53t-27 -27t-39.5 -8t-40 8t-27 27t-14 53h-60q3 -54 21 -88.5t48.5 -51.5t68.5 -17z" />
    <glyph glyph-name="macronbelowcomb" unicode="&#x331;" horiz-adv-x="0" 
d="M-452 -119h290v-65h-290v65z" />
    <glyph glyph-name="Delta" unicode="&#x394;" horiz-adv-x="727" 
d="M45 0v77l265 633h107l265 -633v-77h-637zM601 47l-270 653l37 -1l-268 -653l-24 36h545z" />
    <glyph glyph-name="Omega" unicode="&#x3a9;" horiz-adv-x="820" 
d="M410 720q-71 0 -129.5 -22.5t-100.5 -62t-65 -92.5t-23 -113q0 -46 14 -88.5t38 -81.5t53.5 -75.5t61 -71t59.5 -67.5l-1 26h-96q-36 0 -58.5 3.5t-33.5 12.5t-13 27l-9 77h-57v-192h300v82q-27 39 -56 77t-54 78.5t-40 88t-15 104.5q0 71 27 122.5t77.5 79.5t120.5 28
t120.5 -28t77.5 -79.5t27 -122.5q0 -57 -15 -104.5t-40 -88t-54 -78.5t-56 -77v-82h300v192h-57l-9 -77q-2 -18 -13 -27t-33.5 -12.5t-58.5 -3.5h-96l-1 -26q28 33 59.5 67.5t61 71t53.5 75.5t38 81.5t14 88.5q0 60 -23 113t-65 92.5t-100.5 62t-129.5 22.5z" />
    <glyph glyph-name="mu" unicode="&#x3bc;" horiz-adv-x="642" 
d="M525 -10q-31 0 -54.5 12.5t-36.5 35.5t-12 56l-9 13v401h89v-414q0 -25 9 -35t25 -10q13 0 22.5 6t17.5 17t16 24l40 -32q-11 -22 -26.5 -39t-35.5 -26t-45 -9zM179 508v-323q0 -48 9 -77t29.5 -42.5t52.5 -13.5q34 0 64.5 15.5t58 46t51.5 75.5l30 -26
q-34 -59 -68 -97.5t-70 -57.5t-76 -19q-32 0 -55.5 5.5t-41 18.5t-29.5 35t-21 54l15 44q4 -45 9 -83t11.5 -70.5l12.5 -62.5t11.5 -58.5t8.5 -58t3 -63.5h-94v758h89z" />
    <glyph glyph-name="pi" unicode="&#x3c0;" horiz-adv-x="743" 
d="M308 0h-93q0 46 1.5 81t4.5 65t6.5 61t7 68t7 86.5t5.5 116.5h61v-478zM682 428h-443q-39 0 -65.5 -14t-44.5 -39.5t-30 -62.5l-59 31q10 37 29 67t46 52t63 34t79 12h425v-80zM556 104q0 -27 10 -38t29 -11q14 0 26 7.5t22 20.5t18 28l42 -30q-11 -24 -27.5 -45
t-40.5 -33.5t-56 -12.5q-35 0 -61 11.5t-40.5 37t-14.5 65.5q0 19 2 40.5t5 49.5t6.5 66.5t7 91.5t6.5 126h66v-374z" />
    <glyph glyph-name="baht" unicode="&#xe3f;" 
d="M302 399q49 0 76 17.5t38.5 46.5t11.5 62q0 40 -14.5 66t-47.5 39.5t-87 13.5h-124v-245h147zM310 345h-155v-280h133q60 0 97.5 17t54.5 50.5t17 80.5q0 37 -14.5 66.5t-46.5 47.5t-86 18zM250 790h60v-117l-4 -11v-612l4 -12v-148h-60v146l4 10v614l-4 16v114zM273 363
l74 27v-27l-65 23q87 0 145.5 -21.5t88.5 -60.5t30 -93q0 -46 -17 -83.5t-50 -63.5t-81.5 -40t-112.5 -14h-287v47h11q26 0 43 7t17 29v524q0 22 -17 29t-43 7h-11v47h277q79 0 132.5 -20.5t80.5 -58.5t27 -91q0 -50 -27 -87.5t-80.5 -58.5t-134.5 -21z" />
    <glyph glyph-name="Ccedillaacute" unicode="&#x1e08;" horiz-adv-x="717" 
d="M380 658q-48 0 -90.5 -21.5t-74.5 -61.5t-50 -95.5t-18 -124.5t17.5 -124.5t49.5 -95.5t78 -61.5t103 -21.5q59 0 104 27t75.5 73.5t44.5 103.5l61 -23q-17 -71 -56.5 -126t-99 -86t-135.5 -31q-75 0 -137.5 26.5t-108.5 75t-71 115.5t-25 148q0 80 26 147t72 116
t106 75.5t128 26.5q69 0 118 -20.5t81 -58t48 -89.5h-37l16 158h60v-214h-67q-16 49 -45 85t-71.5 56.5t-101.5 20.5zM374 4l-41 -71l-9 9q38 2 68 -8t47.5 -29.5t17.5 -48.5q0 -24 -9.5 -41.5t-26.5 -28.5t-39 -16.5t-47 -5.5q-42 0 -70.5 15t-45.5 40l36 34
q9 -11 20.5 -21t26 -16t31.5 -6q23 0 36 11t13 33q0 23 -16 37t-57 14h-26l29 99h62zM396 875l-64 -87v-22h28l82 44q18 10 31 20t20 21.5t7 23.5q0 16 -11.5 28.5t-30.5 12.5q-12 0 -23 -5t-20 -14t-19 -22z" />
    <glyph glyph-name="ccedillaacute" unicode="&#x1e09;" horiz-adv-x="559" 
d="M312 47q45 0 77 17t54.5 42t38.5 48l44 -42q-22 -33 -51.5 -61t-70 -44.5t-95.5 -16.5q-79 0 -138.5 34t-92 93.5t-32.5 136.5q0 79 34.5 138t96 92.5t142.5 33.5q50 0 89.5 -11.5t67 -26.5t40.5 -28v-124h-88v113q11 -2 20 -6.5t15.5 -12t9 -17.5t0.5 -23
q-18 34 -61 56.5t-93 22.5q-59 0 -99 -26.5t-60 -73.5t-20 -107q0 -46 11.5 -84t33.5 -65.5t54 -42.5t73 -15zM307 4l-41 -71l-9 9q38 2 68 -8t47.5 -29.5t17.5 -48.5q0 -24 -9.5 -41.5t-26.5 -28.5t-39 -16.5t-47 -5.5q-42 0 -70.5 15t-45.5 40l36 34q9 -11 20.5 -21
t26 -16t31.5 -6q23 0 36 11t13 33q0 23 -16 37t-57 14h-26l29 99h62zM323 710q7 18 15 29.5t18.5 17t22.5 5.5q19 0 30.5 -11t11.5 -28q0 -9 -3.5 -19t-10 -20t-15.5 -20l-84 -95h-30v20z" />
    <glyph glyph-name="Ddotbelow" unicode="&#x1e0c;" horiz-adv-x="773" 
d="M45 663v47h306q84 0 152.5 -24.5t118.5 -70.5t77 -111.5t27 -146.5t-27 -146.5t-77 -113t-118.5 -72.5t-152.5 -25h-306v47h12q37 0 61 7t24 29v544q0 20 -24 28t-61 8h-12zM351 651h-117v-592h117q64 0 114.5 20t86.5 58.5t55 94t19 125.5t-19 125t-55 92.5t-86.5 57
t-114.5 19.5zM385 -211q-26 0 -43.5 16.5t-17.5 44.5t17.5 44t43.5 16t43.5 -16t17.5 -44t-17.5 -44.5t-43.5 -16.5z" />
    <glyph glyph-name="ddotbelow" unicode="&#x1e0d;" horiz-adv-x="641" 
d="M537 81q0 -22 23.5 -29t59.5 -7h1v-45h-165v112l-8 3v527q0 15 -8 23t-25 13t-43 9l-11 2v46h176v-654zM286 518q40 0 71 -11t57.5 -34.5t50.5 -60.5v-90q-21 48 -47.5 79t-58.5 45.5t-70 14.5q-36 0 -64 -15t-47 -42.5t-28.5 -66.5t-9.5 -87q0 -46 9.5 -83.5t28 -64.5
t46 -41t62.5 -14q40 0 72 16.5t58.5 48.5t48.5 79v-84q-26 -39 -53 -65t-59 -39t-73 -13q-70 0 -122.5 32.5t-82 91t-29.5 136.5q0 80 30 140t84.5 94t125.5 34zM333 -211q-26 0 -43.5 16.5t-17.5 44.5t17.5 44t43.5 16t43.5 -16t17.5 -44t-17.5 -44.5t-43.5 -16.5z" />
    <glyph glyph-name="Dlinebelow" unicode="&#x1e0e;" horiz-adv-x="773" 
d="M45 663v47h306q84 0 152.5 -24.5t118.5 -70.5t77 -111.5t27 -146.5t-27 -146.5t-77 -113t-118.5 -72.5t-152.5 -25h-306v47h12q37 0 61 7t24 29v544q0 20 -24 28t-61 8h-12zM351 651h-117v-592h117q64 0 114.5 20t86.5 58.5t55 94t19 125.5t-19 125t-55 92.5t-86.5 57
t-114.5 19.5zM240 -119h290v-65h-290v65z" />
    <glyph glyph-name="dlinebelow" unicode="&#x1e0f;" horiz-adv-x="641" 
d="M537 81q0 -22 23.5 -29t59.5 -7h1v-45h-165v112l-8 3v527q0 15 -8 23t-25 13t-43 9l-11 2v46h176v-654zM286 518q40 0 71 -11t57.5 -34.5t50.5 -60.5v-90q-21 48 -47.5 79t-58.5 45.5t-70 14.5q-36 0 -64 -15t-47 -42.5t-28.5 -66.5t-9.5 -87q0 -46 9.5 -83.5t28 -64.5
t46 -41t62.5 -14q40 0 72 16.5t58.5 48.5t48.5 79v-84q-26 -39 -53 -65t-59 -39t-73 -13q-70 0 -122.5 32.5t-82 91t-29.5 136.5q0 80 30 140t84.5 94t125.5 34zM188 -119h290v-65h-290v65z" />
    </font>
</defs>
</svg>
